<mxfile host="Electron" modified="2024-06-23T08:08:11.163Z" agent="Mozilla/5.0 (Windows NT 10.0; Win64; x64) AppleWebKit/537.36 (KHTML, like Gecko) draw.io/24.0.4 Chrome/120.0.6099.109 Electron/28.1.0 Safari/537.36" etag="alp5MKW-1yuznl01ag5s" version="24.0.4" type="device">
  <diagram name="Page-1" id="9fKwf9n6nAmfYPUmcTjo">
    <mxGraphModel dx="1434" dy="836" grid="1" gridSize="10" guides="1" tooltips="1" connect="1" arrows="1" fold="1" page="1" pageScale="1" pageWidth="850" pageHeight="1100" math="0" shadow="0">
      <root>
        <mxCell id="0" />
        <mxCell id="1" parent="0" />
        <mxCell id="dH2MtjQN3qAbZiEpFHmS-5" value="" style="edgeStyle=orthogonalEdgeStyle;rounded=0;orthogonalLoop=1;jettySize=auto;html=1;strokeWidth=2;" edge="1" parent="1" source="dH2MtjQN3qAbZiEpFHmS-1" target="dH2MtjQN3qAbZiEpFHmS-4">
          <mxGeometry relative="1" as="geometry" />
        </mxCell>
        <mxCell id="dH2MtjQN3qAbZiEpFHmS-1" value="" style="image;aspect=fixed;html=1;points=[];align=center;fontSize=12;image=img/lib/azure2/general/Load_Test.svg;" vertex="1" parent="1">
          <mxGeometry x="120" y="160" width="82.42" height="80" as="geometry" />
        </mxCell>
        <mxCell id="dH2MtjQN3qAbZiEpFHmS-2" value="&lt;font style=&quot;font-size: 16px;&quot;&gt;&lt;b&gt;Tests&lt;/b&gt;&lt;/font&gt;" style="text;strokeColor=none;align=center;fillColor=none;html=1;verticalAlign=middle;whiteSpace=wrap;rounded=0;" vertex="1" parent="1">
          <mxGeometry x="131.20999999999998" y="130" width="60" height="30" as="geometry" />
        </mxCell>
        <mxCell id="dH2MtjQN3qAbZiEpFHmS-9" value="" style="edgeStyle=orthogonalEdgeStyle;rounded=0;orthogonalLoop=1;jettySize=auto;html=1;fontSize=12;strokeWidth=2;" edge="1" parent="1" source="dH2MtjQN3qAbZiEpFHmS-4" target="dH2MtjQN3qAbZiEpFHmS-8">
          <mxGeometry relative="1" as="geometry" />
        </mxCell>
        <mxCell id="dH2MtjQN3qAbZiEpFHmS-14" value="" style="edgeStyle=orthogonalEdgeStyle;rounded=0;orthogonalLoop=1;jettySize=auto;html=1;fontSize=12;strokeWidth=2;" edge="1" parent="1" source="dH2MtjQN3qAbZiEpFHmS-4" target="dH2MtjQN3qAbZiEpFHmS-13">
          <mxGeometry relative="1" as="geometry" />
        </mxCell>
        <mxCell id="dH2MtjQN3qAbZiEpFHmS-4" value="&lt;div&gt;&lt;/div&gt;" style="rhombus;whiteSpace=wrap;html=1;verticalAlign=top;labelBackgroundColor=default;" vertex="1" parent="1">
          <mxGeometry x="360" y="160" width="80" height="80" as="geometry" />
        </mxCell>
        <mxCell id="dH2MtjQN3qAbZiEpFHmS-6" value="Fail?" style="text;strokeColor=none;align=center;fillColor=none;html=1;verticalAlign=middle;whiteSpace=wrap;rounded=0;fontSize=16;" vertex="1" parent="1">
          <mxGeometry x="370" y="185" width="60" height="30" as="geometry" />
        </mxCell>
        <mxCell id="dH2MtjQN3qAbZiEpFHmS-8" value="" style="ellipse;whiteSpace=wrap;html=1;verticalAlign=top;labelBackgroundColor=default;align=center;" vertex="1" parent="1">
          <mxGeometry x="360" y="320" width="80" height="80" as="geometry" />
        </mxCell>
        <mxCell id="dH2MtjQN3qAbZiEpFHmS-10" value="Continue" style="text;strokeColor=none;align=center;fillColor=none;html=1;verticalAlign=middle;whiteSpace=wrap;rounded=0;fontSize=16;" vertex="1" parent="1">
          <mxGeometry x="370" y="345" width="60" height="30" as="geometry" />
        </mxCell>
        <mxCell id="dH2MtjQN3qAbZiEpFHmS-11" value="No" style="text;strokeColor=none;align=center;fillColor=none;html=1;verticalAlign=middle;whiteSpace=wrap;rounded=0;fontSize=16;" vertex="1" parent="1">
          <mxGeometry x="390" y="263" width="60" height="30" as="geometry" />
        </mxCell>
        <mxCell id="dH2MtjQN3qAbZiEpFHmS-21" style="edgeStyle=orthogonalEdgeStyle;rounded=0;orthogonalLoop=1;jettySize=auto;html=1;entryX=0;entryY=0.5;entryDx=0;entryDy=0;strokeWidth=2;" edge="1" parent="1" source="dH2MtjQN3qAbZiEpFHmS-13" target="dH2MtjQN3qAbZiEpFHmS-19">
          <mxGeometry relative="1" as="geometry">
            <Array as="points">
              <mxPoint x="560" y="328" />
            </Array>
          </mxGeometry>
        </mxCell>
        <mxCell id="dH2MtjQN3qAbZiEpFHmS-13" value="" style="ellipse;whiteSpace=wrap;html=1;verticalAlign=top;labelBackgroundColor=default;" vertex="1" parent="1">
          <mxGeometry x="520" y="160" width="80" height="80" as="geometry" />
        </mxCell>
        <mxCell id="dH2MtjQN3qAbZiEpFHmS-15" value="Dump" style="text;strokeColor=none;align=center;fillColor=none;html=1;verticalAlign=middle;whiteSpace=wrap;rounded=0;fontSize=16;" vertex="1" parent="1">
          <mxGeometry x="530" y="185" width="60" height="30" as="geometry" />
        </mxCell>
        <mxCell id="dH2MtjQN3qAbZiEpFHmS-16" value="Yes" style="text;strokeColor=none;align=center;fillColor=none;html=1;verticalAlign=middle;whiteSpace=wrap;rounded=0;fontSize=16;" vertex="1" parent="1">
          <mxGeometry x="450" y="170" width="60" height="30" as="geometry" />
        </mxCell>
        <mxCell id="dH2MtjQN3qAbZiEpFHmS-17" value="&lt;font style=&quot;font-size: 16px;&quot;&gt;&amp;lt;div&amp;gt;&lt;/font&gt;&lt;div style=&quot;font-size: 16px;&quot;&gt;&lt;font style=&quot;font-size: 16px;&quot;&gt;...&lt;/font&gt;&lt;/div&gt;&lt;div style=&quot;font-size: 16px;&quot;&gt;&lt;font style=&quot;font-size: 16px;&quot;&gt;&amp;lt;/div&amp;gt;&lt;/font&gt;&lt;/div&gt;" style="whiteSpace=wrap;html=1;shape=mxgraph.basic.document" vertex="1" parent="1">
          <mxGeometry x="680" y="90" width="90" height="110" as="geometry" />
        </mxCell>
        <mxCell id="dH2MtjQN3qAbZiEpFHmS-18" value="&lt;span style=&quot;font-size: 16px;&quot;&gt;&lt;b&gt;HTML&lt;/b&gt;&lt;/span&gt;" style="text;strokeColor=none;align=center;fillColor=none;html=1;verticalAlign=middle;whiteSpace=wrap;rounded=0;" vertex="1" parent="1">
          <mxGeometry x="695" y="60" width="60" height="30" as="geometry" />
        </mxCell>
        <mxCell id="dH2MtjQN3qAbZiEpFHmS-19" value="" style="shape=image;verticalLabelPosition=bottom;labelBackgroundColor=default;verticalAlign=top;aspect=fixed;imageAspect=0;image=data:image/png,iVBORw0KGgoAAAANSUhEUgAABLAAAAJuCAYAAACgxfuqAAAAAXNSR0IArs4c6QAAIABJREFUeF7snQWUXEXahr9xyUjcXSAKBA+E4O66LG6LL/bjbouzwLLY4ra4E9zdSUhCQtzdxycj/3kqW8NNp3u6e9KTjLx1Tk5muu+tW/VU9XTd977fV0l9+/attg1Uvv76a2vfvv0GurouKwIiIAIiIAIiIAIiIAIiIAIiIAIiIAIi0BgIJEnAagzDpDaKgAiIgAiIgAiIgAiIgAiIgAiIgAiIQPMlIAGr+Y69ei4CIiACIiACIiACIiACIiACIiACIiACjYKABKxGMUxqpAiIgAiIgAiIgAiIgAiIgAiIgAiIgAg0XwISsJrv2KvnIiACIiACIiACIiACIiACIlBDoLq62hYsWGCFhYWi0swIJCcnu/zUOTk5zazn6m5jIiABqzGNltoqAiIgAiIgAiIgAiIgAiIgAvVEYNWqVVZQUGCtW7eupyuo2oZKoKqqysaPH2+DBg1qqE1Uu0TAJGBpEoiACIiACIiACIiACIiACIhAGAJV1WbvLyq31+aW29SiSmudnmybt0y1U3pkWtv0pCbHDAGruLjY8vPzm1zf1KHoBH777TfbZJNNoh+oI0RgAxGQgLWBwOuyIiACIiACIiACIiACIiACDZNAtZndN7XU/jml2KYVV1nnzGRrn5FsxZXVNqO40jX6iC4Zdl3/bOuVndIwO1GHVknAqgO0JnRKfQhYlZWVxj8cXpSkpCQjXDE1NdX9rCIC8RCQgBUPLR0rAiIgAiIgAiIgAiIgAiLQpAmUVJod/2uBvTa3zAblptrDQ3Nsq5apNX1Gv7r+jyK7f1qpVVRV21c7tHSurKZQJGA1hVGsex8SKWAhWhUVFTnxKlLJzMw0/knIqvuYNbczJWA1txFXf0VABERABERABERABERABCISuHBckd01pcTuGNTCzu6VZWnJ4Q/9bWWFHfbDSquyJPtmh3zn0GrsRQJWYx/BdWt/ogSskpISKysrMzYFiFZwY7Vo0cI5slREIBoBCVjRCOl9ERABERABERABERABERCBZkHg3YXldsB3K+3KjbPtmo2zo/Z5XmmVDftiuXXPTrYPt8u3jOTGHRIlASvqkDfpAxIhYJWWlhoCVrwlLy/PUlKaTjhuvP3X8bERSJiAlZ2dbV26dLFJkybFdmUz+/rrr91WnY25EAf/7KwyG1tQaV0zk+247hnWoQk8fWnMY6K2i4AIiIAIiIAIiIAIiEC8BMqrzHb/ZoUVVBAWmG/ZKbGJUfdNK7H/G1tsn26fb8NaN24XiQSseGdN0zp+XQUswgVXrlxZJyjp6enOiaUSnsDMkkq7Z2qp21CinN0lYiwj2qY5J+l26+Fv09y5c+3FF1+0oUOH2o477hhjC+M7rEbA6tevn2299db2xx9/2E8//RRfLWbWvXt3O+SQQ+zuu++O+dxECliPPvqolZeXR7w21sQDDzzQOnbsGHP7ajuQOfPf2WX2zOwyJ1wVVlbb6/PKLDUpyc7vk2VXbZxt6QEX8Y/LK+zTRatsVXW1HdAx3Ybkrf8vt7Kqavt08Srbq316QhhMK640OPRpIaU8IUBViQiIgAiIgAiIgAiIwAYjsKS8yvp/vNzO7p1pe7RPt4vGFtn04kq3rj+tZ2ZNu5avqrZdv15hKyqq7dBO6XZm7yzr/cFSu35Atl2xUXTXViwdrKiosIcfftjS0tIsIyPDttxySxswYEAsp0Y85ptvvrFly5bZvvvuG/GYWAQsHDbcM9JGCu3CzJCIQqLvsWPH2pAhQzZIXiRC3saMGWODBg1qlm6gdRWwCBtkF8u6FPJgtWzZco1Tly9fbjfccIPtsccetueee0atFi3i6KOPtnbt2kU9NvSAgoICO+ecc+z88893OzF+/PHHzqCDK4zPYc+ePdeq86mnnrLjjjsu7mvFc0JhRbXdMbnE7p5aYitWxS5chV5j3w7pdu8mLRK+6QSfGXSdpUuXuuT8b7/9tvXp08d23nlnmzp1qh1wwAEuz1miSo2AdeSRR7oY1R49etgdd9xRs0sAsag+8RqDx8/BWFbe53cGNyhgMQG9BdD/cfOv8TvvffHFFwlzYF1++eW1Clhc7/TTT7devXolhN2Ewko7f0yhvbVtvqUmmZ0+utBmFVdah8wUe2ZWqf17kxw79X9fdHNKq2z/71bafzbLce6svNQky0+L/ETnzskltnFOiu3XMTFCk+8wT5OuGF9s/xqSGGX740WrrKK62vZMkCCWkIFRJSIgAiIgAiIgAiIgAiJQBwJ/FFZa/4+X2WfD8+24nwtsZsnqXdP+2iXD/rtlbk2Nc0urrMv7S2t+/3i7fDv7t0L3UPetbfPqcOW1TyEE64knnrAzzjhjjTdJis29FG6VrKws46Yb0Ycbx5ycHHc/xH0P5/O7T6KNCPbLL7+4m0ycEdyX8X5oiUXA+v333911uMmncO1wZfHixfbDDz/YPvvsEzMTrv/88887ESJSvTFXVocDua995plnjHtjRIvmVtZVwIoUPrhgwQI3ZxhT5iL/t27deg284QSs7777zgoLC23KlCl22mmnueO5BuNEfT53FsfwOUD0RVBq06aNO4/ixVXOQWDjc4PIhq5BOwhdpKxYscJuueUWN+7XXnutffrpp07jQIzxOoa/Dn1AlPECls/5RT2+Tf6zx/XQTDiGevj88tmLdX5fO6HYrvtjbVGwXXqSdcxMtjErIyfJD52/7Kb6+y6tatUi4p3zixYtcry85hM8n/7+9a9/TagbywlYwLvooovsoYceshNOOMHee+89mzBhghu8k08+2f3hQVnPz8+3yZMn2wcffODahWNriy22cJOFCcT7qJ4MEG6nDh06uMnFhEPB7Natm+2+++7udxxf/EFOlE0wuDVnOOjAS2RiuO2+XG5dMlPspa1Wf5lhOcbW9/2yCjt7dKGVVplN3K2VdctKtkdmlBpPai7sm7VG0x6YVmofLyq3Hdqm2bm9V7/HU55Dfyiw3NQkO71Xptvx5JZJJVZSWe2cXVv8b4cTvmAXl1XZq/PKndNru9Zp9tKcMrugb5YhmCGUbdky1X5YVuESTw7NT3V26KvHF7ttgMcXVtj1/VtY2/Qk94Fge+Cju2bY/h3T7d9TS+ybpRXGjsC3Dsqx+aVV9kdRpf2wbJUd1jnDEK7Grqyw1ulJtk+HdPfBuWVisevz3u3Ta4S7eCe/jhcBERABERABERABERCBDUXgrQWr81/9tGNL2/u7lbaoLDYB6/ktc+2xGaU2v6zKRu/cKiHN597m/vvvd/dK22yzjQ0cONC5p1577TX3M/drF154oXMLUbh3QyjCCcGNMvdu3Dh/+eWXtummm7ob8VmzZtn777/v3Cw//vijnXXWWfbGG284hwSCGCUWAQuHFO0KGgOmT5/u3DO0g7bTZhxfM2bMcJE6iGbcR/I7N/+bb755TZ4kXt9oo42sVatW7vpewCIcCTGOm/1ff/3V3SBzD8l9HUIEwgIiAe/RHurgf64LI9qDIMPPXHfatGlOzCC8CTa4yKgnNzfX/U6/uJ+lDxKw6jaNGSNE1boU7tUZi2B57rnn7OCDD7ann37azW/m8TXXXON0CMQkxpO59Prrr7v/+XygayA+UR8iGe3ZeOON7ZVXXrERI0Y4ww5GGuYL894LsQhYfOZ4HwfgwoUL3fUQzJizzBUENT5Po0ePtpNOOsnN1aOOOsrpKOgi1MfnAsEOwbhr1672+eefOyMN7eazRru5tr9ubazQF4Z8stxWVqzpvNq1XZrdPqiFM8bc8EexPTWrzIJHoA/0yEqx2aVVTkcIlhv6Z7scf4kq6D2PP/64ff/99473brvtZojc/u8EoqD/+5KIazoBiw8xttRHHnnEDjvsMPeH4oUXXqhRHxk8Bot4Vt6//vrrnVJ53nnnuT+eDPZmm21mnTp1cgIWk6t379727rvvusE+9NBD7d5773WC1rHHHuv+yPBHk2u0bds2Ef2wV199tdZkcfQJmIm4HmJUq3eW2JC8FPt6h5ZObKKMXlFpu32z3BaXr54kb2+bZ1j1bp1UbJ3Ij9Ut0yYVVRoOq1N6ZNodk4vtic3z7NJxhXZqzywbmLs6FM87sBCHDv1hpV2xcbZ1yUy2ayYUOxcX5dulq+yCsUX2/JZ5duZvhbZ7uzQb0SbN7ptWamf2yrTbJpXY81vl2vV/FNtZvTKtbXqyE7D2+nal3T2khS0rr3Z19MtJMT4P+3VIt2FfLrfPh+dbSlKSZSabfbSo3BaUVdvAnBT3VGnksHz34bnhjyL79ya59sTMUsdg7MpK26Vdmm2Wn2qxZQpIyJCrEhEQAREQAREQAREQARFIGIEZxVX2zynFdnX/Fjbw42W2MEYB6+Wtcu3xGaU2taTKuRsSVTAJIFB99dVX7ka6c+fONmfOHHefxX3U//3f/zlHFYIVBgFuisePH2877bSTu+d56623bPvtt69xuiDscPx+++1nCAP8z40m94E+ciYWAYt7OS8GISBst912Nm7cONe2HXbYwQlViEsYHLwDi/tFbuQRzxDicGchWNE/RAVvauD69I0wR0SGvfbay9039u/f34kVCBS8x70pdZF/mXMo9AE2XAfxintcTBSEMlEX/yNkzZw50/3M/SOsaAfCHv3gZvzNN9+UgLUOkxiBxo9JPNUwB0KFjttvv92NM2II5pojjjjCORMx3RCe5l1SCI/Dhg1zWgSCEo4gXHyIWIirzAX+py7mIoIXIhUCk8/J7QUsQgiZG2gXQQGLOc51OB6hGKMPc5Xr0CbmPJ9RQg35fHE+n0N+vuSSS+zOO++0W2+91Qmk8+fPd3MvWuF+nx1Rg4VArkm7tbYe2audj4QVbvLpshrHaGZykr22Ta6tqjKXx++A71caebt94Z79153WDNWM1o7a3kcb4rNPOfPMM53Ah+iHwM48YNwuu+wyxzIRJalfv37V/o8ff8BQJxkUBCf+aF599dVOUeOPIoXJwD/+iCBU3XfffU6NDObAuvjii10nULz5Q3LQQQfZv/71LxeLyqRjYqGEJjIH1rnnnutARSq044ILLrC+ffuuM7fF5VXW7t3VtuFju2XYo5vl2kXjiuz3ggr7cNHqP6CU17fOswM7pdu9U0ssPTnJxc7jXLr092L7a9cMW1BWZRf0ybKnZpU60QgHFMULWLu3T3db83or8rljCu2eIX8KWL+uqHRi1QVjiuy0Xplu15OrJxTbE0NzbIevltvr2+TZaaMKnciFCouAddX4YidgUaivRUqyHd4l3Tm0jvhxpV3SL9tenltm7MBSVFFtJ3bPsuGtU+3VeWV295Ac+3ZphY1aWWFn9Mx07jHErx7ZKXbh2CIjPveuIS1cXSoiIAIiIAIiIAIiIAIi0BgJcKv3lx8L7KW5ZTXr/ac2/9MZws6DXd9favizuIWcsntrO3t0QcIFLM8OUeWxxx5zN4aIVYMHD3b3WLiPuMfi3ouba4SYoIBFLhpEGR+qFcyB5QWsUMdLLAJWOAcWjhTu9biBnzhxortx517SC1iIRh999FFN2CLCGv3i/i14f+YdWJyLcQJRg757gQthioge6kWUQNyij9SD0Mc9KSLIzz//7BwxGDCIAkLs2GqrrdwNNWKVd6shuFFgtffeezt317PPPisBax0+uIwrIla4kLJI1SJOYnwJFsRW5imiE3UiFpE2iBDP448/vkbAwjHF/PACFoISegUCCvOFuhEuvYDFNQghRERFl/jHP/7hHHhewLr00kvdHECAYu54BxZaCQ5AXkOUwRnoQwiZV/SZzxjzb8mSJU5XQczidz63CFg333xzXAJWrw+X2vTi1U5QX4bmp9gvO60plB/1U4E9N2f136ud26Y5c8xRP610OfnGrKywN+b/mSucvSkqDkiMiYjrXXnllUYYodMXzj3XOR4Ze372c+CKK65wn81ElKRhw4ZVo5QxqD7hGm6qBx54wFnfrrrqKiNBOgNOwfp23XXXOVsqH/JwAhaDzh9UbKoUBpDB5I8TAtZdd93lBjiRAhZ/5PgXqQRzcq0rOBKXD/lkmf1eWGlMALbYJaTv2dmrJw0FJxIhhH1bpLgwPhKvPbhpjr04t8zenl9ul/RDuCpzubKw/SF0ES5I+dfUEmudnuzC9RCV7hzUwv1+xfgiVwcF99SoFZV2BgLW2CInjnkB66nNc+z5OWU2vqDSslKS7NJ+q8MTEbDOH1NkD26WYz8tQ2wrd86w1mnJtlv7NNvxyxX20ta5NvzLFTZpt1b2+rxyI8Z/WKs/BSw+ALi8bhzQwm6eWGy7t09zObD4oqfOM0YX2M8hH6h15a3zRUAEREAEREAEREAERGB9EiipNHt4RonhyjqmW8YaD2jZGOnuKaW2sqLKDumU4VJ87PftioQKWITh4S7BqYFZAGFo+PDh7oYZoYibfcSXe+65x4XrETFDWBU32d6BhQEBYYYoGW6kuZn0SdwRBnAyvfzyy3bMMcfEFUKIWIaAhqHBl3ACFqIDohJiEfeG/IwYwbncmxEiGEnA4hxEKEIPEatIqo4Y4fN/cZ+JaMD9KsIFhfq57yTqhnAmuCGUISB8++23zukFT0S+XXfd1R3vBSxELfjSTn4mhJAE4ghxCCnkVGoOZV1zYHlGPt8UY1DbPToOKXJJhcs3RngeghFCJOXJJ590oiZzNihgEWLIewgkOPoIjUVkJUSUcUO3YA54AYs2vfPOO25+8HlBXOHzFBSwOB/hlNA/xCfep404t7gOhh/mDpoJrj+cWRh4+HwRGoiza+TIke763g1YFwFrm8+X2w/LV2+W4AvRVWgIwYJh5pwxRe6lQzql285t0+3vYwpdJBapjh6e8afRp2Vaki3bJ3HzGY6IinxO4bLttts6hyZjgTCInoSIzmc+ESXp0EMPrcY+etNNN9UkZ+ePGYPA5IgkYPFhRvh68MEH3R8ehClUSFRMkrkzUEw6Ji+NZeCxtdaXgPXhhx+6PziRCn8omWShOxvUFSK7+e357QpnzaO0SksyYlGP7ZZpp44qtEM7p9t9gYmFSIXA9ffemfbdsgp7evNcu3hckb0wp8wO6pRe46yiLkSjPb9ZYZdtlG2Dc1Ps5FGFVlxRbf/aJMddg/Lz8goXund89wwXWnhctwzn8rptcondO6SFsYsK8bI/7dTS5byiLFtVbSO+WmFLyqqsd4tke3mrPMtNSzIUW9xjuK8IbbxxYrET2Q7omGEkhyNM8J0F5Xb9gBbOcXXW6EIbtaLCbh3Uwgl1tPfCcUXWIiXJbhyQbUd0WVM9rytjnScCIiACIiACIiACIiACjYFAogWsDdXnWBxY3Ogj8vgd4BGbEIa4SWXHd4Qzbtxxd3EcYtz+++/vbmgRDLg3RFgiDzM3v8Hd3RCoCBNEqECcQpAi9Oizzz5z95PcIBP+x3ncq3KzjMhBwflFeBZ5hriB5mcMFxSEGUQJ0uAg8HHfisiF+EfBIYbhgvtVnDlcA9ELd9dPP/3krtMcSqIErCAr5hRzxbtxGHfuzRGuYk1k3hzYh+vjzRNL7PLxf2ociE+jd2pl3f8XPujPIdp544+W2oySKhvWOtUu7pttR/600q7auIV9saTcPlj4Z5TYDm3S7Ivh+QlDitBLiKDXfRAs+Yzzj59J4h5LuGSsDUq66aabqolTJi7YF+I3yd5PGCHWr3AOLI7FvsmHGVV61KhRLg8WjixsevzhQJ2kI7yPDQ97X30JWOszhJC+I+TcNbnELvu9yHzef5xOhNExgQjTI+Z0Q5UpRZX24PRSl9xNRQREQAREQAREQAREQAREoO4ERq+ssM8Xr7L2Gcn2ly4Za+V93efbFe7mcVwCc2DVvbV1PzMWAavutSfuTKJ5CElEPEtkgujEtbBx1lQfAlbjJNEwWk0E1aafLnMbrlHYRO3EbpmWEUZneH52qU0trjJyZGF86Z+TYrNKquyUUQXOheXLI5vl2Mk9MhPWQfQeRF7CCHHUkT8MURmtCBcc5ii/E2QiLuqSuCeiorrUkcgQwrpcPxHn/LS8wu3ahwspLy3JjuySYYd2XvtLLRHXiqcOLISX9ctyIYIqIiACIiACIiACIiACIiACdSMwsajSNvlkmXtITfkbmzEN/vMh8YLSKmOH8m1apblNnBpzaSwCFm4qzBI4qlQSR0ACVuJYJqqmZ2aV2d9GFVopeYwC5bktcl2aIaLCYiloXnu1T7dXt16dH7s+CmHBCFgkyCf8tz6KBKwEUWU+JW84w1WCeqFqREAEREAEREAEREAEREAEggRIHbLL13/eJLIBOTeOvpRWVruby3e2za9J99FYCTYWAaux8m3o7ZaA1fBGiA0ESd/DboKYZnzh7xAbwZGTL5Zy1UbZdvlGWZZZz1FiPpQwljbV5RgJWHWhpnNEQAREQAREQAREQAREQASaBQFuGe+dUmK/rqhwGxeFlvy0ZNu3Q7rb3KiejA3rjbMErPWGukFeSAJWgxwW16iiimr7cNEq+21lhSFqxVp6Z6fYiLZp1iskb1as5ze04yRgNbQRUXtEQAREQAREQAREQAREQAREYAMQkIC1AaA3oEtKwGpAg6GmhCUgAUsTQwREQAREQAREQAREQAREQAREwBCwCgoK3I6CKs2LADvGjR8/3gYNGtS8Oq7eNioCErAa1XCpsSIgAiIgAiIgAiIgAiIgAiJQPwTIXzN//nwrKiqqnwuo1gZLIDk52dq1a2e5ubkNto1qmAhIwNIcEAEREAEREAEREAEREAEREAEREAEREAERaNAEJGA16OFR40RABERABERABERABERABERABERABERABCRgaQ6IgAiIgAiIgAiIgAiIgAiIgAiIgAiIgAg0aAISsBr08KhxIiACIiACIiACIiACIiACIiACIiACIiACErA0B0RABERABERABERABERABERABERABERABBo0AQlYDXp41DgREAEREAEREAEREAEREAEREAEREAEREIENKmCNHDnSbdWpIgIiIAIiIAIiIAIiIAIiIAIiIAIiIAIiIAKRCEjA0twQAREQAREQAREQAREQAREQAREQAREQARFo0AQkYDXo4VHjREAEREAEREAEREAEREAEREAEREAEREAEJGBpDoiACIiACIiACIiACIiACIiACIiACIiACDRoAhKwGvTwqHEiIAIiIAIiIAIiIAIiIAIiIAIiIAIiIAISsDQHREAEREAEREAEREAEREAEREAEREAEREAEGjQBCVgNenjUOBEQAREQAREQAREQAREQAREQAREQAREQAQlYmgMiIAIiIAIiIAIiIAIiIAIiIAIiIAIiIAINmoAErAY9PGqcCIiACIiACIiACIiACIiACIiACIiACIiABCzNAREQAREQAREQAREQAREQAREQAREQAREQgQZNQAJWgx4eNU4EREAEREAEREAEREAEREAEREAEREAERGAtASsnJ8eGDBniyPTo0cNWrVplc+fOtfLychs9erRVVFTETC0tLc2SkpLcueHKyJEjrV27djHXpwNFQAREQAREQAREQAREQAREQAREQAREQASaH4G1BKxWrVrZiBEjHIlBgwZZenq6/frrr1ZaWmqffPKJE7RiLTvttJNR32uvvSYBK1ZoOk4EREAEREAEREAEREAEREAEREAEREAERGANArWGEP71r3+1goICe/vtt52TqmPHjtanTx/DpTVv3jybMGGClZWVWb9+/axnz56Wmprqfh87dqzl5+fbQQcdVCOAIYJxTrDIgaXZKAIiIAIiIAIiIAIiIAIiIAIiIAIiIAIiEI1AzAJWmzZt7PTTT7dJkybZjBkzbPvtt7cpU6Y4cevyyy+3zz//3IqLi931pk6datXV1bb33ns7seujjz6yBQsWWFFRkQSsaCOi90VABERABERABERABERABERABERABERABNYgELOAhcvqhBNOsIceesjltNp1112d4+qZZ56xiy66yIUX4rBCqPI5rziGEMKXX345LHY5sDQbRUAEREAEREAEREAEREAEREAEREAEREAEohGIWcAaMGCAHXvssVZSUuLqxGFFbqtx48ZZ//79naDVunVrq6ystEceecQWLlzoXpOAFW0I9L4IiIAIiIAIiIAIiIAIiIAIiIAIiIAIiEBtBGIWsHr16mUnnXSSc2AtXrzYCVWhCd2zs7Ntzz33dPmyXn31Vdt5552tffv29sILL4RtgxxYmpwiIAIiIAIiIAIiIAIiIAIiIAIiIAIiIALRCMQsYGVmZtpRRx1l5MJauXKlJScnO/fVF1984V4n11VKSoq1bNnS3n//ffvll19cYvdjjjnGJYJ/4oknbMWKFWu0RwJWtOHR+yIgAiIgAiIgAiIgAiIgAiIgAiIgAiIgArUKWDiqCBX0YYPkvMrKynLiVVVVldtxkHxXubm5TrziWJxZJGvnZ5xYCFscX1hY6N4LFglYmoAiIAIiIAIiIAIiIAIiIAIiIAIiIAIiIALRCNQqYEU7eV3fl4C1rgR1vgiIgAiIgAiIgAiIgAiIgAiIgAiIgAg0fQISsJr+GKuHIiACIiACIiACIiACIiACIiACIiACItCoCUjAatTDp8aLgAiIgAiIgAiIgAiIgAiIgAiIgAiIQNMnIAGr6Y+xeigCIiACIiACIiACIiACIiACIiACIiACjZqABKxGPXxqvAiIgAiIgAiIgAiIgAiIgAiIgAiIgAg0fQISsJr+GKuHIiACIiACIiACIiACIiACIiACIiACItCoCUjAatTDp8aLgAiIgAiIgAiIgAiIgAiIgAiIgAiIQNMnIAGr6Y+xeigCIiACIiACIiACIiACIiACIiACIiACjZqABKxGPXxqvAiIgAiIgAiIgAiIgAiIgAiIgAiIgAg0fQISsJr+GKuHIiACIiACIiACIiACIiACIiACIiACItCoCTQrAaugoMC+/vprGzdunM2fP9+KioqssrLSkpJXobX1AAAgAElEQVSSLDMz01q3bm1HHHGE9e/fv1EPal0aP3PmTLvttttc388+++yoVTz22GP2008/2fnnn2/9+vWLenxjOeCPP/6wf/7znzZkyJCYODSWfoW284svvrD//ve/tvPOO9tf/vKXxtoNtVsEREAEREAEREAEREAEREAERKCZEGg2AlZZWZndeeedNmPGDEtNTbX09HTLyspywhUCFqWwsNBOO+006927dzMZ/j+76QWsAQMG2FlnnRW1/xKwoiLaoAcsX77cLrnkEmvfvr3dcMMNa7Xlvffes9dff9222morO/nkkzdoW3VxERABERABERABERABERABERABEYhGoNkIWO+88469+eab1qZNGzvxxBOta9euTrwKLdXV1TWCVjR4Tel9CVirR7OpOLCiCVgrVqwwxrxDhw5O5FIRAREQAREQAREQAREQAREQAREQgYZMoFkIWKtWrbL/+7//M1xYxxxzjO2www4NeUw2SNskYDUvAWuDTDJdVAREQAREQAREQAREQAREQAREQATqSKBZCFizZs2yG2+80VJSUuyuu+6yjIyMuHCRK+vDDz+0CRMmuDBDQg+7d+9uu+yyi3Xp0qWmLvJpPfroo1ZcXGxnnnmmC1NcuHChO3f69OmGu2unnXay4cOHr3V9RLZPP/3UfvvtN8M9Qxs7depkI0aMsI022miN45977jmbN2+eC/XjuEWLFtn777/vrnHuuedabm6uTZs2zaZMmWJz585179NurtGqVSsbNmyYbbvttpacnFxTb10ErJ9//tkuuOAC69Gjh33//ff27bff2sqVK61Xr1627777RnT2fPfdd/bjjz+6dhG+2bZtW9tmm21s6623XqOf5eXlNn78eOcUWrBggS1ZssSxpcAd/n379l3jnFdffdV++eUXFzZH3bNnz7ZPPvnEpk6daieccIL17NnTHb906VIbOXJkzbgwnjCB5y233LJWDizyYrVo0cKFmMKRvv7www9GXjXyZR100EEuNJUxZgzJMbV48WLr1q2bHXrooY57aKFftI3/qTM/P9+N9a677uquFVqo7+OPP3bjCgeO6dOnj+22224ufxuF8f73v/9tVVVVtmzZMjfnW7ZsWVPVSSed5JiRvwxWO+64o+255541799///1uXK655hr3Gp+dzz//3PFjPiP+brfddmu5FCdPnmxffvml411aWurcjVyXeerL3nvvLfE4rr88OlgEREAEREAEREAEREAEREAERMATaBYCFoLCfffd5wSha6+9Nq7RHzVqlD3++OPuphxhCJEBYQUxAYFkv/32s7322suJQQhYCGQIUIQpIk4g8nAeYgMiDAIHYgfn+ILY9NBDDznBAXEMsQMBAsEGYQMR68gjj3RiBOXhhx82BAMELAQNxCPqRTC46qqrLCcnx+X7QkxAdPBCFe1DcOFYBCMEHZ//qy4CFkIRfUHImTNnjmMDJwQ/+nzOOec4oc8XRKMHH3zQ5SFLS0tzwhVt8f1E+EIg8mIPPC6//HLLzs52x/u2wp9r8Nrf/vY322STTWqu8dRTT7lE/TjuEF4YP/qNMHXllVdau3btnCj2n//8p0YEYmxKSkqcyMf7iI6hSdyvvvpq19YDDzzQ3n77bTfG8KaN9Hno0KEuITphqgiJ1EN98Ebgu+yyy9YQfV577TUjDxV9IqwVwYfjqReOCE1+MwGuiyD28ssvu7nHdRljrgs75gXOQoRJ5uUrr7zi3IZsVgAj+uILwiLhszCCFaISY+gL4h3z8aKLLrIPPvjAxo4d667FGCBsMS+PP/54J/b58sYbbzgBlWMQFplztJP5R58oiLbMY1ioiIAIiIAIiIAIiIAIiIAIiIAIiEC8BJqFgIXAQ9LxjTfe2DmGIhUcULhocJggCiAcXHfddU54OuSQQ2z33XevOZVdDG+99VZ3PKIYIogXsCZNmlTjLDr88MOdgICI9Pvvv9s999xjeXl5dtNNNzlxgXLvvfc6scELVV5wQvy4+eabnaiBg8y7bBCwcNBQEBdwdfEP0cgXhIagw8q/jqMGkaKiosK5bDp37uzeqouABVc4IbSQCNwzePLJJ52ohvvoiiuuqBFuXnzxRSe44TL6+9//7oQOCmLLv/71LyfKIewdfPDBtfaDccE99dZbbzmhCDa+eAGLvtMe3Exw9Y4mxgg3FS4mmDE+XhhEYKPtOO3CCVjMA8YboQhBkZ/JJcX1cZ5xzUGDBjnxCTGH15g/iDgIcV68wSXF64hWOOaCmwbA56WXXnLOKuYqbUOs43hcV9S9+eab1/R3zJgx9sADDzgx8Prrr695PVoOrGgCFn1BKDv22GNt4MCBrl4cVs8884zrI+IkBQGNvnF9RL6guxFRkM8GbWEe+/kb7x8pHS8CIiACIiACIiACIiACIiACIiACzULA+uabb5wwMXjwYCecRCo4mnBAIUggLuAg4WccQQgIXnDhfAQixCiSfiMIcbMfFLCOOuoot8MbQkawnHfeeU6UIMSN9xCSvFCBoBQM9+I8L8icfvrpzuVD8QLW/vvv70LAgsJVLFOaEDOED8QTL07URcDCeXXYYYc555EXgbg+Qgs74OHC8cIFotPFF1/sRB3+R6AJFsSr22+/3bmREPeiFcQRWOJgoj+ISUFeOIv22GOPtfjTNsaS9uJWY7yDJVISd8QZxBqEOsbBu8G8IEb7eQ9xybeFegnJGz16tHPLeaeYH1NC9xBGg4X2IUQx1xCGmIeImwh8zF/qCQqTMOY4RC6u5du1rgLWAQcc4ATb4JxnjvzjH/9wQhzXpPhx41jmQmgh3PWzzz4LO+a1jfHSVWZZKWZZf0a5usOrzWxaSbWVVZnlppp1zVi9g6iKCIiACIiACIiACIiACIiACIhA0ybQLAQsci4RBhh0joQb1lABi7CtZ5991gkWCEjBQvgW4YLe0YSrygtYhJAhwvBaaCG0jYJIgSuI0Dt+xp3COV6A4BjELULdEEDOP//8mpAyL2AhEgXdO8FrIbBRN+4fxKNgeffdd23ixIlriCpewELQIn9XtIKjDRcY4ltoHirORfiDDaFovI9TCeGKguMsKIzwGi4s7+qBqxf+EHTIo8T7oQUBkcL/fkdJLw6dccYZttlmm611DgIa4gvuMMYiKDZxcG0CFo44hKxgPis433333S4skj6HiokIpwiowfZQB24uzybYSMIXcfYxdy699FLnaMJpRthiqDuN8whhRAwl1BSuvqyrgEW4JYyCxc9VXud9CiIv14c14Z9BcY3PA6G7CHD0OZgvrrb5Na3E7IDfKq1Tutmzg1OsXZrZ5OJqe3J+tRVWmD2/cLWAlZ1sdmynJEPDurBHsuWsjrBVEQEREAEREAEREAEREAEREAERaIIEmoWARa4mckzh+vEiSrixDBWwEA0QDxARCNULFm7OEUM6dOjg8htxTF0ELPIxIYCEJtvmWogjXAOhC3eWb0MsAtYjjzzihC+EjVABy/cj6ApKtIBFn+gbohTCoRc/4ISbKBJ/RDuEIEIDEWdwZSF+8XqkEo+ARV0If4Qx4kALOseov74FLMYUYYp24LYLvT6OKoQyEtoTLoigiYiKmIqoF+oYY3w5njBOHGm+rC8Bi/54dxohut51iHBKon6EUj4jzN9wIa2hYzq+yGx5RbUd93uV4cLap43Z04NSbE5ptb222CxEi3WnpyaZHd8pybIlYDXBryh1SQREQAREQAREQAREQAREQARWE2gWAhY5qe644w4nGOBuiVRCBSycSq+//rrLVcXNebAgLOC2YVc274Kqi4DFDT4J1yNdA8ECUYCcTN6dFU3AIr/Tbbfd5lw8xx133Fo74CGIsKtcfQpY9Im+IaoMGDDA7Y5H6B79JOQvtCCy4fxCECFMjZxKnj+hd4QEhrq2cP5Q4hWwEJBwhflwzmBb1qeARYL7UJceIg95yQjJ84Ll888/73aoZL6FJkFnTjCvyfXFJgXrW8DierjJCBVFfKM9iI2Ms99VkSTx/BytjCqotttnVtuvBdV2epcke2Gh2bW9kmz31klWWmV2wu9V9sfqTSjXKFvnmd2/cbKlKJowGmK9LwIiIAIiIAIiIAIiIAIiIAKNlkCzELC8G4VR8uJIuBELFbBwkOBkiubc8nXVRcDySbBDE7vXNqOiCVjsfEjoIcLXKaecslZVvMcx9SlgEWLGrnUkcUeowZHjwyeDIYK+ceRwIhwRAQRBCqeWz5+EsLXpppuu1Q9C1ijxCFi4lWhbx44d7cILL6xJpO8rr28Bi+sg9hBmGsxrVtt4f/jhh24HQsRSdhuMpawvBxZtIfH8q6++6px1oY6yWNrKMeOKqp1AdXC7JLtjZrV1SDP7detky/yfKlVSZbbXr1XWKcPs+5XVtn/bJHt3SbX1zUqyzGSzl4dIwIqVtY4TAREQAREQAREQAREQAREQgcZIIKqAhRuEm1LyGcVSECBwzxD2hhODMDDEiXCFneQIFavvgruHUDS/8xw7yAVzTRGGxU34a6+95lwuPok7YgfhZogpiB4kGK+t1EXAom04gsj1hKAS6rAJd71oAtaoUaPcznQkFPcij68H5xWCDzm8wglYhNb5XFS19bW2HFiEI5LPi/xSON98fiqSppPj6eyzz3aOsmAh3JEk5ORJIiSN8sILL9gnn3xip556qm2xxRY1h+PSIqQOgYsSj4BFvxEx4c0OecGcVTiICDUdO3Zs2F0IE5UDy4emwjqcCyyUO3mmaDOfReZjqBMt3DgRekqOLfJ1IZgF5zvHR9uFMNYcWNT1xBNPGHnm2D2SXFh8/uMRsn5YWW13z6y23lnm8lxVVps91D/ZiVS+eAGrT5bZ58ur7Yj2Sfbqomob2GL1MRKw6vuvqOoXAREQAREQAREQAREQAREQgQ1LoFYBi8TiuGYQZhAscI1EK9zEslsaAoHPvYQzI1wOo/UlYNFm2k5YG+IHO/fh6OEmG0EF8Wrp0qWua7zmBSx+Jwn1b7/95sLgSKJNWBdhXjBB+EIYQHTyr+EuiieJO9fwIWIIFOxK53Mj0Vafw4preFEgmoDld4tDOMKBRX2IiOQCw1VGH+h3UMCaP39+ze5/uHwQ69q3bx9xh0PmA7sQEh5GjitCxhhvRJ4XX3zRJfdmlz3mgy8ffPCBc+rgfjr88MNrwspwC3EObTriiCNsl112cacwLryO0AMX+o+r6/PPPzfayxjg7IpHwIIprjocaISF7rfffk5gwwn3/vvvu9xU/COZPUKbL4hqiRKwGAtyQvH/brvt5jYJoA3wo08IaeS7Yj5QSGCPEMi44qpj/vI+c88fj8jatWvXmvbyOon/qfPoo492QjHH9+rVy/2fSAGLUFHmPWwptIVwRtrTs2dP52Dk91ARjWPHF1XbEWOrbP+2yfbo3CprkWJ2R79kO6TdmvGAErCi/eXV+yIgAiIgAiIgAiIgAiIgAiLQtAnUKmBts8027maZ/EUlJSX2yiuvOBoIW7hrEH0ID8PtsXjxYvceO+oRouZ/5zVcL+HK+hSwuJEnFMv3AcHJCwDsqobLB3Fl8uTJawhY9JGE5OT54RyEGgr1ccMOC8LkECDq4sCiLsQ+mJH0nDZxDf7310AQgGusSdw5DzcZggxtZqwQEHHFnXjiiU4QwWkUFLDoC7mp2DGOa3MeohECS7iCgPX999/XtNcn6EZwgwOiFiFyQbcQ13300UddcnnfT+r2Ih1CDu2jvxQEHpxczCX6wDU4lpxjJ5xwgr355ptOkItHwKJeBCpcSbgDEcX4R70Ir8cee6zdcsstzglWXwIWbRgzZoxzycGKvnlxknHgHwIa4+NFH3ZiRAhmPnKs3z3RzxGEIhxXweJ3ZPTjyf/0DddZogQsxhTnHKLtoYce6j7ruDX5x2eGvjCejCvjG1qOGVdp6clJ9saiamOvzCcGJtsBAeeVP14CVtP+IlLvREAEREAEREAEREAEREAERCAagVoFLJw43Ijietljjz3cjSruEIStLbfc0t2cIr5ws49gggBDGBzhXYRh8V5tZX0KWL4dOIPIc0TbuLHG2URCb0QBQu8QCkig7QUCzkP84Rx20kPI41iSqxOeRd9xKiEOwANhAEcRvLwQE2TwzjvvuF8RhoLiDucS4ghvnD6INYhiuKdwr3AdL2Yg2tCWESNGOAEtXKE+xmPGjBmuXdRBMnTEMcbzm2++ceOIG8oXxBTqRnigf+xsh0AZriBCTZs2zfWB8/hHmzkPQRDXVKRd5+gn7cI9RfHJyX0y/OD1EEhwjiFicS2O6devnzsEEYi6cFH58fr1119d3fQtmNQ8tA+IrvQBMYs2Uy8iEIwJW8ThtO2229ac9tFHHznhD3dYcCdABCRYIoYxb0LHnLbjnArXHsaZMaJvCGiMDSIlY8q8DIY30hDEoQkTJrjx4Wf6TDuZhzAPDXHlGHgw3tTNXCKslDbCiPcYJ8QyX3C30Zedd955rcTrMIMNCdl5n/Lee++5jQ74WzF8+PA1MMOL+fTf//7XhRYiEgcLidm3/rHKru6VZE/Nq7ZTuiSFFa84BwFr71FVVlxpNrus2vpnJ9nE4mprk2bWJzvJXhqsHFjR/tjrfREQAREQAREQAREQAREQARFozAQiCliIDziLCLtDwCFPEw4dHCDcjCMasKsc77FDHGFCvM8NMeFhiA2EeRE2hsgQrmwIAWtDDpYPqdyQbdC1RSCRBMh/hUhFAn7+BoQWxDZcdAihPom/P6ao0uz8SVW2VV6S7drKrHdW5G0EcWc9OrfaPlnKT3+WpCSzozsm2T5ttAVhIsdVdYmACFjYsGdxiUxAaxzNDhEQAREQARFoHATCpXZpHC03iyhgbbfddk6k4gaU0qFDB5fzCLcFAhZC1dNPP+3eY3c03BeEJ7GAwTmEKwR3D+IWN7mEIYaWhipgaRHWWKav2rmhCbz00ksuV9k+++xj+++//1o3fF999ZU9++yzLnww1IG1oduu64uACIjAhiCwoReNWuNsiFHXNUVABERABESg6RNYH2ucsAIWIXLnnnuuywdFsmsKDgqSmCNSEYpG2NHjjz/u3iNcjpxHJHIOFkKVzjzzTPv0009deF5DFLC0kGv6HyT1sP4IkMCdXF6E5Obl5TnRmnBFnJmELuLYJNSRnGUkoFcRAREQARFYm0B9Lfi0xtFsEwEREAEREAER2FAE6mN9E1bAwm11xhlnuN3ayBlFIe/NOeec43JdkQwcdxbvkReHnES4MMj/hBMD9xXF52+69957a5xcQXjr24GlhdyGmrq6blMlwGeKnFnkxmIDAAQrcl8hgvN3AKcmecPYUTFSTrSmykb9EgEREIF1IRDvok9rnHWhrXNFQAREQAREQATWF4F41zjBdoUVsNq1a+eSLiNKkQCcwkW23357l9eKZNG4sHBnkXB6yZIlLiE0hVChtm3buuNJTM3uZCT7DlfWh4ClBd36moa6jgiIgAiIgAiIQH0QiLTQ0xqnPmirThEQAREQAREQgfVFIF4xq9ZdCCM1OjQHVl07Vx8ClhZzdR0NnScCIiACIiACItCQCfg1TryLvYbcJ7VNBERABERABERABCAQy/qmyQhYDVW4aqjt0kdEBERABERABEQgNgKxLKhiq6luR0VaSzTUdtWtlzpLBERABERABERgfRLY0OuI2voaqW11ErASBTURDqwNKRBtyGsnagxUjwiIgAiIgAiIwLoTqI9FYKzrjA157XUnpxpEQAREQAREQAQaKoH6WGPE09fQ6zdaASvWRV08cEKPXR/XWJf26VwREAEREAEREIHGQSCeBWBd1x/r4xqNg7ZaKQIiIAIiIAIisD4IxLP2qGt7gtdolAJWXRd2sQCrz7pjub6OEQEREAEREAERaNoE6jMpe20LSa1xmva8Uu9EQAREQAREYEMTqE9Bi7obnYBVl8UX57BT4nvvvWdz5841dlncfffdrUuXLus0vnVpyzpdcAOd/Ntvv1llZaXbmZJJU1FRYd9995117tzZevXqFVOytQ3UdF1WBERABERABNYLgXVZsHFuItcUiagvke1ZLwOgi4iACIiACIiACCScwLqsb2jMup4f2qFGI2Cty0Lq/ffft7feestWrVpV0/+MjAwbPny4HXLIIZaSklLrQK/LtYMVJ6qehM/KWiosKiqyp59+2oqLi+2vf/2rderUyV577TXH7KeffrILL7zQ8vLy1meTdC0REAEREAERqHcCiVpwxVJPcH0Qy/G1dT6euhK5LklkXfU+uLqACIiACIiACDRjAuu61vDo4q0n3uPDDVGjELDWZVE0e/Zsu+mmm5yDCKGlVatWtnTpUisoKHAizJlnnmmDBg2qYcO15s+fbytXrnTnZGVlWc+ePaNO73VpY9TK63DA4sWLXf/oL4W+TJkyxfUlPT3duahwo5WUlFhycrK1bt3a2rRps8aVXn75Zfvxxx+d82rZsmU2bdo0VyfnnHjiifbCCy9YVVWVEwL3228/p67CAb5cv3v37o7fvHnzHG+OTU1NtQ4dOlhubu5aveKc7OxsKy8vt0WLFrk2c3zHjh0tJyfHnb9w4UJbsWKF9ejRwzIzM9eog/fnzJljXbt2tVmzZjnRjcJxvEZdFK5DG+l3sC2cW1hY6PoAI8Q62u/L1KlT13rNv1dWVuauTdvhQHs5n2sE+x/aFn/+jBkzatrLa23btnVOQfrAfER8pS24BiMJrrTdH+vHnjpoE58DL+DCHqa0zRfY0b+gyDtgwAD3Np+FBQsWOP7BftVhWuoUERABEWhSBOJdiIU7PhE7DNa2BonnmpEGp6GtcZrUJFJnREAEREAERKCBEYh3fUPz4zknnmND0TR4AWtdF0333nuvjR071okY559/vgt7Q4C55ZZbnIix9dZb20knnVRj3Sc07u2337bNN9/ciSkIAYQbUuralrqety7zmB0eERt23HFHVw1CyJVXXmmXXXaZE0cefvhhJ3YMHjzYli9fbpMmTXJuqqCIdeONNzqRC9GE8xGxfBkyZIiNHz/eCWH9+vWzc845x7HC7fbLL7848QnHVp8+fRxPxBImKiIY/59xxhlrdI96brvtNicoIpb88ccfrg5+xgV2wQUX2D333ONEFNr997//3bp167ZGHWPGjLEJEybY4Ycf7hx3aWlprg7Gn37uu+++rq///Oc/nWjJPKD+Sy65xNXDOYhcjBfXR9w66qij3Hscx3kwDCe+8f73339vOPuoF3ca7dh0003tyy+/dOwQhyZOnGiwQ/ALlltvvdV69+7txoaC0Eh45oMPPuiEK8Qw+kF9u+66a9ipQd30nzYgOo0ePdquvvpq155PP/3UcUfk4vWzzjrLiYC+cMy///1v23LLLd1LHLvTTjtZaWmpGxd48Xn49ttvHZP+/fuvy/TUuSIgAiLQaAjUdZFV1/PCgVmXnFl8p8XSlrquVep6XqOZAGqoCIiACIiACDRRArGsD+JZlwSPjaXuWI4JvX6DFrDWdVHE+QgOOG5atmzpnFjedfKf//zHCS0ILAg3FFw0V1xxhZ122mlOlKH4NiCc/P777048QSDgfVwsOItwNiEwIOgglOFYmjx5snMLIbL07dvXiWWIJzh7eA9RYosttnCCCecjFCEWcD6vIxYgWCC40X4cRVxv4MCBToCgP94ZhjjC+5tssknN+NYmYHmxCOGGOinvvPOOyxN27LHH1tSBYIOLCsdTfn6+a+v06dPddWkvbYMZP3sBC7GJPjz33HM2bNgwxzdYEHHuuusuu/jii9d4HWEElnvssccaryOccTzjAj/acemllzoBhrb5Qr1PPPGEHXHEEe6YYBk1apT9+uuvzjX2yiuvOGEK1xiFcxgv/gULzHGYcR3K66+/7saE9lHHPvvss4Y7K3guc+ahhx5yIg8iULAgjH322WdujgULQtPJJ5+8hqjE+4hHnhXsae+1114b059QuCHOhvKgjm222ca8w4rKGDfG7JRTTlmjbvKfIX6dffbZTqDkM8C/ww47LKY26CAREAERaMoEYl14xeKCilZX6PvR1kih78d7vh+3aNdpyuOrvomACIiACIhAcyUQbV3iuUQ7bl3fD+XfZAUsv+DCVeIdWBdddJETbBBdbrjhBueK4Ub+hBNOcFwI9br99tvtqquucgJRsHz44Yf2zTffOOcMgs3nn39ul19+uXMm4ZIhVAvBhkTxXBuhqUWLFvbJJ584FwznvPTSS65eXC4ffPCBuzaCCIKUD+VDMEDkOu644+zJJ590ghFCDQILwsl1111nX3/9tXPa/O1vf3NPVXkdAW277baraTICFqLbVltt5V7zDhvEH4Sgp556yjHwBQcWAgZt9QWRj3bQBtxACHcfffSR7bbbbs5tRPtx+jz22GPOERUMbXv22Wdt2223XUPAggsOLQSxv/zlLzXX4XXybHEtX3AK4Z6inwh83gnF+whvCCpBBxZtJAzPO858PTCgfdtvv70TbO688047+OCDnduJQn/gERRkaM+LL77ohC4EKNqBmMf8oVAHDjIErXCFOcExp59+upsXtAGBCOHw3XffdXOD8WSMcFwxRnBnXsCZf7i8GFvmI+4zhNeZM2fa3Xff7doS7Q8Bginjx3hTuDZzgNcff/xxJ8zh0GM+nXvuue56zGMciTjuYMs85LPz8ccfu+NpA8IejjqEMRUREAERaK4Eov0Nhkssx4TjV9t5vBdNUKotJLG2c6PVS1tjOaa5zgn1WwREQAREQAQaO4FY1y7R1iqRONT1vGB9DVbAqusiKfQ88hIRLohDBycKggL5lRBRfA4s70TBxUSY2jXXXONu6IPuK0IRce0QWkhBSMCFg0jFOYhBCDy4dnAqkRweR5UP20M4eOONN1wYI9dFACLMjJC54EAi1rz66qtOLEFk2njjjZ1QRLnvvvvsmGOOccIC1zzvvPPc69dffxbCBQwAACAASURBVL1zQHk3Fa/hqMLp5V1a5EHC5UQIIU4rxDTa5gv5jxB6CBv0hWsgttB2QgvpF2FqG220kROLCEFDDMR5Fk7AQtDzQhF1IobQrlNPPXUNgRBhEJFohx12qLk2AiH8EEwoRx99dM173oHlBSz6RlupN+g2QjhCbGGsEcDgfvPNN7vQRs8FNxTiYlAgI+QPxxYCIU45ktbjKtt7771dG2oTsBCJEIgQqLygiKD11VdfOSELoY0wQNggSFFv+/bt3eucC0+OHTp0qBPdGCfmMMfBnzBJnFXB/FWhfyAYL+YKIYw+1A83IE40roEoiGjLmDIHce4xdwnvhCWC3g8//OAEOK7DvEAA4/oIbrwf6tRq7H+s1X4REAERiJVALIu7cMf416I5o3w7anNtxeLoop7arhVunRXL2iuWY2JlqeNEQAREQAREQAQaDoFoa5xI7yfqdUhEbUPfvn2rNxQyHCgISqGlroujSOfhLEIQCS2IM9yk++TeCFsIHISrkdTcF27eEaxwXyEoUR599FHnMMJRhbjFeRTvsiJvFgIMdeHUQjTC7eNzP40bN879jvBDsnSSbFMQGBDbCBNDwMKVQzsp999/vxNyEGlwCPEe4ggiDYJX0AGFUIQI50UhjsPlg/iDoEP7//GPf9RMEEQNhBoELl/Ik0VIYdCBhRuHHEzegUXYHwKHDzHz5+LACgpYiGmE4cEb548vOK1wySHGhSZl5xgEFRxHOH4Qeii0EeHPC1jkLcPhFMwNhVjE6/Tr+OOPr2HDWCFEEdZJwRGGaHTAAQe4hT4i2xdffOFC/JgXjCECIc4uXG4UHG/MBYQoxMTgPGFc2CyAfFvhPnyMM+IS4ayRPpyEtiI2enGT8UJIwu0GK+YaYhNCpy+EHzIXOQb2tNfPm9B5j2gHn1122SXiR5866B+5wzgW0Qoxj3nMZykoKEasRG+IgAiIQCMlEG3xFOxWIp4mUl+0xV8kMSrS2ifWtdS6urKCLGK9ZiOdFmq2CIiACIiACDR6AvW5xom2lknE+qlBOrDiXQBFW3whkhAqxf8UjkcMQVjCeeJfwwWE4IQbh0TbvnD8Aw884ELQCCnjd5xK3MQjYHhBguODApbPqYVohCsG8QcBh0JeIcL2cA0RJoaAg0hBCCFhiIg0oQIWbaBtCFici5CA0EbIGY6dYCFUDaHIC1gIYwhYPmE5ScMRSDiXgvCCgISQ4wshaLiVcApxHEnRET9ggHMHAQ2mtDNUwPrvf//rBD4cWLioEMzoq98V0V8DoQYnEK6ucAWG8EGg8QIS40bb2VmQ8swzzzguQVcSYZa4iBAMg8IYghXH+cT85KpCyCGnmRfx6ItP1M5Y48zzTjCu58MdmSNe/GTukFuKvGB77bVXxBsRxEBEKPrEORRfh+8/4aoIVPAKFnaExEWFM4x2ISz5gniJ8MlcZMxxCkb6A0KyepjAgPHDRRh6LOGEe+65Z8388NfBYUgfg265Rv9XXB0QAREQgVoIxLLQi3XBFhoCWJtTK7gGidWNFYurKlwY4rqIYPGu2TTZREAEREAEREAEGgaBuq5xYlm/xHIMFGJdQ3liDU7AinchFE288h0l5I0wM5xIFISkYNJzfxzCEKF+3OAjCiBw4UJCUODGHwEGVw7CFeIOjhQvYNEW3FQ4YcgThfhCmB4CFsfhBEOo4XV2rTvooIOco4tcV+RT8o4fXDo+hDDowELA4prUj+MIEQq3jw9LDH4MwjmwCI0kIThhYAhoP//8sxNqaA/XJgdVcIc9hBZyIuFMIx8UPPyOfjiqcDHBAqEokoCF8AUDeAbD+whhoz6YcN2gkwlhjlBKBBkEFr8boBeogg4shCqEnKCgwjjQT0IqEd18QRDyQhN14axDAESI5BzqZXxxGvmCcIbAEyw4wnBoBV9H/MIhR3+9Ew6H2IEHHuicUjiY6A8OKUIDCUdlPiGkIoy++eabjiVtYmw5D764wWDN68zdI488co1Q0WC7cPQh0JEzzX8umOP8Tj1cn2tQD8wZD0JfcQHCBeGM/xE7mQc41+CE4wwXGPOEOvg8hAqRDeNPsFohAiIgAuuPQDwLrtDwwWiLunDhhsFzwrmxQl+rTcyKFM4IvXURs9YffV1JBERABERABESgvgjUZY1TIzAlJa3RrNC6oq2BgieHPbahhRDGI2DFusjyxyEukVQdx82hhx66BthgXZF+9ifEKpoFL4AwhmiEiBJPH2ublOxohyMnmBA93kmMIOUTtIc6gQghJLk5DiTyXSEyIYSMGDHCiV/slkgIIa4cHFHBEMZY2oHIhsjk84rFck7wGIQeREnEvqBQFW89Ol4EREAEREAEIi28wpGJN2ww6HoKnlvbos6vFaI9HQ13XLQ1TX0KWIla42hGioAIiIAIiIAIJJZAtDUFV4tnjVPbOiaacBWrkLVWPQ1JwIpn0ROveMVg4CDxoW+IMbUJVfGKWNHag4CFeIZzJxEFhxJ5isgN5UPp4q2XNiNgkSsKIQpXWnBnPXZHJOQtlEXo4rtPnz4uV1K8hbBK3GS1JSSvrU7cQLiJgs6ueNug40VABERABEQgGoFYn0TWthjjuzSehV6wTZEcXLE+UAu3pgkXSsg1a3NuBdsUz5otGl+9LwIiIAIiIAIisGEIJGKNEyp8xfqwri4iVoMKIYxnMVSXBVa0J5LR7Pfxvu+nIOexkxxuKZJ7J6IQcoZzqa7iVWgbCNVDvKqrmJSIPqkOERABERABEWhoBOq6sIv2lNO/H26RF07sqo1LqAsr3HqntodRocJVrGusSIJXQxtDtUcEREAEREAERGBNAolyWsUqXkUSteIVsRqMgJVo8SqaWBVcdMVzbFCUCvezFnP60yACIiACIiACTZdAPC6qoHMq2sKttmMjCVShLiovfMW6rgkXShivA73pjrR6JgIiIAIiIALNi0Csa5x4HVbR1kChIli43/1rjU7AiuWpYKwLt1CxKZYnlrEIWNGmeTxiXbS69L4IiIAIiIAIiEDiCERzToVeKZZFmT+nLsfW5sYKvlfb+iheUSra8bXR1honcXNRNYmACIiACIhAIgnUxxqnNkd5UIiKZQ1Um4DWZAWsWEUof9y6HB+cTLEIa5EmnxZ7ifxYqi4REAEREAERiJ1ArIu5WC3uoYu1UAEq0kIveFykawWdWLGsO6KtcWhrLGJVLNfSGif2OacjRUAEREAERKC+CcS6vgmuW3ybYgkvDF3PxCtk1UXQcm1tCEncYxVwoi2galuoxfJeqKgVTuTygxrLe6HHanFX3x9T1S8CIiACIiAC8RGItsCL9jQwVLCKdPVYFnrhFpH+tVC3VWj4YHDNEc6ZFWmNE9re2gSt0HVYLOu3WI6Jb8R0tAiIgAiIgAiIQCwE6nONE06AirbWifR+6Pqn1hDFxiJgRROv6HQkV1VqaupaO//UtpCLR5wKXjdWwSre42KZnDpGBERABERABESg7gSiLfJ8zfEIWsE1AudVVFRYZWWlq4rf460rtHecH2mNEypw1ba2qW1dEotDqzYRrO4jojNFQAREQAREQAQSQaC+1jh+PcNaYdWqVU6PCYpU8YhcQRGrtvVR0sYDB1fndu5tpcuXWHV1pZUXLLPqqtWLq/ouI0eOtLZt28Z0mdqe+tXmrmJnvZycnLUWiTFdVAeJgAiIgAiIgAiIQB0JhK5dWNwtWLCg5oFbbU8Yg4vCSAvPVq1auR2EVURABERABERABERgQxIoLi62xYsXryFg+bVMJCGrtrDDiCGGQ7bavrrTpiOsYN50S0pJsYzc1jZ/zJe2qrgg5v63aNfVcjv1svm/fRnzORwYq4AVzX0VKmAFnzK2a9fOUlJS4mqXDhYBERABERABERCBdSUQbv0ye/Zsq6qqclWHLs6Crqlo+Seou0uXLnpAt66DpPNFQAREQAREQATWmQDrkpkzZ4Z1YIW6zsO5tGLOoTVo6FbVHTYZYTO/foOllHXcdAcrWjjLCuZNs+TUdMvMb2uVFausvGCpc2alZmRbem4rS0pKtlUlBU7oaj9wG8tq1d4W//GLlZcUEstn5YXLHITMlu2toqzYUjOzraKkyJJTU626stIqSott5Mi3rU2bNlFh1dV9xXnt27e35OTkqNfQASIgAiIgAiIgAiKQSAKRBCwfRuiv5Rd2XsAKJ16Fe61r166JbK7qEgEREAEREAEREIE6E5gxY0bNuUHRKvRnDqqriJU0aIttqjttuqPN+fljS05JtXb9t7JFE3608qIV1mXzXaxo0WxLTs+0tKwcWzDmK+u8xW5WOH+6VVdVWWV5qRUvmWdt+m5qWa072tKpY62qotza9tvcZv3wniWnpFjnLXa1eaM+d/WmpKVb8eJ5VrhghuV27mPPPXSXtcxtERVQLAJWpJxWcmBFxasDREAEREAEREAE6oFAOAFr1qxZLg9WqFgV7sljcIEX2jzq7t69ez20WlWKgAiIgAiIgAiIQPwEpk+f7k6KJE6FrnWiCVuh6yB3/JCth1d32nQHK12xhCs599SCcd9aek5La9t3qK2cO9mS0zIsq1UHm/frp9Z5811s+czxtqq40FaVFFp1ZYXldOhheV362txfPrbk1DTrtvVeNn/sN2bVVZbfvb8tHPetddx0hBO7Vs6e5DrVc8Qh9tDVZ0cVsNZFvPIOLIUQxj/5dIYIiIAIiIAIiMC6EQgnYGGv9wKWrz1SKGFtjizOlYC1buOjs0VABERABERABBJHYNq0abXmwIokWNUmbK0liLkQwk1H2Kyv3yKC0Nr0HWrVVRVWunKp5XXpY8umjUXTsoqSQue4Ss3KsZwO3a1F2y7u9wVjv7YW7brVCFhcoE2/zayyvNzSW+RZ4YKZVrxkrhOwcHMVzJ3qCPUYfpA9dM3frVVeTkRiteW+qi1xO+/59wkhlICVuEmpmkRABERABERABKITCLeG4Szs9eTACt2pJ1TMimXHoB49ekRviI4QAREQAREQAREQgfVAYOrUqTG5r+IRsoIClvt58BbbViMuzR/9hXNgteox0MoKl9uKOZOs05AdbMnkUTW7EuLSSs/Jt6TkFEtOS7e2fTezOT99aFmtO1nrPkNs8R8/W8myBZaSnuVyaaWmZ7n3yYEVKmB1GLy9PXnX9XEJWNFEKzoUFK/4uUOHDhKw1sNk1SVEQAREQAREQAT+JBBJwMJeH3RgRdxlB1f8/2z4kerq2bOnkIuACIiACIiACIhAgyAwZcoU1w6fg7y2PFjR3vMdWsudtcnWw6vbDxrm3q+urrLSFYtdDqyqVeVuZ8GWPQa694oWzbKlU8dY56G7OGdVZUW5rZw1yVbMnuiSvXfcZLglp2Xa3J8/tKqKVUZeLerzOxN2GLydFS+eawXzV8dFktT9zddetTatW0WEHU6w8gcHhapwwpU/VwJWg5jLaoQIiIAIiIAINCsCkUQn7PU+iXukXXmCiza/cAs6tvzPErCa1ZRSZ0VABERABESgQROYNGnSWuJVNKEqbjdW3759qxNNIbNlO2vdZ1Nb+Pt3LvQwUnn77beNJOuRSiQBK1LC9lD3Fb937NhRDqxED7DqEwEREAER2GAECD+bN2+elZWVbbA2NPcLs9hiF+W8vLywKCKJVxyMvb6iosJZ7MMt6kJDC4O/h16sV69ezX0o1H8REAEREAEREIEGQmDixIlrrG+Ca53QxO6xCFt0a608ofUhYLHjYOHCmVaydEGtKGsTsOqavD1UxJKA1UBms5ohAiIgAvVEoLKyykrLV1lFZZVVVSX8mUw9tXrtavmCTk1Jtoz0VEtLTYkojBCClpub6/6pbBgCOKgWLFjg0hRkZ2ev1YjaBCzs9bUJWKGVhcuF5V+TgLVhxl9XFQEREAEREAERWJvAH3/8UauAFU60ivRaULxaQ/yqDwEr1sGsi4AVj/uKYzt16iQHVqwDouNEQAREoJERWLi0wKbNWWzlqyqtqprE2I2sA4HmkvEoKRkRK8U6ts2z3l3artWZVatW2dKlS61ly5aNt6NNpOWIULNmzbL+/fvHJWBNnjw5rIBFvohQt1Vt4hUX7d27dxOhqW6IgAiIgAiIgAg0dgITJkxYQ8DyubD4PzSXVfC1YM4sL1yFOrZqXm8MAla05O1BUSv0ZwlYjf1joPaLgAiIwNoEcFtNmD7fFi8rtJTkZMttkWEtsjIsOSnJubFWFJZa+aqKRo2uRVa69e/V0XKzM2v6gYC1YsUKua8ayMjypHGTTTaJS8DCXu+TuIez0/sFWmil4cSsPn36NBASaoYIiIAIiIAIiEBzJzB+/Pi1HFheqIqUOqG214Nropo104YSsBCaRo4cGTYHVqzhg+HcWD6E0P/fuXNnObCa+ydJ/RcBEWhSBCqrquyX8bOsqKTM0tNSbWj/bpaVkbZWH/+YvsDmL15hjdiUZWkpKbbloB4urJAiAathTeW6CFicg3sr2pNHehqaDytU3JKA1bDmg1ojAiIgAiIgAs2ZwO+//76WAys0D1a4kMHQXQsjua/cOqgxCVihTqxQt1W43yVgNeePkPouAiLQFAnMnLfUps5ZbK3zWtjAPp1c3qhwhe+EeYtX2sQZtedjbOiMWuVm25CNujh3mQSshjVadRGwsNfX5sCKFDYYfN2vd/r169ewgKg1IiACIiACIiACzZbAuHHjogpYoeGE0RK9+4d3jdKBVZvjyj+pDHVgdenSRQ6sZvsRUsdFQASaGgEStn83Zprhwtq8f3fLyc6I2sVxU+bZomUFUY9rqAckJyfZlgN7WHZmugSsBjZIdRWwECKDTxsjPXkMdjecsCUBq4FNCDVHBERABERABJoxgbFjx9YqYIWGE3pxKpgray3B6n+7Nte83hgdWKE7DYZzXvljJGA140+Qui4CItDkCMxbvMIIDezQJs8G9OoYU/+WLC+yMZPnuGMz0lKsvKLSfbmmpCTbqlWVMdUR7iBybyUlmdv9kEI446qKSkNwQmgLFnYVrKiorDWcMTU12e2iGG4nxc7t8m2jHh0kYNV5tOrnxLoIWOSH8LsQBhdp4XJA+PeD//uesM7ZaKON6qdjqlUEREAEREAEREAE4iQwZsyYiAKWF68iiVXhQg3DilkNXcCKZ9dBOlhVxS5U1TX/unbt2ugdWBXVZiMXlNsrc8vt94IKS0tKsqH5KXZst0wb1np1XhQVERABEWgOBBCvELE227irtczNjqnLiEpfj5rijt12SC+bPGuRS/Devk2eTZ650FKSk9zuheTK6tOtrc1fvNIKi8vc8YhRf+5sWO3C+Cqrql3YIiGMiGALlxU4wWpQn042aeYiy8/JtKUriq3aql2CeQSuHp1a2+wFy6yqerVAxY6DnOvFL37u0q6lFRSV2rKC4rX6lZGeZsM26RWzgFVWVmbs9LvVVltZ9+7dY+IUy0FYw9n5LisrK5bDE3bMp59+aiNGjGhw3+d1EbDIDxEUsGrL+7B6Dq69OyGvs9bZeOONE8ZYFYmACIiACIiACIjAuhD47bffagSsULcVv4dL6B5NuFprw5umJGCFhg/ye10FLISw0tJSy8zMrLH58xo3BdQL/IyMDPczx/nC8SxMeZ33KZzDz/xP3gu/IE1PT6+pm9fLy8vXuingGf4NfxTb9ROKLTnJLCuF2x6zkspqQ9h6fGiOndD9zx2q1mXC6VwREAERaOgExk6ea4uXF9qwTXtbRlrsAv5nP010XRvSr4tlpqfapJkLrW2rXFu2ssh6d2nnRCyELXJqLVtZbGMmrXZsDezdyYXu4dpC7OrYNs9mz19mg/p2sTkLllnvrm2dIEVOrvZtcm3yzEXWqW2+zVm4zDbp19XKKircce1b5bmdEim/TpjlxK7U1BRbXlBsJaWrrEuHVi5R+/gp88IKWHx577hFv5gFLJ6Aff/9927Hwv/7v/9L2LA+9dRTtt9++1nr1q0j1vncc8+5XRI5LlGFPtx8883G92ZoQUR66KGH7J///Gfcl/v444/t559/du199tln3Xe3L7fffrttt912tdZZFwELEdAncafycDsRhkteGtoQ2tq/f/+4+6wTREAEREAEREAERKA+CIwePTqsSBV0X3nBKtwDvHCvNXgBK9IOhNF2HGQAggIWYhOlrgLWd999Z8RwsjgcPny4q+vRRx+1Fi1aWMuWLS07O9uGDRtmPBVGmGrVqpV7Msx22k8//bQRInDLLbdYamqq+/+qq66yJ554wh3LE9MpU6ZYTk6OHXHEEW7x+vzzzxuK5dlnn20knvflP9NL7czfCg3d6uWt8mzXdmnODfD2gnI78ddCy0ox+3J4SxuYm1Ifc1B1ioAIiECDIkBC9rmLVtimG3W1VnmxObBwW30zeqrrx6A+nW3+kpXWOj/b/S1NS0m2aXOWOJEqIz3FcrIzbdaCZVZatsod37dbOydsDejVyeYuWmZtWuasIWClp6fa3IXLrUenNpaVlbaGgIXrCgfWrAXLrVPbPFdv1w6tnLi12cbdnFCGA4vHEtPmLLauHVtZYVFZWAGL9m09uGfMAtb1119vxx13nD322GN2xRVXuIco7777rvue4fsxLS3NTjvtNPcdxmKDcPtjjjnGfvzxR+vWrZu999577qHK3/72NysoKLAnn3zS8Vi+fLmdf/75NmvWLPvwww+tpKTEhg4davvss49bsBQVFdUIZjvttJMdfPDB9sILL9iMGTPcd98hhxxiX3zxhfXo0cNeffVV9xrfqd9++63tsccerq5nnnnGvYZTiXoHDx5sF154od100002Z84ce/31112byP90+OGH2z333OPqxKF17rnn2htvvOG+gzt27GhHHnmkTZ8+3Z2DaNSzZ0874YQTXF8mTpxoF1xwga1cudL+/ve/W4cOq0M0KVdffbXddttttv3229c6/8MJWKHrmGAFvBcqYPF+pB16gou2cPVKwGpQf57UGBEQAREQARFo1gRGjRq1loAVdF3F48IKt1uhWzNtCAeWX4SNHDnS2rVrt8Ygh+406N+MVcAKhhBybl0FLBbrBx10kFv0Hn/88bZkyRL797//bVdeeeUaIQwIT3vvvbfl5+fX9OORRx5xi+/27ds7kcsLWCzWeQ1BjHb+4x//sIsuusgtXC+99FK3EJ89e7YTtSi4rHb4aoX9vLzChuan2n+3zLUX5pRZ/5wUO6JLhm37+XL7YXmF7d4uzd7fLt/dBKmIgAiIQFMmsGDJShs/bb61a5XjxKhYyqJlhTZuylx3KOf8PnWeDe7b2YpLy11eKkIMMzPSbHlBieW3yLTCkvKapO8b9+xgCxavtG4dW9mU2YutZ+c2TmDq3qG1zZi/xFpkZVhhcan7ss5rkWXzF69woY2IVFmIYmkp7kEGri9CCKln5rxl1qdbO6Mv5OBq07KFlZSWOxcWOyyGCyFE+EJMi2UXwqVLl9pZZ53lHqbghtpzzz2deIMo88ADD9gPP/xgHINQhcCFMIQY1alTJ5s6dap98803dtlll9lHH31ku+66q3uPBytbb7213XfffXbmmWc6QYzvMdzDt956qxPJeChDCTqwEMLYdQ+xjO9GBCXaxbF855133nn2l7/8xYU58l2JeMUxCFFt27Z17cAZRf20k+vxIAimfCdT78KFC2scWDx4eu2115wwxRqDNQD95fsc0SyYCP3OO+90wtnixYud04r6fUG4qi8Bizb6EMJoO+8EBSza5tdCvM7PAwYMiOUjoGNEQAREQAREQAREoN4J/PrrrzUCVqhwxcWDAlYwF5Zf70RK8r6GmNUYBaxwSdsBEpr/itfqImAVFxe7J7qXXHKJW9yfcsop7mkuC3GePFNY0POk+OWXX3ZOLXfzkpdnPPXmHBbmL730khO/wglY1PGvf/3LTj75ZOfG+uWXX+zYY4+1O+64wz29ZnG+tLzaBn+yzOaVrXaT5aWulqje2Cbftm+daoM/XWoTC6usfUayTd6tleX+7/16n5m6gAiIgAhsIALkkPp29FTnXBrav5vltYgeQk044JIVRa7FJFrHkUVSdQq5q3BRkQCrjJ3hkpLde6Xlq504fbq2szkLl1tVdZUTm8hFRRtI3k4uLBxcOLmok3xZTlig3opKVy+/r34v2b1G2CCCGdcg7xXXZ0dF2sV3G++FJnGnXtxXmelpMQlYb731lvsOQ6DCqXTooYfazjvvbBdffLH95z//sa+//tq5qxYtWuTEJpxKlBtvvNE+//xz54raYostnACEQML3HN9LuIx9CCHuKB700D/EMBzK/kFOUMB6/PHHnSMKlzKiF2F5Dz/8sHMbEw7I9+M555xjhYWFdsYZZ9grr7zixCde5/2jjz7afVcSPojANHnyZPc73/e4wBDDeMDkQwjpG8fycIxjeOhEX70Dmu9k+uYL7X7zzTddG3058cQTnTurTZs2tu+++zqRLFKpiwOL8M5gOoFIIYShr4c+4ON9CVgb6A+RLisCIiACIiACIrAWATSNSOGCrFu8gMWJoUnd/fv+Pf4Pt8FNo3JgRRKuwuW+8q+xgGfRHU9BqCJ3CE+bf/rpJydGAY+EuD6XyIMPPuicVzy9DefA4gnyBx98YAMHDnRCFiGEQQcW7bn77rtdeAYLZ8IweML91VdfOeEMMQwBa9Any2z+/wQswgh/2amV9cxOtvPGFNlTs0qtstqs3f8ELC9wxdNXHSsCIiACjY0AghL5qPJyspyTyotRof1AaJo1f6kLEaxrIVH70pWrxa8NVdrkt3D95HsoFgcWuaAOO+ww5wRGXLrmmmucwMRDkh133NE5gclPRegg30s4s1hEEFaIq5iwtM0337xGwCJPFKIPDiZcS4TzIYThxMJJxIObG264weWRorz44otOoKENhC0ilBHOiKCEKHXXXXfVKmBR73XXXeeOP/30050r6/LLL3ev4a7ie5WwQq6Ji3nZsmWuXfQb4emTTz5xAebDhwAAIABJREFUbVu902RKTRJ0QglxfCHI+VxacCHE0YcVIrKRN4zXCTekXi/whRv/ughYhHF6B5ZfvIUu0sI5szgmVMQaNGjQhpqWuq4IiIAIiIAIiIAIrEGAvKJBYSrUZRXqwKothUJY8SopqXGEENYWPugXdF6w8i4s/3q8Ahbn8+SXJ9YkqeVp75dffumewLI45mku4AmjOPDAA41cWYRncKPgiw+T4IkyT5t5Ks0NAjcKPBUmhJAnwoQQEhaBGHbUUUe501nYkgie8IXiymrb7ssVNnpFhXsP/9Vfu2bYrOJK+3Lp6tcoW7dKte9H/Hl9fY5EQAREoCkTwKE0+o/ZtqKoxOWYwomVnZXudgj0f/sRryZMW1ATCthYeeDM2mpwD0v734OYWAQsQt9wW/mCaHPqqae6hyPsHkioIILNZptt5kIKeWhDSB/n8Z1GbqlNN93U3n//fefGQuzhXFxUhBSSawpXMiF8Q4YMceF/fB/6EMK5c+c6tzJi2UknneS+U8mtRZ4tvkdxbvHwxotZiFR8X/KACIcXbeM7lZB6QiFxj91///3uu/jaa691whXu6i233NK1h9yUXA82fDfzD9GN716O50ETYYiIU4hqCHm+II7h4goWHGGEPRJ22KdPn1qnTl0ELITDoIDFBaJtKe3WAElJTtTzP7PukYDVWD/ZarcIiIAIiIAIND0CmH9CBSzvrAombw++FnyYF2mXQr/2cXU0hhDCuuS/8oIWC+t4HFiEDyJAsYClsCDmRoBFME91ebrL02tycOC8mjdvnksey0KcsD9yeeCowoHFYp6FMTcELKjvvfdetyAnrweL1x122MHdHLzzzjsu1JAyf/58J2hxPcJQ7plSYuePXf30PyvZrGj/tvbOgnLb77uV7rUWKUn25Q75LkeWigiIgAg0FwKE3U2dtdjmLFruQveyM9JdHivnUqqosKKScheO15hLfk6m9e/VybIy0mq6EYuAFa7PiDifffaZ+z6bNGmSC8NDFGqIJRhC2BDbF2xTPAKWX8sgYDGOobkh/A7HkZ44ct3geojjJGA19Bmi9omACIiACIhA8yGAgBUqTkVK4h4pR1ZE5xXiVWMUsMKFEfrXQnNg8Xq8AlZDnF6njiq0x2euDhc8tHOGzSmtsm+XrrKslCS7cUC2XdAnqyE2W20SAREQgXonsHRFkc2Yt9RKykjIXuXyUzXW4kLekpNcnq2ObfJcwvfQUlcBi4czhMWRc5FddNksBAdWQyy4wnBo8VCooZe6CFjs0BPNgRUaWhjkEEzkLgGroc8QtU8EREAEREAEmg8BHPexOLBCdyP0TvRQlxbk1gozbGwOrEgCVjCEkI7W1YHVEKdXeZXZJ4vL7Yrfi+yXFZWWnGS2a9s0u31Qjg3OSzFyY6mIgAiIQHMlgGjFboKEFjZe+Wp1mHhScpKlpiS70Mhwpa4CVnOdG/Xd77oIWOzQE07ACpcHIrhw82ubYJ/IBaYiAiIgAiIgAiIgAg2BADs/h+a5iubACiZ2D66FQkWtmvcGDBiw3tf7XoQi1I5wumAJTVAaFKOCi7dIidt9fgj/f1NwYAX5lFRWW0pSkqWHv7dpCPNWbRABERABEagnAhKw6glsHautq4AVGkIY+sQxdAfCcOskjpGAVceB02kiIAIiIAIiIAIJJ8BGeF6QCpewPZo7KyYBq7E4sMLlwfIiVVDMauoCVsJnmSoUAREQARFoNAQQPthZMLhxSKNpfBNrKDstzpgxwwYMGLBGz4IP4sIJT2wx7R1YoYlNw+V98E8gfV3BEEIJWE1sUqk7IiACIiACItCICXgBy69vgmIW3QrnzoqUuD3iDoWNUcAKClaACLcDoc+HhQOrMeTRaMTzVE0XAREQARFYTwT4vps+fbrl5eXV7Pq3ni6tywQIsMZYsGCBtWnTxnJzc+MWsBAiI+3KE+q+8r9zEX4OCmTsAqkiAiIgAiIgAiIgAg2BAJvXRXNgBV1YQaEruP4JFbX8GqhBJ3EPDSWMlrydTnnRKvizBKyGMJXVBhEQAREQgUQRwPnDjrbshquyYQiwgGJH4vz8/LUaEM2B9fPPP6+xC2G4XXjCObHC9VQC1oYZf11VBERABERABP6fvfMAj6Jq2/CzJb2QkIReAoTeQgdBUBAFCyigWNFPAZWiWLArdqyoWEBBRQVUigWMiqhI7yBFinTpPb3tbvL/78GJS9hka5Itz7muXLvZzJxyn8nuzj3veYcELiSgCSxNTBkMhhLvSmhrOaEmqgJOYFlHaFFg8V+LBEiABEiABEigvAg4IrDy8/PPC6O3vgKp9VN7TfsyJ49St3VEFgVWec0q2yEBEiABEiABErBHYOXKlTYjsDSRZR19XlxuFc9/ZetintdFYNlK4K59YbMXgWUrqbtEZNWtW5dLCO0dafw7CZAACZAACZCARwg4I7BKWkaoSSvty5v2u3X+K3neqlUrj/SZlZAACZAACZAACZCAuwQ0gSXfX0RQlZa03Xqpoa18V9ZRWOd9L/KmHFieFFjackIKLHcPQ+5PAiRAAiRAAiTgKAFHBJYs/7R1NVL7smb9RU17Xrx9aad169aOdovbkQAJkAAJkAAJkECZEhCBZSuBuyMiq7jEsvWdyC8isGxFXslrFFhlemyychIgARIgARIgARsEHBVY1nfiKb6EsHjklS2JRYHFw48ESIAESIAESMCbCHhaYFlf0CsSXN4egWW9dFAGUJKwKv46BZY3HcrsCwmQAAmQAAkEBgF7AmvdunXQcmBZLyHUhJZGyV4idwqswDieOEoSIAESIAES8BUCK1asOG/ZoBZtXjzq3PoiXvELetr3H3ndIwJLKpIOFC/yRcpsNjvEVvtyl5KSgoSEhKJ9bC0hdEZgibTSJBcFlkNTwY1IgARIgARIgAQ8RKAkeaV9N5HH4gKruMSy9WXNWmpZ18UlhB6aOFZDAiRAAiRAAiTgNoHiAss6z5X1MkItR5Z1BLp19Ln1Rb0L8mM5G4E1dOhQ1KtXD7m5uQgLC1OPRqNRRUZNnjwZR48etTtwVwVWSYnctegrTWBp8kpeZw4su9PBDUiABEiABEiABDxAwBmBVVxcFb/roHa3Qe0KpLXE0tqhwPLApLEKEiABEiABEiABjxAQgVVSDqziAsuW3LL+7mMrsbtLObDuuecexMfH46233sKYMWPw3nvv4eKLL0bHjh3x0Ucf4dChQ3YH747AKk1iWYsrTWpRYNmdDm5AAiRAAiRAAiTgAQKOCKy1a9fCZDKpL3i2rjyWdNtoW92jwPLApLEKEiABEiABEiABjxDQBJb1XQhLWi5YXGBJB7SLdtZ3IHQ7AksEVo0aNbBx40a0adMGmzdvVr+L1PI2gSVCKzExUUWIsZAACZAACZAACZBAWRJwVWBZR2NRYJXlDJVe9/79+7Flyxb06dMHQUFBFdcRtkwCJEACJEACbhA4efKk+jyTR/k8S0pKQrNmzcrciyxfvrwoB5aknbKWVMUv2pWrwKpSpQpmzJiBm2++GV9//bUSWc2bN6fAcuMg464kQAIkQAIkQAK+TcBRgVVSEvfiVxmFhhZOrz1qhKSt5ORk3wZmo/dy8fHw4cMq0b2UmjVrIjQ0tEzHmZWVhZCQEEyfPh3btm3DU089hY8//hgNGjRAv379PN625Iw9e/YspF0Zb3h4OGJiYsp0nDk5OUhLS0N2drY6oYiIiEDlypVt5rX1+IBZIQmQAAkEIIEzZ86o93p5j69atWpRdJGgkM+BI0eOqMdq1aqpbTxRpL0FCxZgw4YNF1QnDufGG29ErVq1PNGUzTqsBZaWO720CCxNamk51sssAksmYM6cORg0aBC+++47tGzZEo0aNaLAKrNDgRWTAAmQAAmQAAl4O4GyFFjWMktrxx8FloiWN998E+np6Wq677jjDnXVuCzL66+/DvliL1w1gfXiiy8iOjpaySxPFjlhke/Qp06dUpJOBJbIs6ioKFx11VXqgrCny19//YUffvgBmZmZyMvLUydRwcHB6kZKAwcOVCspWEiABHyDwO+//6462rNnT492WCJ1/vjjD0gkavXq1XHppZeqCwgsrhEQkST5weVR3m/lvVaCfqTI+74EAclKNnleu3ZtjBo1yrWGrPY6ceKEalPe60sq8nkzbNgw1KlTx+32bFVQXGAVj7IqLrNsRWVJvR5fQigCa968eeqq1I8//oimTZuqsDRvWkKo5cNydgmhfHk5ffo0MjIy1BcZFhIgARIgARIgARIoTkBC8kV6yJdBrbgjsKyXEWpf3uTROvJKe15WAkui6+ULtaPff4RBr1693D6RElm1b98+dZMgeZw9e3ZRBFbXrl3Rt29f7N27V7GWbTxdHnnkESWr5Kp0cYElOV5XrlyJsWPHun2FXOqeNWuW+s7cqVMndQIhJzYScSZXy1etWoVLLrkEl19+uceG+Msvv6iT0s6dO6Nt27bqhFTE2T///IPVq1dj9+7duOGGGzwmCSXCS8YiY5IItvbt2xeNReTkkiVLVCSYXPxu0qSJOr7lO7vcnVPmWE7kpK/F73i+fft2dWy2a9dO8ZMiJ9pSF3PBeexwYUVeTkD+R+R8W/5vrrnmGlx00UUe6fGmTZswd+5c9R4o8kpEiLw3iFTv1q2bR9oorRJpb8qUKeozVeRKWRZ5jzpw4IA63xfRIzelkwhYee+RqFRPFXnfFU+iFbk4cdNNN6l2Jb3R+++/ryJitXLXXXehcePGLjcvFyc++OCD826oJ++jl112mXqv1d5n5X1f3kPlxnxlURwRWCUtJbS+mY3HBZZm7CQJqUyANCbhbxUlsGzdfdBVgWWxWNSHuqNf3spi4lknCZAACZAACZCA9xMQ+WAdil8WAksoFF9GWFYCS0RO8fLaa6+VOBELFy5UEsTdKKVvv/1WSSJ7RU6sRo4cqaSPJ0tpAstaaonkcrUcO3YMEyZMwLXXXlviSaecxMk2Q4YM8YhQEmH2+eef48EHH1QnhlK05ataflhJuCurKR566CG1xMXdIm3KGOR7uJywSb1akRtAyYlj79691cnq1KlTVQ5dyav7xhtv4H//+x8mTZqE2267TXGyLlLP448/Dpkr2UZk5ssvv6xuKFXS0hvpg5yr2CoiX4vf4dPdsXN/EigrAvKe//fff0NuTiYRnCJzZWn1888/73aTIlReffXVC96bRGDJ/+n9999f5lGaMrZPPvlEyaRx48a5PSZbFcj7gbzXfP/998jNzVUOQwSPsNVurCKyTnIgeiJ/9vr169UFC+3z+uqrr4Z8ZopoiouLUxFuIg3l7/IZLxFYItFcLZ999hkk2ta6yGdJixYt1EsyfvE1EqElN92T91IRd1pElKvtFt/P6wWWfBCJvZOwZ38SWPLhykICJEACJEACJEACpRGQL79yQqEVRwTWmjVrir4sF7+ldPGrj1q95SmwrrvuOnUSIdEyIpbKWmBpEQXaxUgZs8gJWdYmy+wkIl4rwqt///7o0qWLRw/M8hBYcqIiY5WTwdIEnFyx//PPP5V0cif3l1zZf/vtt1WetCuvvLKIlyyNlOgvkUhSRGi98847aNiw4QXSyB3I06ZNU5EG1gLr9ttvV7nF5ORQVnIIDxFQEpUgcyDLa0T0yUm5RBJoRU74RIo99thjanupUyL15IKzyK6SitQlUQ6yv3URefXAAw8oecZCAt5OQN4bRXwsWrRIRUddf/31KlpTohjl/9bdIhJbIjUffvhhREZGFlUnUkf+D+UzrrhQdrfN4vuLR9izZ49qvyyWLUqklSzZE1Emn9MXX3yxupAgIklklrznfvPNN6pbIvJvueUWlZfKnSJjkvc5iR6V5dryfiPzphURWBKpKu+TIs4k2tjVkpqaCvEy8rmtFWEpc6oJfmlLPockalU+V8XfSC7EAQMGqJveeap4ncCSgcrVEe0qjiS7lEELGIlcEstY3PzZgqF9wUtJSVETqhXrL37ac+tHeW7rd09HYFFgeeoQZj0kQAIkQAIk4L8E3BVYxcPovUFgde/eXQkkOemX5V5lLbDkS/XMmTPVnZKkyBdqibLS5IJE6chJh/Y3EWytWrXy6EFVHgJLIoxEGtlb7iY5skS63HvvvW4l2pUr7BKpJCytc1wVF1gCUpYPyQmynOx4qhQXWDK/zz77rBqbFDlhlFxn0kdZpiTLV7VoRhFdEk1gXZ577jm1XFVOCKWfsqRT6rI+4bbV999++02dnGvnD/I/K9KrrPOqeYoj6wlsAnJ+LdGpksNOO9+VyEb5H/FU+fXXX1UbTz755HlRifI/I1FRIpw92Z6tfss4jx49qqS9p8WySB0R5yK8pWj5prZu3Qq5oFS/fn0ltOTiwbJly9Q2IrndeQ+WG3SIyJHPLhGB8pkq/kTa04oslZYLCDJucSmyxFuWSLsSGSrJ4uWCk9QnS/IrVaqkoqsk75b1HXXlM13GqR1LEp0lUVqeLJrAkjqL34WwtGTu1hf0ZF+PLSGUg0q+WJRUBJr1lbKStqPA8uRhwrpIgARIgARIgAQqgoA/CiyJbpELlvJ9TgRDWQssmTeRNnKlX75HikCTpRZakaUycsFUilw0lS/9ni4isOTLspyoSR8kD4qcEFi/Jssk3VlCKNFDL730kvpCXxLTESNGqBMZ2fbOO+9UeUtcLTt27FAnn6+88orKs6JFNMm45Pu8dlVexi4nj3LyKtt6qhQXWHJxWCIEJCpMitzeXSKtJP2ISMkvv/xSRZdIsSWw5HiUyAE5KZMTNYkikygskZ9yV/QrrrjCZtflnEP6IlEQUoSp3BjAlZNET7FhPSTgKAGRSyKXrYM8hg8fXpQHztF6SttOy38l0aESkaQVuYjx7rvvKqki0UJlWeR/WS5WiGd44oknPNrUhx9+qKK7tCLJ7yXXoLwXyfuhFHm/lcir8ePHF20nQTYiyl0psszTWlZJHfIeJVF08hkjn7Eil7744gv1/itFPhskGtWdCzSyRFLuQHjPPfeo98riRcSV9E1yDopUk2WLnlg6bt2O1wksVybQ1j4UWJ4iyXpIgARIgARIgAQqioA/CiwRRLLETb5ky3KH8hBYkmvl008/VVeq5WRp8ODBRVO6du1aldRdiiQ3lygc68T2rsy9JP+WK9SxsbFqd1u5v4rX667Akv3lxEzEkURT2CqSbFfEytNPPw1J6Ct3+Ha1yJV/iTp44YUX1NV2ORGWInMqokhb+iqyUASX5JOS6CxPleICS9qQE2TJqSNFTu4kP5csDZQk/fK6RELIOYKs9pD9bZWdO3eqpUCSD0ty5Qgrka4SoWW9qsN6X4lGk2gtYS8nbNq8e2qsrIcEPE1Alp8tXrxYySstWkaiDUXWajcx8FSb8r8p/x8SISRRorJ0TiImJRpJ/t9Gjx6thEtZFrmIIQJLBJpEjXqyyPvt0qVLiyRgjx491Djfe+89tWRZirwvyHvvxIkTi5oWziILXSny3qQt55PPK1keLXxluaDIOokCk7FK9JX16jV5b5L3NleK9V0PJRm8LIMsaRm6XBSS5adyIcDThQILsLlkUEBrywnlkUsIPX3osT4SIAES8C4CpkLg6o1m7Mk0uX+TDbnDrE7n2QHKTWs9VWVZ9M+zo/VIbQa9HnfWCcGjdXV20S1NLcTdf+Ujz3zuSqUzRb48tooNxqwWBhg9NUf/dqCsBZaW3LU8c2CV9xLCXbt2FUkNwSrLHeSkQfKgyPc765MM+bsIF+mjq0VOFrTlaXIFXISZI1f83RVYcrVf7mho765hItdE5hRf+ufseLWliHJHL+v8JraWEEoOHBGFIpjcLdr3cmEs0Q2Sa0q7o6BEObz++utKHsq8ykmWyKtnnnlGcRGBJyft8mMrObWc1IuskpNDqUMi2jSBJbzkroclFYlMEDEry69YSMCbCcj/kMgjES/WS18l73Rpx7g7Y5I8UCJv5H9W3nflM0dyIYoAEZEj0a++GrUoEU4ibDRRJIJOculJROfvv/+u7pQqQkkEmlxMkSKyUPIQ2luiXBJz64sicudcee8RGVi8yGeZLGXUIsHk76VdNCqpPbngJBGuIsi0ItJMLgZp8yYRdfJ+WbzIcmqJSvVUocCiwPLUscR6SIAESMCnCXx40IzXToQDwaHuj+PsCSD23B25PFayM4BwD12h9GT/8nMBYxCgN3hmqB6uLyQ3E0taWxAfXLpZarnKjOzwGECnd20c+bl4vGoOhtbyEId/e+GPAkvkkSzjkBwesryrrCOw5Eq/fPEWOaEVWcony/WkD9YJuOWLuCwva9q0qWvHAaCuistdqDZs2KBO0iQ/lOThslfcFVg//fSTalMkUWknRZJPVnK1yHbWuUvs9a/437Xk7BJpdcMNNxT9ubjAkuTGksRdTuJKWobnTNsS0SBRXzIGmVMRkRLdJdEHIslkOY/Mr9zRXGSULGPR7oImywTlf0pyXNlKKixRFBJl0K9fP9UliRqRCAaJZLjvvvuKRJmt/mpiTZNpzoyJ25JAeRHQoiVFrGgBGiI/JE+ROxGZjvRf3htFfMv/oYgrkTry/izyR8Sv/N+V1f+PvM/LmOV9Qi4qeLrI+6Es35Mf4SpSTuS5jFFuFiIRqvL+LEU+XwYNGuRW1Jm1wJL8WnK3XulD8SJze+utt6rl3lpxRWCJAJNlgQcPHlSiTN4ThaNILG1ZqMg5+UwvXuRCjicjsUS+aseJV+TA8tTBFIhLCAsKC5BpyYS50AyjzohIQyT0rn4R99REsB4SIAES8BEC7+zPx8QMD90xypOCSONHgeXakZSfi5Ut8lAlpHSB1WCFBYg6t9zL1XJf1Cncnxjs6u429/NHgVV8oGUtsKQ9OXH5448/1BdtuZuSiCutyBd8WfImkkOunEsUj7u3OBexIjmXJA+To8VdgSXjknwykt9Elq9oOai09mX5pPRH8juJRHTndupanXIyo+WYkjuWFRdiwllO3CTPmCwTspUzxVE+3I4ESMB9AiKPJLJQk1dyMUEER1lFXjnSY8lfJ0t6Jcm43HChLCKxJBJXIqBEaNuKvnSkn45sI7mw5D3v+PHj6nNGcxIi7CT3odzh1hMyR9oQYSSRbXJ3QbnDoZbrqng/RU7KjSZkrkWeuRNhLBdj5HNGjp+777676LiR3+XiiCbptD7IBRyJXnXnYknx8VBg+UkEVqo5FT+eSsFJ00lYCi0w6AyoGlwVfeOuRCVjJUf+37gNCZAACQQ0AQosF6ffwxFTKIP6KLD0591tRzs5kMfyXkIoibxFpFiX0u4IJblTRHrIcgx3irQpdYnUkSvJknBcyx9yzTXXqBMAOdkQJqXdTMiZPkibclKxfv16h3ZzV2BJIyLhJk+erASc5GERqSTLdCThupzwyMnHjTfeqK6ae6rI0rmvvvpKRULJEj1JYi5sRZaJNJSTKkn4a5282VNtsx4SIAHnCMgd5Kxz0Xk6Ybtzvflv6xMnTqiE4yI7Ssqr5Grdsp8s5xPZXjxi1J06S9pX3vPk80aivqRdye8lF0rk80cePVXk81sulkgOPhlbSQJLbt4hIkk+F9yVg9KmyDC5+6pE+kpSeKlbIsAkn5p1H8oqiTsFlh8IrFOmU5h1/GukmdMu+H8QeTW46o2IC/rvjg+e+qdxtp59eXr8nmFE/xgT4o2SzAX49mwQrokxeTxniLN94/YkQAIkQIHl4jFQBsLJ00sSKbC8R2Dt3btX3a3N+o5XpR158oVbrlZ7Mim2XLGWJYWyVEyK5H0pq6UzInLmzp2rIpBKK3LC9uijj3pEnsm4JEeIRByI0BKRJlf+ZcmciLpatWq5+M9e8m5yAiVtSn4tEYRytV2ElSTxlTY9OX8e7zwrJIEAIiDvf9oNF2TZnuRP8pYi71WejNTxlnGVdT9kiaLkM5PlztrnmrQpwkyii2WJtyffg2We5O6s1snhi49R7jyoyS1Pj58Cy8cFliwbnHx4kk15pR0sIq+G1RwO+ylsPX14nV/fnDNBmJMajJ5RJgxPOLdG96pdEZjTIBth+nNCi4UESIAEKopAaQIrSCc52c9fglYgV75KeutycgmhQQdIVQWlvRXaWUIovQv6N31TfoEdik72r9TaKLCK8HAJYUX993p/uzNmzFARSdqyHeseyxXxFi1aqLt/uXt13PtJsIckQAIkQAL+QGDOnDlqyaCWX1K+J8tFJ4n8lRxf7i7FL4kRBZaPC6x/cv/BjGPT7f4P3FZ9CGqFeP6Km92GrTYQgSXnVIsygvBB3Wx1RyhNYG3J0WNBWhDSLDrUDCrAiCp5yCrQ4eNTIegQYcbCdCM6R1hQP8SCWWeDUSuoAMP+lWDSRF4BMOdsEDpGWPDVmWBEGgoxpmoeTpt1mHYqGCfNOsgJ6C1xJjQNtWBeahBahFkw+2yQEnu3VM7Dd6nBOGrS4Z6EfNQKtnf258zIuS0JkIAvEChJYIlcmtQ6Ep1jjecNY22qGXdtzLQ9NCcEUUKwHp+0icKuLDMe3pql3idtlhIEVoNwA26qHYKqITp0jwtSUu27o/mQGw2+vy8HZ+X2isWLA/2rHqJH4ygDlpwyldwnqbeCBFZskA5ZlkLYlXXMgaWkiPzIl0v5qcglhL7wXlAWfZTkuhKdZJ17S9qR+ZAlixIFUVZf9stiPKyTBEiABEggsAnIBRnJ9SWJ+GXpoCxXl8grWfZf/KKvJ0mVi8Bq3rx5uYfXaKHpkqjSOreCdci69tz6UZ7b+l27YiaP2jbacwnJduZLh0ywJKvzRNmauRXzT82zW1X/hGvRLKKZ3e3KcgMRWHodcMKsQyUDcFPl/CKBddaiQ5oFkHs3fXE6GD2izGgSakHvv6Nwf9VctA+3YOiBcFxTyYRb4vLxyKEwTKidg6SQc6d6IrsG7o5QsuvWOBM+OBGMW+Py0SKsAH/n6hGuL8S6LAOmnArBr40z8fDBMOQWQEVdxG7+AAAgAElEQVSCTT0VgpMmHe6rkocVWQaE6YFRVfLKEgXrJgES8EICpUVg3Z0YismtI8/r9W3rMzD9UAnvFQ4IIqmsklGH/tWD8VyTCCSG6zFycyY+2JfrlMBqFmnAc03DESRvsFYl01yIMVuycMqW4XGgfy83DcfjjcKRuPAMDmSXIvUdEFgi6aYkR2Jjmhmv7c5BjqWUrwUO1CfDPHh5ZSw/Y8KN6zJKP5oosCiwvPD9hl0iARIgARIgARJwnkC5CKykpKQKE1gpKSlISEgoIuNvAmtn9k58c2Ku3ZkfVOV6NAxvaHe7stxAE1gXR5kxcHck5jXMxC17w9USwo3ZBrx7Ihj5BTqcsuhwd0I+ukeaMGBPJBY3zlDRWj12RuG7pCxUCyrA0P3hSjK1CbcUCaw794XjywZZkBU0bx0PQcswCzqEW/DM0VAcytMjs0CHVIsOS5tk4JnDYXioWi4SjIX4/FQwaoUUoGeUGSszjViWacDYahRYZXkssG4S8EYCpQmsqiF6HLi8MkL+XaInkT8XLUnD5nSz7aE4IIgkgujbjpWg1xVi4UkTOsQYMezPDBzPK+Ejs4QIrEijDr9eVAlJEf927t8efXM0H8P/dD1CbHyzcDzWMBz1Fp7BfjcEVrhBhwVdotEtLkgtk5ywJ0dFmpVYHBRYZ6+Mw/IzZly96sL8j+fVTYFFgeWNbzjsEwmQAAmQAAmQgNMEKLB8fAlhujkdHx6eDHNhCSdRkhNFF4S7a96DKGOU0weIJ3fQBNaAWBOmngxGjeBCFSk1u0E2HjwYikeq5SHOWIgF6UbkF+rQI9KEgf8KLOmHCKx5SZmoElRoU2AN2x+GmfWzVZeVwAq34J88Pfbk6fFotTzsyNVj9D/hSmCNOxyKh/9t74tTwagTUqCivkRgLc00qL6wkAAJBBYBe0ncB9YIxhdto9QSvYe2ZmHqgVwlZGwWOwJLIpLGNQ5HdkEhJLprX7YFlyxLQ6qt5X5aAyUIrCijDut6xOCH4/moG25A9RAd5h3LR+tKRtxcUnRSKf37qUsl9KkSdN6wsi2F6FKSsCtFOFUL0WN6uyh0ijUi1KCDRIVFGHV4e08OntmejVxbSb9Kqa9LrBEftYnC6M2Z+LZjtBJYv53Mxw01Q9BvVTpO2oo284DAqhOmVxF4MuciBksqzIEVWO8ZHC0JkAAJkAAJkED5EqDA8nGBJYfLuvS1+PXMryi0cSol+Z2uiOuDNlGeu12yq4eotcBKt+iUTEq1AF/Vz8YTh0NxQ2w+cgt1ePloKO6Iz/eIwDpr1mFZhlFFa712LBSbcwwUWK5OIPcjAT8nUJrAkijQV5pH4JGkMEXhh2P5uG5NuktJ3CUi6ZuO0Vh8Ol8tHdybZUGbP84i51xAacnFjsCaezQPieFG1AjV4bujeegYG+SSwBJRd1HlIBUx1THGiKkH8nAirwAT9mTjdL4NZVeKcBpYIwSft43ELesz8GmbKCWcZLw31gpGp8VpStxdUEqpT0TSxktjEWHQqSXpItaijTosPW3GFSvSShRi7tyF0KgDlnSLQZfKRvUpK6JMZKGtQoHl528SHB4JkAAJkAAJkECFEqDA8gOBJXciXJm2AstTl8OC/04GDDoDusVcjM7RnaHXnb+0pCKOun/y9WopYO3gAnUSsCrTqE7+Loo0q2Trsoww2lCIOiGFkPQo8cZCFQ11WdS56LJfM4zoEWlBqL4Qq7OMaBRiQazx3MmU1LMmy6jqkiLRVjEGqaMAq7KMyPn/JO+SD2tzjh69o83Ykm1AkzALQnTAvjw9IvSFKrLrlFmHk2a9SvTOQgIkEFgEShNYksB92cUxkITuUkwFwGUr0rDktMk2pFIinN5rFYlL44MgMuZIbgGuWZ2OvzMdeM8pJ4GlDcgTSwhF/jSIMGB3lgWn+p5b8nf92nTUCNVjT1YJY7azhDAx3ID5naPRIkqyJgIzDuVh2J+ZJefVcjMCq3aYHldUCS6a56O5BfjpRL7NO0ZSYAXWewZHSwIkQAIkQAIkUL4EKLD8QGBph8xZ0xlsydyCDEsmogxRaBXVEjHG2PI9otgaCZAACfgogZIEljgriZR6uvG56CutPLEtC+N35TglsIJ1wMKulfDloTyMrBeGnitScbKknFfFay5FYK3tEYO/MsyQXF2Vg/VYccaEUL0Ot64vIcG5Azm6BtcMwV11Q5VwSittaaODOav29q6MFadNuHWD/aTrMAYB+nOCylYRifVtxygcyilQSdwlJ1mJxU2B5czhTIHlDC1uSwIkQAIkQAIkQALOEaDA8iOB5dzUc2sSIAESIAFrAiUJLFmqdnfdUDSLNp4HbFu6GZP2l3DHwBIEUZhBh8cbhuH3kyb8lWGxnbOppGkpQWBJVNiwuqFobtU/WVI++1Aelp5xPcm8w0eHgwJLoq7k7oNnS5Nh0qiD9Unur7yCQthKe3Ve3ymwyjWJe0ZGBuSHhQRIgARIgARIgARKIxAVFQX5caZQYFFgOXO8cFsSIAES8FsC9pK4OzVwByKcnKpPNi5BYDldj+zgyf45KJwc7mcZ1OdODiyH+w2AEViAyWRSPywkQAIkQAIkQAIkUBqBoKAgyI8zhQKLAsuZ44XbkgAJkIDfEqDAcnFqy0A42VtC6FRPGYFVrhFYFFhOHZ3cmARIgARIgAQClgAFltXUFxaey4eRkpKChISEor9or8sL2nPrR3lu6/eCggJVhzxq22jPExMTYTSev7SktKPQYrHgwIEDAXugcuAkQAIk4I0EKLBcnBUKrCJwjMBiBJaL/0XcjQRIgARIgAQCjoDfCaywsDDExMQgNTUVOTklJMotYZopsALu+OeASYAESMAtApMPmvH6qUjA+N8d51yu0JNL9LROcAmhS9MRlJeFpa3MSJAM+qWUFqstyAmLAXSlb1diFaZ8PJKQhbtrl5x83pUBGAwG1K1bt2hX6wtxxevT/rZmzRq1jE+n06kfvV6vfqx/l33lNdlHe11ek+dStLqSk5Od6jYjsJzCxY1JgARIgARIIGAJ+J3A6t69O3r16oWlS5fi119/dWpiKbCcwsWNSYAESCDgCWRYgJu3WrA93QJJgu5WsZgBg+ORuQ61JZHAer1Dm9rdyJP9k4hnV6WPrY56sD69Toebqhsxrr4ekuy+tLLgTCEe2GFGnuVcxLUzRQcdmkYbMLOFAVGe9VegwHJmJrgtCZAACZAACZCArxDwO4El8kp+JFHXjz/+6NQ8UGA5hYsbkwAJkAAJkAAJeCEBCiwvnBR2iQRIgARIgARIwG0CfiOwunbtioiICEhuKfk5dOgQdu/eDbPZjFWrViE7O9suLAosu4i4AQmQAAmQAAmQgJcToMDy8gli90iABEiABEiABFwi4DcC66WXXirKwWBNQpKfT5061aEE6BRYLh1D3IkESIAESIAESMCLCFBgedFksCskQAIkQAIkQAIeI+A3AqtHjx4IDw9HnTp1VOJSicDat2+fisBasWIFsrKy7EKjwLKLiBuQAAmQAAmQAAl4OQEKLC+fIHaPBEiABEiABEjAJQJ+I7C00TMHlkvHAXciARIgARIgARLwEwIUWH4ykRwGCZAACZAACZDAeQT8TmBJLqyrrroKCxcuxKJFi5yabkZgOYWLG5MACZAACZAACXghAQosL5wUdokESIAESIAESMBtAn4nsNwhQoHlDj3uSwIkQAIkQAIk4A0EKLC8YRbYBxIgARIgARIgAU8ToMCyIkqB5enDi/WRAAmQAAmQAAmUNwEKrPImzvZIgARIgARIgATKgwAFFgVWeRxnbIMESIAESIAESKCcCFBglRNoNkMCJEACJEACJFCuBCiwKLDK9YBjYyRAAiRAAiRAAmVLgAKrbPmydhIgARIgARIggYohQIFFgVUxRx5bJQESIAESIAESKBMCFFhlgpWVkgAJkAAJkAAJVDABCiwKrAo+BNk8CZAACZAACZCAJwlQYHmSJusiARIgARIgARLwFgIUWD4isCTBfFZWlrccN+wHCZAACZAACZCAlxLQ6XSIiIgo6p12kxpb3dX+tmbNGphMJsi+8qPX69WP9e+yv7wm+2ivy2vyXIpWV3JyslNkpF35YSEBEiABEiABEiCB0ghQYPmIwOJhTAIkQAIkQAIkQAKuEKDAcoUa9yEBEiABEiABEvA2AhRYFFjedkyyPyRAAiRAAiRAAh4kQIHlQZisigRIgARIgARIoMIIUGBRYFXYwceGSYAESIAESIAEyp4ABVbZM2YLJEACJEACJEACZU/AawVWy5YtC8t++Oe3oH3Bmzt3LuLj44v+aP3FT3tu/SjPbf1eUFCg6pBHbRvteWJiIoxGY3kPke2RAAmQAAmQAAkEGAEKrACbcA6XBEiABEiABPyUgNcKrKSkpAoTWCkpKUhISKDA8tODnsMiARIgARIggUAiQIEVSLPNsZIACZAACZCA/xKgwLKaW+0LnjcKLOlbXl6e/x6JHBkJkAAJkAAJkIBHCMhdAUNCQmxeiCveAO9C6BHkrIQESIAESIAESKAcCFBg+ZDAysjIKIdDgk2QAAmQAAmQAAn4MgG9Xo/IyEgKLF+eRPadBEiABEiABEjgAgIUWD4ksHJycngIkwAJkAAJkAAJkECpBCQCKywsjAKLxwkJkAAJkAAJkIBfEaDAosDyqwOagyEBEiABEiCBQCdAgRXoRwDHTwIkQAIkQAL+SYACiwLLP49sjooESIAESIAEApQABVaATjyHTQIkQAIkQAJ+ToACiwLLzw9xDo8ESIAESIAEAosABVZgzTdHSwIkQAIkQAKBQoACiwIrUI51jpMESIAESIAEAoIABVZATDMHSQIkQAIkQAIBR8CvBJbBYIDFYimaRLkLT0FBgcOTqt1KOiUlBQkJCUX7aa/LC9pz60d5but3rW151LbRnicmJsJoNDrVNyZxdxgXNyQBEiABjxPIthTiywNZyDVbgEKPV+93Fep0wCXVItAs+r/PusM5Fsw/lAVLAQGWyYTrgDaVw9A1IYRJ3MsEMCslARIgARIgARKoSAJ+I7CaNm2KwYMHY/r06di9ezdkYGPHjsWaNWvw66+/OsSYAsshTNyIBEiABAKSwAMbzuCjQxYgLByALiAZODXoAgv0manYcVVN1AzV40ReAZLm/QNLZCxgDHKqKm7sIIHCAugy07C5Tw20iI8o2sn6QlzxmrS/yfclk8kEid6SH7kIKD/Wv8u+8prso70ur8lzKVpdycnJDnb43GbSrvywkAAJkAAJkAAJkEBpBPxCYLVr1w4dOnTAzz//jJ49e+LMmTPqyuOJEyfQsWNHLFmyBMuXL7d7JFBg2UXEDUiABEggYAlUnn8ceaFRATt+lwZuNmNQbD4+6xyPN7anYdx+UF65BNKJnSwWNNZlYsd1DSiwnMDGTUmABEiABEiABLyfgF8IrMceewzR0dFKYF1++eXq6qCUzZs3o1WrVsjNzcXzzz9vdzYosOwi4gYkQAIkELAEIr4/DoRTYDl7AFwZko7Z3avhpa1n8PLRUGd35/YuEKiRcwqHb2xCgeUCO+5CAiRAAiRAAiTgvQT8RmD98ccfqFOnDvbt24fatWvj4MGDiI+Px+nTpyERWpMmTbI7CxRYdhFxAxIgARIIWAIUWK5NPQWWa9zc2YsCyx163JcESIAESIAESMBbCfiNwHrzzTfRpk0blfNKHjdu3Ih69erhwIEDuOmmmzBjxgy7c0CBZRcRNyABEiCBgCVAgeXa1FNgucbNnb0osNyhx31JgARIgARIgAS8lYDfCKxNmzahWrVqOHz4MKpWraryX8XExCA1NRWNGzfGxIkT7c4BBZZdRNyABEiABAKWAAWWa1NPgeUaN3f2osByhx73JQESIAESIAES8FYCfiOwGIHlrYcY+0UCJEAC/kGAAsu1eaTAco2bO3tRYLlDj/uSAAmQAAmQAAl4KwG/EViLFy9Wua/2799/QQ6stm3bMgeWtx6B7BcJkAAJ+AgBewIr3KBD7TA9dmZaikbUMMKAfdkWmAsvHGTNUD0yLYVIM9n447+byy1J6kUYsCfrvzp9BFdRN50RWHHBOoTodTiSW6D2T4owYH8p/LIshUgthV9JrGKCdIgP1mO3Da5VQvQI1gOHcs71wRcLBZYvzhr7TAIkQAIkQAIkYI+A3wgsRmDZm2r+nQRIgARIwB0C9gRW82gDnmwYjpvXZxQ1c2utEMw9mo8cy4WS6uGkMKxPNWHRKXOJ3QrRAxNaRGDk5ix3uu72vtVD9XilWQRu3/Df2Byt1BmBNbB6MGqHG/D2nhxV/eTWkXh8WxbO2pBUDzYIw6Z0M347aXK0K0XbXZYQhME1QzHszwvHc3vtUKjx7sp2ul5P7hAXrMeA6sGYciDX6WopsJxGxh1IgARIgARIgAR8gIBfCKzOnTujSpUq0Ov1KCgoKHrU6XSQvFZpaWmQCC17hTmw7BHi30mABEggcAm4IrB6JQRh2Wkz2sYYsTfLgiuqBCHDDMw/locxDcKwIdWMVWfN6Fs1GN8dzYN4Lom6uiQhCI3/jd66plowRm3OQsdYI9pWMkKChlKO5+NMfsG512KMMBUAc47kYUD1EMw8lAe9DhhQIxjTD+bhttqh2JVpRutKRiw8YUK9CL2KbPrm6Lk6eiUEIylCj5N5hareuuF6FdXUIy4IwXod5h7Jw8AawXimcTjG78rBFwdzVTsSqZRfUIg5R/JxKr/kaCVPCKwmUUYcybWgZ3ywis5aeDIfY+qH4c80M34/ZUKzKAO6xwUhxwL8cDwPp/MLcX2NECSE6JFtKcQ3R/KQbi5E73/HKnKobrjhPIHVr1qwElcSNXcqv1AJLJm/JpFGHM21YP7xfMVZXmsaacTJ/AJ8dzQft9UOwdQDuSpqS/qw+LRJ8ZH5bh9jxMKTJtQP16N+hAHfHj3Hqmd8EBpGGnEirwA/HMtHkygDTAWFao6MOp06FoYlhuLSuCBMO5injpdBNUIg/c4rKMSMg3kqeq+kQoEVuO9THDkJkAAJkAAJ+DMBvxBYnpogCixPkWQ9JEACJOB/BFwRWB+1jsTYbVl4sUk4RMJIxM9TjcLx2LZs3FEnBBtSTbimWgi2ZJjxyYE8Ba1ysA6ftonCvZsy0TLaABErT23Pxsz2Ubh9fQYuiQ9Cp8pBeHFnNr7pGI07NmbgVF6Bkjf7Lq+MNovOIkivw+9dK6H572dxrE8cJu7NwR+nTPilSzT+tzFTLVsUabUm1YznmkTgtvXpGJ4Yik1pFiSG6zE0MRR3bMjAXXVCMftIPg7mWPBFuyj0WJamlklKlNLLf2fDkUV2nhBYzzcJR+VgveLwSvMIjNyUiSG1Q/Bnmgl/nDJjZfcYDFybjk4xRjyQFIZuS9NQN0yPNHMh7qwTihhheiAXM9pH49rVaar/jSLPzYeU5lEGPNYwHGO2ZuLZxuE4nHtOej3fNBxD/8zA+GaR2JlhVgLwtRbnItFE3ong29ErFtV+PoNoow5vtYzA/VuysOeyWLy2Kwc/HM/Hqu4ximXVED0qBekx81AuXmoWjvs3Z+GlZhFYdtqkpKHM810bM/Fq8wg1X1vTLYr/y7uycVFlI66seu44cKRQYDlCiduQAAmQAAmQAAn4GgEKLKsZo8DytcOX/SUBEiCB8iPgrsAa+1cWJLWTCJIP9udiWN1QdI8zYldWAe7bkomCfwNqqoXocWedELy8KwfaEsIX/87B8LqheG7nOYHxSZtIPLk9G/ckhmLcjv+kxgEbAmtHr8roviwVYQbgg1aRuGpVuoo0uqlmiMrX9USjMGxJt6iIqtd2ZaNNJSMWnMjH3uwCVf+OTIuKJtIEVqRRhxebRKj61qWa8dnBXJQSgAVnBJZIHIkOm/DvEkIRgI9uy4IIrIf/ykJeATAiMVRFNUlk2sY0E/7JKcS7LSPUuCQP2d7esWj461mMqBeGmmF61AvXq4isOYfz0CM+SNVTfAmhiCKdDiqSSltCeMZUAB2AD/fnolvlICX1Vp8xKWknr0mRXFolCayaC84gyqjDE43CIXMv0XMioTakmfBQg3DsyrKgYaQBz+/IRrsYI9ammrH0tAlvNI9QUWXrU81FAkvk2MvNIhCqB5acNqsouJLjrwAKrPJ7X2BLJEACJEACJEAC5UeAAosCq/yONrZEAiRAAj5MwJ7AkmVsLzQNxw1rM1BYCCUYPrSKwNIEjCawJIJoS5oZQ+qE4pkd2UWJ2mXZ29gGYeq1+v+/tG9kPRFXOXi8YRge+SsLlYLOyQyJxpFlfQ9tzYRKEVUI7O1dGV2WpqJ6iB5fto9C49/OwlpgvdcyEtes/k9gyRK8bnFBGP93tuqvyJm764bi5xP52GclsCSJ/KwO0eixLFXJKhE7IoskUmzawVz8eDy/xJl1RmA1iTRgVP1z4ww3AB+3icIt6zMwvmm4ivg6YypUkVKf/JOrltTt+/9lmSvPmjGzXRSuXp2OaiESeRaDAWvS8WLTcDXWW2qF4KLKQUr6DK8bhuGbMjC4Zgi6xwUXRWBdVTUILaKD8PaebDzYIFyx2J5pRvMoI17dla3a6hRrxPIzJvWa9EVKhEGHnZfFov7Cs0qUiay6e1OmisDSBJb0VyScJrBk+aP059295/J8SVv31w9T0XASjWUtsEbUC8ULO7PVTQCEuQisme2j8cbubCw/U3LuNAosH36jYddJgARIgARIgARKJECBRYHFfw8SIAESIAEHCNgTWBIl812naLVUTETQ439lqWVh2hJCWwJLkrjvzCxQkVEiauSuepJL6b1WkWgVbcSkfTloEGFQEuPFphHoXSUI2eZCPL49G6vOmDC+WQR6VQlCuqlQLTkUKXZ5lWDMP5aP62uGoJkdgSURR++1ilBtiRwavTlT5XEqLrBWnTFjXudoGHXAwDXpmNepEmKDdaq/N65NV7KrpOKMwBJJM65JOK6tHqxEmSRz//JQHib+/9I8SeQuEUwSufS/DZnoEGvE522FWyY6xxpxS61Q5P5/GNuzO7JUJNPsDtEw6s9FickdB2VsItwaRxnw8/F8VA/9LweWMJ/VPhpxITq1TFDanrAnWyWRb1spCEfyLLh7YyaO5xdgSnKUilKTZZXXrk7HR8lRaBFtUMsFRRzKPJcmsN7YnaPmV/JjpZoLMGZLlsqJVVxgLTltwrxO0Srn19itWfi+c7SShpK3TASd5OkqqVBgOfAPzU1IgARIgARIgAR8jgAFFgWWzx207DAJkAAJVAQBewKrIvrkC206I7BKGo8sEXxoaxZKcTa+gKLc+kiBVW6o2RAJkAAJkAAJkEA5EqDAosAqx8ONTZEACZCA7xKgwHJt7jwhsN5qEYHHtp3LgcVinwAFln1G3IIESIAESIAESMD3CFBgUWD53lHLHpMACZBABRCgwHINuicElmstB+5eFFiBO/ccOQmQAAmQAAn4MwEKLAosfz6+OTYSIAES8BgBCizXUFJgucbNnb0osNyhx31JgARIgARIgAS8lYDXCqzmzZuXdofoMuFZKLeNAvDtt98iPj6+qA3tdXlBe279KM9t/V5QcG6tgzxq22jPExMTYTQaHR6H7J+Tc+6ORSwkQAIkQALlTyBy3nEUhkWVf8O+3GJBIa6KyMSsblXx8l9n8dLhIECn9+UReX/fCwtRM+8MDg1ubPN7TPEBaN9f1qxZA5PJBJ1Op370er36sf5d9pXXZB/tdXlNnlt/R0pOTnaKk7QrPywkQAIkQAIkQAIkUBoBrxVYSUlJFSawUlJSkJCQYPOLHwUW/6FIgARIIDAJXLLoJNbmBgPGoMAE4OyoCwugy8nCB8mRGFI3Ar8cy8WAlWdRGB4lFsTZ2ri9IwRELOVm4+nGoXiuTVUKLEeYcRsSIAESIAESIAGfIUCBZTVVmpyiwPKZ45cdJQESIIFyI3AirwBdFx7FmZx8icctt3Z9tSGDXo832icoeaWVJSfzMXjZMeSbzb46LK/ut0RCjWpSGc+1jEFYWBgFllfPFjtHAiRAAiRAAiTgLAEKLAosZ48Zbk8CJEACJEACJODFBERkUWB58QSxayRAAiRAAiRAAi4RoMCiwHLpwOFOJEACJEACJEAC3kmAAss754W9IgESIAESIAEScI8ABRYFlntHEPcmARIgARIgARLwKgIUWF41HewMCZAACZAACZCAhwhQYFFgeehQYjUkQAIkQAIkQALeQIACyxtmgX0gARIgARIgARLwNAEKLAosTx9TrI8ESIAESIAESKACCVBgVSB8Nk0CJEACJEACJFBmBCiwfERgSTdNJpP6YSEBEiABEiABEiABWwT0ej2Cg4Mhj1rR7rJsa3vtb2vWrFHfMUR+yY/sLz/Wv8v+8prso70ur8lzKVpdycnJTk0Ov984hYsbkwAJkAAJkEDAEqDA8iGBFbBHKQdOAiRAAiRAAiTgMgEKLJfRcUcSIAESIAESIAEvIkCBRYHlRYcju0ICJEACJEACJOBpAhRYnibK+kiABEiABEiABCqCgM8LrJiYGNxxxx2YP38+9uzZoxhK6Pr+/fuRmpqqwtpbtWqFnJwc/P3336Uy1r7gpaSkICEhoWhb6y9+2nPrR3lu6/eCggJVhzxq22jPExMTYTQaK2LO2SYJkAAJkAAJkEAAEaDACqDJ5lBJgARIgARIwI8J+LzAio+Px8iRIzF79mxs27YNbdq0wfXXX4933nkHx48fR/369ZXgmjt3LjZt2kSB5ccHM4dGAiRAAiRAAiRwIQEKLB4VJEACJEACJEAC/kDArwSWJC3t168fQkNDlcCqXr06BgwYoCKdvv76awosfzhiOQYSIAESIAESIAGnCFBgOYWLG5MACZAACZAACXgpAb8RWDt37lRLBbXy448/onfv3pABSqHA8tIjkN0iARIgARIgARIoUwIUWGWKl5WTAAmQAAmQAAmUEwG/EbfvMxUAACAASURBVFiHDh1CgwYNirAtW7YMXbt2Lbq1MwVWOR1RftDMwYMHkZGR4Qcj4RBIgARIgAQCkYBEnjdq1Kho6BRYgXgUcMwkQAIkQAIk4H8E/EZgzZkzB3FxcejVq5eKupIlhA0bNkTfvn2VxKLA8r+Dt6xGtHv3biQlJZVV9ayXBEiABEiABMqUwObNm8+LSqfAKlPcrJwESIAESIAESKCcCPiNwNKSuPfs2VNJrIkTJ6ok7h06dED//v1VkncmcS+no8rHm6HA8vEJZPdJgARIIMAJUGAF+AHA4ZMACZAACZCAnxLweYElUVejRo1SEVY7duxQ0VaydHD79u04ffo09Ho9unTpgvT0dGzZsqXUadSuUKakpCAhIaFoW+srl9pz60d5buv3goICVYc8attozxMTE1VyeRbvI0CB5X1zwh6RAAmQAAk4ToACy3FW3JIESIAESIAESMB3CPi8wBLUBoMBFovFbeoUWG4j9IsKKLD8Yho5CBIgARIIWAIUWAE79Rw4CZAACZAACfg1Ab8QWJ6aIQosT5H07XoosHx7/th7EiABEgh0AhRYgX4EcPwkQAIkQAIk4J8EKLCs5pUCyz8PcmdHRYHlLDFuTwIkQAIk4E0EKLC8aTbYFxIgARIgARIgAU8RoMCiwPLUseQ39VBg+c1UciAkQAIkEJAEKLACcto5aBIgARIgARLwewIUWBRYTh/k69evx4YNG9R+DRo0gNz50Z8KBZY/zSbHQgIkQAKBR4ACK/DmnCMmARIgARIggUAgQIFFgeXUcZ6ZmYnRo0fj2WefRXR0NOQAioyMdKoOb9/YXYGVmpaOSR9Px+MPjsDOXXtRr25tFBQWICQ4WN0ls6JKfr4Jer3OI3e/TEvPQEZGJmrVrF5Rw/FIu9k5uQgPC/VIXdaVfDP/ZyTVT0Sr5k2KXl64aClycvPQr+9lHm+PFZIACZCANQEKLB4PJEACJEACJEAC/kiAAosCy6njOisrC/fddx/eeeedInGVnp6OiRMn4qmnnsLx48fx+++/o1+/fpg6dSrq1KmDTZs2Yfjw4fjpp59w9OhRjBgxAqdOnYLkHFuwYAFMJhN69+6NH374AbVr18Ztt92G+fPnY926dSgoKMCAAQPQpk0bvP7660hOTsaePXtw7NgxPPjgg0qifffddyoSrGXLlk6NpaSNHRFYIx9+BvsPHCqqYta09xAREa5+P3TkKO4a/RgWzP0M9z36HJ4eOwozZn2P228eiNiYSg73MTs7By++8R5efmasw/uUtuGnM2ajdYtmaNu6ucP1TXj/YzRt1AB9e1+i9tn/zyGMnzAJd956PTZu+Qv3/O8Wh+tyZsONm//CUy+8WbTL6LtvR5/LejhThUPbPvvKO3j2sfsd2lY22r13P+5/9Pnzth/+v5vQ/8re57322LOv4vKe3dGze5ei1z+aNhN6vQFDhwx2uD1uSAIkQAKuEKDAcoUa9yEBEiABEiABEvB2AhRYVjPEJO6OHa5LlixRUio8PBzt27dX0unJJ5/EpEmTcOjQISWUhgwZokSXSK2cnBx8+eWXKnJry5YtqFKliopEEnk1dOhQtb1EcfXp0wdjx47Fq6++qiK7DAYDTpw4gXfffVfJKxFfd911l5JZsk/VqlXRsWNHTJgwAWPGjEFISIhjA7CzlSMCa+Bt92DU8DtQr04tVVud2jWQlp6J3xYvR1Z2Nr74+lv8+t10zPvpV/TsfhHGv/k+ateqgTq1auDKyy91qJ+ZmVm496Gn8cWHE7Bu4xbs239QSb9LLu6MKglx2LPvgHo9KjICvS+9WInAP5atgtlsVm1GRkZg2ap1OHj4CBon1Vd/y8zMRotmjXB1n14IDgqy248t23bis5lz8MaLT6ptv/vhF5xNTcNll3TFoaPH0KVDWxw9fgLLVq5D1YR4dO/aESvWbED1qgkq8mzpyrW4uEsHmExmxebynhdDr9fbbXf5qnX4ceEfGDbkRrVtXFwsQkKCsfD3pcjLz0evHl1RKToKBw4exoY/tyrR2aVjW6z7cwuEW4P6dZGWlqH62rVze9SqUQ3bduzCpq3bUbVKAnp07aiOr2tvHo6B/fqia+d2qJ9Yx26/pO3DR45h1579+OX3pRg57DbEVY7FqrUbcSY1FcktmyvhJwKrapV41Va71i3QuGF9WAss6dfi5avVcd7z4i4IK4MoMLuD4QYkQAJ+S4ACy2+nlgMjARIgARIggYAmQIFFgeXyP0BaWhoeeughvPzyyxg3btwFAktklEit/fv3q2iqG264AZI/S+SVyANZjti1a1cVedWoUSP1M3LkSDz//PMqWmv58uVKymRkZODrr79Wkkr+JlFXImk+++wzDBo0CAsXLlSPniqOCKxBQ+7FuEfHqGViBqMeBr0BVwwYghuuuwpmiwVff/MDFqd8hSsG3o6P330FH376Ja7p2wvVqiQoieVIsRZY1916N6696nLooMPyNevx5otP4tKrb8JLTz8M6KAkyMQPP1MyS5gtX70e0z96C/1vHo6HRg5F9WpVkLLgd9SqVR3tk1uibu2aDokk6eft9zyEaZPeUPN23yPP4tnHxyhxtmjpStX+DXeMwohht2L2tz9iUP8r8c+hw5BllA+MuAt9B92BGVPfwcFDRzDp4xmYNOEFh5ZRisBasmINxtx7l0IVGhqMu0Y9gvqJdVGjehVs2PQX3nv9Obzw2kSEhoSgW5cOyMrJwadfzMa9Q2/FUy+8gRsHXAOj0YDfl67E55MnqOipjMxMvD3pU9w0sB+u7tMTd458BI89eK+al+gox5fCbt2+E3Pn/Yxxj56L3lq6Yg30BgMmTvoUX097TwksWS7Y97Ieal7mffkRPpk+qygC66EnX0LnDm3w1/a/1f7ClIUESIAEPEWAAstTJFkPCZAACZAACZCANxHwWoHVrFmzwvIEpUVfSZsS3RMfH1/UvPXftOfWj/Lc1u8SFSJFHrVttOeJiYkeyUVUnoy0trKzs9XTM2fO4LnnnsP48ePx+OOPqyipxYsXY+/evSpSylWBJXVKRJdEYon8ev/99zFlypTzBJa0P23aNBWFVa9ePTRp8l+uIXeZOCKw+t80DK1bNEXl2Bg0SqqnckGNfXo8fpz9iYpI0pYQagJryrSvcN89d6hoHUdLcYH17GNjVFu3DnsAM6a+rR4v7d4FQ268DlGRkejW53pc1LGtOtYWLV2FX7+fjpFjn8GUd15ReZ7e+uATJU26dGjjaBfUdhPem4rGjeqjVfOmeOK51/DJ+68reSU/Evn17Ctvo1vn9ioyKSoqEg+PHoZxL7+F1194HEPvexwDr+mDtIwMFaE1eMDVDrUtAuudydPUeKQM7NcHtwx7QI1JRNptdz+At8Y/jamffYW2rVvgqit6Kmk357sf1evSpyGDB6B+vToYcveDmPTWS0pg/fDz79i1dx9aNG2s+nnfI89h4mvjHOqT9UbFBdY38xdg09ZtWL1ukzoGnnj+9aIlhO9P+Rw1a1TDiZOnlMC667Yb0LPfzSp6LS83D/8cOYqZU95W0VgsJEACJOAJAhRYnqDIOkiABEiABEiABLyNgNcKrKSkpHIVWDIxXEJo//C0WCx4++23kZqairCwMPTt21ct6fvqq6+UbLroootUfitZDihL/x555BGV92r79u3o1asXduzYURSBJSKsVatWKtJKcmXJUsQ33ngDw4YNU0sU16xZg+bNm2Pnzp1KXkm78reIiAjV0WXLlmH69OlqCaEsZ/RUcURgDRoyAi+PG4tGDeqpZmVpmkTd/DDrExw9dvwCgTX181kYPXyI2wKrSaMGuOnO+/DN9MlKjE6bOUfl1/ry44m4c9QjeHv80wgLDVXRVVWqxGPIPQ8WCayJH05Dhzat1FI7Z8qWbTvw6LhXcenFXVCtagJuG3ydWj4nAkuWEn41dz7GPXa/ig4LCQ1GfOXKuOeBp9CscRISEirjyznzEVspGm++/BTiHRR4IrBESD1y/92qq4eOHMOQ4Q9g4ffT1f/pkHsewqvPPYZpM2bbFFivvDUZV/e5VImqoaMfw9uvPINRDz+jpJUsq5Qk9I+OuUflKJv4qnsCa+GiZfhq7jw89fBojJ/wAT6Y8CKeevGN/wTW1C9QObYSMjKy1LyIwJL+vzLuETW2oOAgJMRVdigyzZl547YkQAKBS4ACK3DnniMnARIgARIgAX8mQIFlNbsUWL51qH///fdKXEkCeE8WRwTWgFvvwZ233qByX0mpXbM6bh3+gFpCKHmP3pj4kYoW0iKwJPInODgIzZs0Qqf2yQ5111YEliawJAJr1do/lfh4ZNx4vD3+GcyY/T1iY6KVoCowF6BLp7a4ZfiYIoG14LclWLNhE67o2R3JLZup/jhSRJTdNvxBlZz+57mfqXxNmsB6euxoDLp9BEYOvU1FXzVv2ghxsTFKrL374WdYNH8mho95AvFxsXjv9fOTn5fWdnGBJcsybxv2ALp364RqCfH46bfFmDzhRbz0xnsOC6wRDzyFB0cPxep1f6oljiKwJKprzIj/IS42FvUTazuCQ21jHYElXL+cOw9PPDQSb0ycgg/efEEJrMQ6tSDzJRw+n/ymyof255ZtKin/qLHj0LF9ssqXFREejpbNGjvcNjckARIgAXsEKLDsEeLfSYAESIAESIAEfJEABRYFli8et5DoLYnQuuSSc3fH82RxRGBN+ng6jp88VdSsyCxJKi7J2zMys1TS9AHXXIH3p36BW67vD7PZgumzvkNkRLjDd6HLy8tXubSG3DQAUz77CldefgmqJiRA7iZ4yw39Mf2rb3HyzFm0at4EV11+KbKysjFz7jycPZumlgpe0q0zPvtyLm4a1E8lbJcE5J/NnIt8kwlDbxuM0FDHk95v27kbu/fsQ79/77a34+89+Ft+73sZ9h04hDnfp8BgMKrljPFxlfHPoSMqafyQGwdgzfpNMBj0aJfs+F0i9+7/B3v3H1QRXlrJyclV45HcUjL+KvFx+PnXxUoeijiTfTZu3qaWG0pUVIumjVTur5mzv8fA/n2xeesOLFy0FAajAT0vvggd2rbC0hVrsXTlGhUt1b6N4/07euyEklFyd0YRfLO+TVE8YqKjMPruO9SYJYG9yWxGvz69VP/kuPhm3k8YPPAapKdnKumVl5eHyy7ppiQcCwmQAAl4igAFlqdIsh4SIAESIAESIAFvIkCBRYHlTcejV/TFEYHlFR1lJ0iABEiABEjABgEKLB4WJEACJEACJEAC/kiAAosCyx+Pa7fGRIHlFj7uTAIkQAIkUMEEKLAqeALYPAmQAAmQAAmQQJkQoMCiwCqTA8uXK6XA8uXZY99JgARIgAQosHgMkAAJkAAJkAAJ+CMBCiwKLH88rt0aEwWWW/i4MwmQAAmQQAUToMCq4Alg8yRAAiRAAiRAAmVCgAKLAqtMDixfrpQCy5dnj30nARIgARKgwOIxQAIkQAIkQAIk4I8EKLAosPzxuHZrTBRYbuHjziRAAiRAAhVMgAKrgieAzZMACZAACZAACZQJAQosCqwyObB8uVIKLF+ePfadBEiABEiAAovHAAmQAAmQAAmQgD8S8HmBpdfr0ahRI8TExKj5yc/Px19//YW8vDyn56uwsFDtk5KSgoSEhKL9tdflBe259aM8t/V7QUGBqkMetW2054mJiTAajU73UdshMzMTv/32G/r374+///4bGzZswODBg3HmzBmkp6fjxIkTaNu2LWSCbRWz2Yxjx46hVq1aF/z58OHDCA4OVn9v0aIFdDqd2kba3LdvH1q2bOlyv6133LNnDwwGA4RFSSU3Nxdr1qxB9+7dizbZtGkTmjRpgpCQEI/0o3glIrCqV69eJnWzUhIgAaj/e4vFQhQkQAJlREA+X1u1amXze0zxJrXvL/JZazKZ1Ge+/Mj3K/mx/l32lddkH+11eU37nqDVlZyc7NTIpF35YSEBEiABEiABEiCB0gj4vMCqXLkyRo0ahdDQ0KJx7tq1C6tXry6SSjk5Odi/f7/dI8GXBJb09dtvv8XVV1+NLVu2IC0tDe3atcOBAweUfBEJIxLq5MmTuOiii5R8ku3kC2L79u1x9OhRJfqaNWuGNm3aqC+fe/fuxY4dO9SXU5Ffx48fV7JKpJVsGxkZCeEtX4qlXvmR/Xfu3KlEmHCXemWbjh07YtGiRUo8nT59WskmTTJu3bpV9VPalP0rVaqEtWvXqv527dpVjUW+SMvB2aFDB8j2MoalS5dC5lL2u+SSS1Qd8iU9Pj5ebeepIuxq1qzpqerKvR6ZF2sBW+4dCKAGRR6LQGdxjoC8x2iC37k9uTUJkIAjBOTzmALLEVLchgRIgARIgARIwJcI+LzAEnkxcuRIu9E406ZNU5FKpRVfElgyDpF0cvIsEUn16tVTJ4QioHr06IF169ap6Kns7GwlkJKSklRElYzx1KlTSlBt374drVu3Vkjk9VmzZmHgwIE4cuQIwsLClCCS7UREXXrppUosHTp0SEktaWvJkiVKUK1fv159URZBJnJsxYoVqF+/PlauXKkEm4gwqS8uLk4JNJFVIqSkryIeRYBp4krqlQgwkWoivURYLVu2rEikdenSRbUnY5OoM/ldxJb0SRNk7v4D+voSQpm/GjVquIuB+ztAoPgyHQd24SYkQAIkUOYEuISwzBGzARIgARIgARIggQogEDAC6+uvv1aix58ElogekUqyZFAinkTsSESSLCWUCCaRTxKNIwIpIyNDSZ7Y2Fj1NwnvLy6wvvzyS9x8881KIEk0lAgsEUkipC6++OILlhCKgBJRIhFajRs3Vm03b95cRUxJVJVItOICS5Z4iuiSaDERRbKMcuHChWp7kVm9e/eGfPHu1KmTmipNYEmk1tmzZ5W40pYQfv7556hSpYqq48orryxawuDu/xEFlrsEA2d/CqzAmWuOlAR8iQAFli/NFvtKAiRAAiRAAiTgKAEKLCtSvhaBJXJnwYIFSlTVqVNHPRcR1LlzZxWdZS2wJAJK8mPJ3yU/mERMLV68WAkoyScly/JWrVqlIqtkeY9EbMmySxFNGzduhOSiio6OVrREIkmRSC6JfpLlfPI32V9y24gs69atm4q0ErkkdUukmERgSf0i0KTI61WrVoXk4xLJJhFXIsAkykuixURoSSSXRFpJfdJfibgTCSb9kmWNEtElB7FEkknbnigUWJ6gGBh1UGAFxjxzlCTgawQosHxtxthfEiABEiABEiABRwhQYPmwwHJkgstyG4nukjwbshzQnwoFlj/NZtmOhQKrbPmydhIgAdcIUGC5xo17kQAJkAAJkAAJeDeBgBFYsjxOlq6VVnwtAquiDy3JryVRU56KfKro8WjtU2B5y0x4fz8osLx/jthDEghEAhRYgTjrHDMJkAAJkAAJ+D8BnxdYskRNlpfJ0riSiiyZk+VnsuSOAsv/D2p3R+iMwDp6/ASOHz+F5FbN3G22xP0zMrNw9NgJNGyQ6FCeLyZxL7OpuKBiCqzyY82WSIAEHCdAgeU4K25JAiRAAiRAAiTgOwR8XmB5EjUjsDxJ03frclRgZWZl46ob7kSDxDr45P3XymzAh48exzfzf0bXTu3RtnVzu+04I7AsFssF9en0euh1OrvtOLLByjUbUCj5zgDUrFENdWq5dndE+d8sKCiEwaAvatbWa470qfg25+opUC9LXjbJAedoocBylBS3IwESKE8CFFjlSZttkQAJkAAJkAAJlBcBCiwr0hRY5XXYeXc7jgis02fO4n8jxiI2thLee/15REVGlNmg5Ljcs+8fLFq6Esktm6F9m5alRmI5I7BadLkCOTm5RX0PDQ1BiyaN8ObLT6JWjepujclkMmPazNmY8P7HeHrsaPS6pCuqJsS7VOeSFWvwwOMvYP3i+UX723rN2cr/OXQEz7w0AcdOnERoSAgk2u3m6/vjrttucKgqCiyHMHEjEiCBciZAgVXOwNkcCZAACZAACZBAuRCgwKLAKpcDraRGsrKyEBHhmvyRux3KHQklYiYmJsah5XWODNaewDp+4hQG3zkKeXn5eHv8M0p8qKIDoqMiUb1qFYgIcqdkZedAcoxZ/o0Mkrr+3r0Pm7ZuwyXduqBls8YlVu+MwGqQ3AO3Db4Og/pfqepbv2kLnn91Ih5/8F4MHXKjO0NQ+341dz7efG8Kfps3U7Fxtfy+eAWG3f849vy5uKgKW685W/+48W/hwMHD+PjdV1Uut+Wr1mHSJzMw/aO3HKqKAsshTNyIBEignAlQYJUzcDZHAiRAAiRAAiRQLgQosKwwMwKrXI658xpZt24d2rdv71LDmZmZMJlM2LFjB+rUqYOaNWu6VE/xnewJrDnf/4RHx71yQVuyTC4iMgLNGidh6sRXEBER7lJ/RCL9uXkbsnNyi5a2WVcUVzkWt95wbYl1OyuwHho1DCOG3qrqkwik5G5X4vEHR2DokMEu9d96p/FvfYDlq9Zj/ldT3RKMZSWwHn7qZWTn5OCDN18o6rYcU/LG6EihwHKEErchARIobwIUWOVNnO2RAAmQAAmQAAmUBwEKLAqs8jjOSmxj7dq1iIqKQnp6OkQgtmnTBqtWrUJYWBiCg4NRpUoVHD9+XD2vXbs25Eu5JO6XfZo1awbJ4SQSrEWLFi5HcjkrsMxmM16f+BHm/fQrXn/hCXTt1E7JGdWXjVvw/pTPkZaRgRlT3kGkkxJr7/5/8PNvi9GpXTKS6ieiUnSU6p7FUoBfFy/H4SPH0K/vZYiPi/WYwGqX3BKtmjdR9W3c8hcyMjLx+eQ3Ua1qFbePjeH3P4GWzRph9N13uFWXpwXWdym/QHKYybLMpSvWovel3dTSTGtxFRkRgWuv6l1qvx0RWLLUdNfe/YqplCH3PISG9RPx6Qev4/uUhXj+tYkY2K8PnnhopFuMuDMJkAAJaAQosHgskAAJkAAJkAAJ+CMBCiwKrAo9rq0jsH7++WclpXJzc1G/fn0sX74cDRs2VP2rUaMGdu3ahejoaCWvlixZgj59+mDv3r3q94SEBI+Nw14EljQksu3ZV95WAuLbGR+hXt1aRe3vO3AQ/W8ejjdeeAKX97zYqX5JsvaE+Mq4uEvHov0kwfi3Kb/g7Nk0DLlxAIKDS48OcjYCSyUu/zdpuyRcNxoM+GjieFzcpYNTfbe1cfe+N+DtV55B29Yt3Kprxer1uGPEw/jt+xmoXauG4v/Gu1PwXcpCLF8w2+m6L73mJhw+fOy8/WTsUq/8yLLUWjWrYdH8L90WWM079YbJbMG0D16H2WLBXaMeVWJz49IUjHnsecz/+TdUr1YFy352fhxOD5w7kAAJBAQBCqyAmGYOkgRIgARIgAQCjgAFFgVWhR70xQVWhw4dsHHjRiWuIiMjkZeXVySwDh48CJEz1apVUzmvKlWqhGPHjiEuLs7hJV+ODNYRgSX1mM0WTPxwGubO+wnLF8wpqloisbpecb1agufsMrzJn87AjQOuQUyl6KL6JGG8RGVdfml3JbfsFWcF1jV9einJJEVyb93/6HPYs+8AFv1Quryx1w/JFXbNjUOx5vfv7G1q9++ytFH6tffAQbRr3QKnz6Ziy1878OHbL6vIKU8Umbf1f27BPQ88hVnT3kdS/bp2q3UkAmvj5m04eeo0enTrpOpbvGw1EuLj0KZVM6SlZ2DZyrUqOb/cpZGFBEiABDxBgALLExRZBwmQAAmQAAmQgLcRoMCymhHmwCr/w3P79u1o2rSpanjlypXo0qULZFlhamqqElXVq5+7E158fDxk6d7q1auRk5Ojcl41atQIW7ZsQVJSklpy6KniqMAqqb2c3Fz0uPJGjL77dpUg3Zny4acz0f/K3qhW1fWIMmcFVt/LLsErzz2quinC8InnXseKtRuwZcXPznT9gm3nfv8TZn33I77+9F236rHeefInM/DLoqWoFBWFEXfdig7tWrtV9+zvfkSn9smoVaOairoSgXfdLcMx8bVn0aRhA7t1OyKw7FbCDUiABEjAwwQosDwMlNWRAAmQAAmQAAl4BQEKLKtpoMDyimOywjvhrsBatmodho5+FF99/C6SWzVzajy//rEMZ9PSMeDqPjAY9E7tq23srMCKCA9DfNy5yC65q+OxE6fwwIg7MXLYEJfal50kmun2ex9GbEwlvPvasy7Xo+24ddtOPPXim2oJnnWpU6vGeQnYnW1IliHOnP09Ondoo5b1/bllO6pWiccXH05wqCoKLIcwcSMSIIFyJkCBVc7A2RwJkAAJkAAJkEC5EPBagdWkSRNJSVOuRRNY8+bNUxE/WtFel9+159aPWt4c7e/a75K7SIo8Wr8mzxMTE1UychbvI+CuwLqs/63o1eMidSc/Z8vZ1DR8+8Mvalmclljd2TqcEVgicCRpu1ZCQkLQukUTXN6zO4KCXD8+P5r2pUo4L6VHt87o2b2Ls8M4b/v9/xzCZzPnXnBXRllSOWr47W7VLUncl69eh7y8fNSvVwfXXNELMTH/LeEsrXIKLLfQc2cSIIEyIkCBVUZgWS0JkAAJkAAJkECFEvBagZWUlFRhAislJeW8pOAUWBV6jJZ74+4KrHLvcLEGnRFYFd1XX2+fAsvXZ5D9JwH/JECB5Z/zylGRAAmQAAmQQKAToMCyOgK4hDDQ/x3OjZ8Ci8eBowQosBwlxe1IgATKkwAFVnnSZlskQAIkQAIkQALlRYACiwKrvI41n2mHAstnpqrCO0qBVeFTwA6QAAnYIECBxcOCBEiABEiABEjAHwlQYFFg+eNx7daYKLDcwhdQO1NgBdR0c7Ak4DMEKLB8ZqrYURIgARIgARIgAScIUGBRYDlxuATGphRYgTHPnhglBZYnKLIOEiABTxOgwPI0UdZHAiRAAiRAAiTgDQQosCiwvOE49Ko+UGB51XR4dWcosLx6etg5EghYAhRYATv1HDgJkAAJkAAJ+DUBCiwKLL8+2vDsTwAAIABJREFUwF0ZHAWWK9QCcx8KrMCcd46aBLydAAWWt88Q+0cCJEACJEACJOAKAQosCixXjhu/3kcEltls9usxcnAkQAIkQAL+SyA/Px+tWrUqGqB2l2VbI9b+tmbNGphMJuh0OvWj1+vVj/Xvsr+8Jvtor8tr8lyKVldycrJTcKVd+WEhARIgARIgARIggdIIUGBRYPE/pBgBX4/A4oSSAAmQAAkENgFGYAX2/HP0JEACJEACJOCvBPxSYEVFRaFq1ao4dOgQcnNzHZ477cphSkoKEhISivazvnKpPbd+lOe2fi8oKFB1yKO2jfY8MTERRqPR4b5xw/IjQIFVfqzZEgmQAAmQgOcJUGB5nilrJAESIAESIAESqHgCfiWwGjdujNatW0O+uA0ZMgSpqan44IMPkJmZ6RBpCiyHMPn9RhRYfj/FHCAJkAAJ+DUBCiy/nl4OjgRIgARIgAQCloBfCCyJZBJhlZSUpCKuZs2apX6XkpaWhsmTJ6tHe4UCyx6hwPg7BVZgzDNHSQIkQAL+SoACy19nluMiARIgARIggcAm4PMCSxKHDho0CG3atFEzWVxgyWuzZ8/Gxo0b7c40BZZdRAGxAQVWQEwzB0kCJEACfkuAAstvp5YDIwESIAESIIGAJuDzAisyMhJjxoxBeHh4kcCaOnUqunfvXjSxO3bswJ9//ml3oimw7CIKiA0osAJimjlIEiABEvBbAhRYfju1HBgJkAAJkAAJBDQBnxdYsbGxGD16NEJDQ9VEWiwWfPbZZ6hSpQqqV6+uXpPbSc+fP9/uRFNg2UUUEBtQYAXENHOQJEACJOC3BCiw/HZqOTASIAESIAESCGgCPi+wQkJC8PDDDyMiIqJoInNycvD+++/jlltuURJr3759mDJlit2JpsCyiyggNqDACohp5iBJgARIwG8JUGD57dRyYCRAAiRAAiQQ0AR8XmDJ7LVr1w4DBgyA5MPSSlZWFhYsWIAOHTpg0aJFkGWE9goFlj1CgfF3CqzAmGeOkgRIgAT8lQAFlr/OLMdFAiRAAiRAAoFNwC8Elkxhz5490blz56JILBFYIq5WrVqlZliTU6VNNwVWYP8zaKOnwOJxQAIkQAIk4MsEKLB8efbYdxIgARIgARIggZII+I3Akuir6OhoSFJ3KRkZGerHEXGlwaHA4j+KEKDA4nFAAiRAAiTgywQosHx59th3EiABEiABEiABvxdYnphiCixPUPT9OpwVWHLjALPZDMnHxkICJEACJEACFU2AAquiZ4DtkwAJkAAJkAAJlAUBv4nA8gQcCixPUPT9OpwVWIMGDUK/fv0wZMiQchv8a6+9hrp162Lw4MHl1iYbIgESIAES8A0CFFi+MU/sJQmQAAmQAAmQgHMEKLCseFFgOXfw+OvWzgqsgQMHon///uUqsNavX4+oqCg0atTIX6eB4yIBEiABEnCRAAWWi+C4GwmQAAmQAAmQgFcToMCiwPLqA7QiOueOwDKZTNizZw9ycnJQu3ZtxMfHqyHs27fv/9i7E8A4q3rv479Zkkz2NE26p01pKYWytMi+KJuyL1J2ARH1CqK4cl1wu+p1RQS9XBGvoCyyCrU0IJRdNktRKljKVrrva/bJbO97nsmk0zbLTDJJnjnP97nmZjJ9lnM+/5M2/HKe82j79u0KhUKaPn26zEMGzHvxeFxTpkxxHj6wdetWrV69WuFw2DkuGAxqw4YNzrpuZh+/39/FsW7dOhUWFqqystK5njlfIBDQ5MmTnWDLhLErVqzQli1bVFxc7Fxz8eLFzqwtcy1zHbP/qFGjnP3Mtc3XY8aM0aZNm9TR0aEJEyZ0tX846sA1EUAAAQT6J0CA1T83jkIAAQQQQAABdwsQYBFguXuEDkPr+htgXXLJJbrmmmv0wgsvaNasWVqwYIHz2qyNteeeezqztExAdPXVV+tjH/uYTNhlNvPezTffrJ/85CeaN2+ejjrqKD388MNOcHX44Yfr8ccf1913360DDjigS+O6665zArKjjz5aM2fOdG4lNKGUCbOeeOIJtbe3O++dcsop2rZtm8z+Bx10kHMd8/naa6/ViBEjdOWVV+pDH/qQ8xRP0+/XXnvN+bqxsdF5CMLcuXOd0I0NAQQQQCB/BAiw8qdWtBQBBBBAAAEEMhcgwCLAyny0eGTP/gZYp59+uhP+PPfcc6qqqnJCIjPD6sc//rFmzJihl19+2ZkdtWzZMl188cV6+umnnVlVJrB68cUX9b3vfc8Jnn7605/q+9//vhNw/eAHP9Cf/vQnLVq0yHk/taUCrCOPPNIJsJYsWeJc87TTTnM+DjnkEP3iF7/Qr371K40ePdo5rLsA64orrnD2ff31150ZWCYwe+mll5wZXIcddpgeeeQRjRw50iOVp5sIIICAHQIEWHbUkV4ggAACCCCAwM4CBFgEWHxP7CLQ3wDrIx/5iMwsrPnz5ztnNMHTTTfd5MzCSg+wnn32WR1zzDHy+XxdVza38F1//fVdAdZvfvMbLVy4UL///e+d85lz3Xbbbb0GWOa2w//5n/9xbgn80Y9+pK9//esy5/nlL3+p//iP/8gowDLteuaZZ5zrmCDs1ltvdW4zZEMAAQQQyB8BAqz8qRUtRQABBBBAAIHMBQiwCLAyHy0e2TPbAOu8885zbtUztwh+8IMf1N/+9jdnNtS3vvUtxWKx3WZgrVq1ShdeeKEeeOCBrhCrtrZ2pxlY5lY/cwuiCZBMgHXXXXfpD3/4Q68BVnV1tcyC8h/+8If12c9+1tn3nXfecWZSPfXUU/rOd77jvH/iiSd23UK46wwsAiyPDHK6iQACVgsQYFldXjqHAAIIIICAZwVcG2BNmzYtMdRVST2F0KxDlFp827Qh9X7669R75nPqI/Xnqa/N7WNmM5/T3zOv6+vrnUW62dwnkG2AZW7Ve3L+fDU8+qj+8z//05lxZdareuWVV5JrYPn9mjFzZtcthOHGRn3sssvU0tbm7Fc3bpyuuvpqffe731V7a6t++sMf6ubbbksGWL/9bTLAuu++HgMss3C7Ca7MeDLHmBlea9as0b333uvcovjnP//ZCbBMv77whS84Adff//53XXDBBbrssst2uoWQAMt945EWIYAAAtkKEGBlK8b+CCCAAAIIIJAPAgRYaVUiwMqHITv4bcw2wOpYtkzvf+Yz2uu22xSprdX7t92mtj/9SeNvvVU1kyZJN96oxe+8o71uvFGB9nbpa19T66mnavmUKTLH1txyi8bfdJPW+nyKP/mkxr/wgjZ99atq8fk0ac4cNTU2asull2rSHnt0dX79+vXOUwjN0wf3339/NTQ0OE8XNE8ONDOxmpubtXTpUmd/swaW+TBBqnnyoVmg3Rxr9jVrcpn1s/bee29nNtjbb7+tadOmOceZBeHNUwsJWgd/zHEFBBBAIJcCBFi51ORcCCCAAAIIIOAWAdcGWFOnTh22GVgmDDC3dKU2ZmC5ZbgOTTuyCrBWrZK+/GVp1izpn/80C0dJTzwh7b23tH27ZEKnd95JNnzPPSUTKlVWSm++KZ1wgjRvXubHHnqolPYkQnNKcztiahH39FmDQyPFVRBAAAEE3ChAgOXGqtAmBBBAAAEEEBioAAFWmmAqqCLAGuiwyu/jswqwFiyQzK2gBx4o/eMf+v8LWUm//a00dqx0003SSy8lvzbbZz4jHX64dNVV0tq1ya/N/pkee+qp0oUX5jcurUcAAQQQGHQBAqxBJ+YCCCCAAAIIIDAMAgRYBFjDMOzcfcmsAix3d4XWIYAAAgh4UIAAy4NFp8sIIIAAAgh4QIAAiwDLA8M8uy4SYGXnxd4IIIAAAu4SIMByVz1oDQIIIIAAAgjkRoAAiwArNyPJorMQYFlUTLqCAAIIeFCAAMuDRafLCCCAAAIIeECAAIsAywPDPLsuEmBl58XeCCCAAALuEiDAclc9aA0CCCCAAAII5EaAAIsAKzcjyaKzEGBZVEy6ggACCHhQgADLg0WnywgggAACCHhAgACLAMsDwzy7LhJgZefF3ggggAAC7hIgwHJXPWgNAggggAACCORGwJoAy3Skrq5OhYWFu8l0dHRoxYoVikajvaolEgnnzxsaGlRbW9u1b+p980bqdfpn87q7r+PxuHMO8zm1T+p1fX29gsFgbqrIWXIqQICVU05OhgACCCAwxAIEWEMMzuUQQAABBBBAYEgErAmwpk+fruOPP16vvvrqbnAzZ87Us88+qzfffJMAa0iGVX5fhAArv+tH6xFAAAGvCxBgeX0E0H8EEEAAAQTsFMj7ACsQCGi//fbTtGnTNGrUKC1atKirUrFYTEuWLHGCrbfffnunP+uunMzAsnOQZ9srAqxsxdgfAQQQQMBNAgRYbqoGbUEAAQQQQACBXAnkfYBVU1Ojq666SkVFRd2aLFy4UCbkIsDK1ZCx/zwEWPbXmB4igAACNgsQYNlcXfqGAAIIIICAdwWsD7DMLYV+v58Ay7tjPOueE2BlTcYBCCCAAAIuEiDAclExaAoCCCCAAAII5EzAigDr05/+tF588cXdUMaOHatIJEKAlbPh4o0TEWB5o870EgEEELBVgADL1srSLwQQQAABBLwtYEWAddlll+m6667brZJm8fYpU6YQYHl7jGfdewKsrMk4AAEEEEDARQIEWC4qBk1BAAEEEEAAgZwJWB9gHXvssTKLs8+dO1dLly7tFY5F3HM2rvL6RARYeV0+Go8AAgh4XoAAy/NDAAAEEEAAAQSsFLA+wNpzzz310EMPKRqN9llAAqw+iTyxAwGWJ8pMJxFAAAFrBQiwrC0tHUMAAQQQQMDTAnkfYJWVlenyyy9Xa2vrboUMhUJ6+eWXZZ5EmMlGgJWJkv37EGDZX2N6iAACCNgsQIBlc3XpGwIIIIAAAt4VyPsAK5elI8DKpWb+nosAK39rR8sRQAABBCQCLEYBAggggAACCNgoQICVVlUCLBuHePZ9IsDK3owjEEAAAQTcI0CA5Z5a0BIEEEAAAQQQyJ0AARYBVu5GkyVnIsCypJB0AwEEEPCoAAGWRwtPtxFAAAEEELBcgACLAMvyIZ599wiwsjfjCAQQQAAB9wgQYLmnFrQEAQQQQAABBHInQIBFgJW70WTJmQiwLCkk3UAAAQQ8KkCA5dHC020EEEAAAQQsFyDAIsCyfIhn3z0CrOzNOAIBBBBAwD0CBFjuqQUtQQABBBBAAIHcCRBgEWDlbjRZciYCLEsKSTcQQAABjwoQYHm08HQbAQQQQAABywUIsAiwLB/i2XePACt7M45AAAEEEHCPAAGWe2pBSxBAAAEEEEAgdwIEWARYuRtNlpyJAMuSQtINBBBAwKMCBFgeLTzdRgABBBBAwHIB1wZY06dPTwy1fSKRvOTcuXNVU1PTdfnU++aN1Ov0z+Z1d1/H43HnHOZzap/U6/r6egWDwaHuItfLQIAAKwMkdkEAAQQQcK0AAZZrS0PDEEAAAQQQQGAAAq4NsKZOnTpsAVZDQ4Nqa2sJsAYwsPL5UAKsfK4ebUcAAQQQIMBiDCCAAAIIIICAjQIEWGlVTc2iIsCycahn3icCrMyt2BMBBBBAwH0CBFjuqwktQgABBBBAAIGBCxBgEWANfBRZdgYCLMsKSncQQAABjwkQYHms4HQXAQQQQAABjwgQYBFgeWSoZ95NAqzMrdgTAQQQQMB9AgRY7qsJLUIAAQQQQACBgQsQYBFgDXwUWXYGAizLCkp3EEAAAY8JEGB5rOB0FwEEEEAAAY8IEGARYHlkqGfeTQKszK3YEwEEEEDAfQIEWO6rCS1CAAEEEEAAgYELEGARYA18FFl2BgIsywpKdxBAAAGPCRBgeazgdBcBBBBAAAGPCBBgEWB5ZKhn3k0CrMyt2BMBBBBAwH0CBFjuqwktQgABBBBAAIGBCxBgEWANfBRZdgYCLMsKSncQQAABjwkQYHms4HQXAQQQQAABjwhYFWBNmjRJBxxwgLZt2+aULxQK6fHHH8+4lIlEwtm3oaFBtbW1Xcel3jdvpF6nfzavu/s6Ho875zCfU/ukXtfX1ysYDGbcNnYcOgECrKGz5koIIIAAArkXIMDKvSlnRAABBBBAAIHhF8j7AMt04MMf/rCqq6tVWlrqiLa0tDifR40apQ0bNqi9vV2PPvpo1/s9sRNgDf+AdEMLCLDcUAXagAACCCDQXwECrP7KcRwCCCCAAAIIuFkg7wOsmpoaXXXVVSoqKurV+Z577pH5ga63jQDLzUN16NpGgDV01lwJAQQQQCD3AgRYuTfljAgggAACCCAw/AJWBFhXXnmlCgsLe9W8//77CbCGf7zlRQsIsPKiTDQSAQQQQKAHAQIshgYCCCCAAAII2CiQ9wGWCa4mTpwov9/v1Gfjxo3O+lWrV6/W+PHju2q2du1aNTU19VpDZmDZOMSz7xMBVvZmHIEAAggg4B4BAiz31IKWIIAAAggggEDuBPI+wNr1FsJXXnnFWTB98+bNOvnkk7uk7r33Xi1atIgAK3djx9ozEWBZW1o6hgACCHhCgADLE2WmkwgggAACCHhOwLoAq6cKEmB5bmz3u8MEWP2m40AEEEAAARcIEGC5oAg0AQEEEEAAAQRyLpD3AVZJSYnMGlgjR47sESccDuvmm2/W+vXrewXkFsKcj6+8PCEBVl6WjUYjgAACCHQKEGAxFBBAAAEEEEDARoG8D7ByWRQCrFxq5u+5CLDyt3a0HAEEEEBAzkNr9t9//y6K1M833dmk/mzBggWKRCLy+XzOh1lb1Hykf22ON++ZY1Lvm/fMa7OlzjVz5sysymCuaz7YEEAAAQQQQACB3gQIsNJ0CLD4ZjECBFiMAwQQQACBfBYgwMrn6tF2BBBAAAEEEOhJgACLAIvvjl0ECLAYEggggAAC+SxAgJXP1aPtCCCAAAIIIECAlcEYYAZWBkge2IUAywNFposIIICAxQIEWBYXl64hgAACCCDgYQFmYKUVnwDLw98JaV0nwGIcIIAAAgjkswABVj5Xj7YjgAACCCCAQE8CBFgEWHx37CJAgMWQQAABBBDIZwECrHyuHm1HAAEEEEAAAQKsDMYAM7AyQPLALgRYHigyXUQAAQQsFiDAsri4dA0BBBBAAAEPCzADK634BFge/k5I6zoBFuMAAQQQQCCfBQiw8rl6tB0BBBBAAAEEehIgwCLA4rtjFwECLIYEAggggEA+CxBg5XP1aDsCCCCAAAIIEGBlMAaYgZUBkgd2IcDyQJHpIgIIIGCxAAGWxcWlawgggAACCHhYwLUzsPbZZ5/EUNYlFV6Za86ZM0c1NTVdl0//s9Tr9M/mdXdfx+Nx5xzmc2qf1Ov6+noFg8Gh7CLXylCAACtDKHZDAAEEEHClAAGWK8tCoxBAAAEEEEBggAKuDbCmTp06pAGWcWQG1gBHkyWHE2BZUki6gQACCHhUgADLo4Wn2wgggAACCFguQICVVmACLMtHe4bdI8DKEIrdEEAAAQRcKUCA5cqy0CgEEEAAAQQQGKAAARYB1gCHkH2HE2DZV1N6hAACCHhJgADLS9WmrwgggAACCHhHgACLAMs7oz3DnhJgZQjFbggggAACrhQgwHJlWWgUAggggAACCAxQgACLAGuAQ8i+wwmw7KspPUIAAQS8JECA5aVq01cEEEAAAQS8I0CARYDlndGeYU8JsDKEYjcEEEAAAVcKEGC5siw0CgEEEEAAAQQGKECARYA1wCFk3+EEWPbVlB4hgAACXhIgwPJStekrAggggAAC3hEgwCLA8s5oz7CnBFgZQrEbAggggIArBQiwXFkWGoUAAggggAACAxSwPsDy+XwyH/F4vE+qRCLh7NPQ0KDa2tqu/VPvmzdSr9M/m9fdfZ26pvmc2if1ur6+XsFgsM82scPQCxBgDb05V0QAAQQQyJ0AAVbuLDkTAggggAACCLhHIO8DLL/fr5KSEiekSt9aWlo0duxYnXvuuero6NBf/vIXrV69uld5Aiz3DMzhbAkB1nDqc20EEEAAgYEKEGANVJDjEUAAAQQQQMCNAnkfYB177LE6/vjjd7Jtbm7Wrbfeqk996lNauHChlixZolNPPVW/+93vFI1Ge6wDAZYbh+jQt4kAa+jNuSICCCCAQO4ECLByZ8mZEEAAAQQQQMA9AnkfYM2ePVvPPvuszIyr1DZmzBidddZZevrppzVz5kyVlZVp8eLFztfptwPuWgYCLPcMzOFsCQHWcOpzbQQQQACBgQoQYA1UkOMRQAABBBBAwI0CVgRYjz32mMysK7ONGjVKF154oR544AFt3LhRZ5xxhhobG/X444/36U+A1SeRJ3YgwPJEmekkAgggYK0AAZa1paVjCCCAAAIIeFrAqgBrxIgRuvTSS531rpYtW6bzzjtPW7dudWZe9XbrYGoEEGB5+nuhq/MEWIwDBBBAAIF8FiDAyufq0XYEEEAAAQQQ6EnAqgDrnHPOcda7euedd3TmmWeqra1Nr7zyitatW5fRCCDAyojJ+p0IsKwvMR1EAAEErBYgwLK6vHQOAQQQQAABzwpYFWBdccUVMuHDhAkTtGrVKmf21ejRo/XII49kVGACrIyYrN+JAMv6EtNBBBBAwGoBAiyry0vnEEAAAQQQ8KyAVQHWHnvsodraWm3fvl1vv/22DjzwQCfAamhoyKjABFgZMVm/EwGW9SWmgwgggIDVAgRYVpeXziGAAAIIIOBZgbwPsE477TT5fD5FIpHdimjCqxUrVjhrYGWyEWBlomT/PgRY9teYHiKAAAI2CxBg2Vxd+oYAAggggIB3BfI+wCotLZVZvL27zQRS5kmEHR0dGVWYACsjJut3IsCyvsR0EAEEELBagADL6vLSOQQQQAABBDwrkPcBVi4rR4CVS838PRcBVv7WjpYjgAACCEgEWIwCBBBAAAEEELBRgAArraoEWDYO8ez7RICVvRlHIIAAAgi4R4AAyz21oCUIIIAAAgggkDsBAiwCrNyNJkvORIBlSSHpBgIIIOBRAQIsjxaebiOAAAIIIGC5AAEWAZblQzz77hFgZW/GEQgggAAC7hEgwHJPLWgJAggggAACCOROgACLACt3o8mSMxFgWVJIuoEAAgh4VIAAy6OFp9sIIIAAAghYLkCARYBl+RDPvnsEWNmbcQQCCCCAgHsECLDcUwtaggACCCCAAAK5EyDAIsDK3Wiy5EwEWJYUkm4ggAACHhUgwPJo4ek2AggggAAClgsQYBFgWT7Es+8eAVb2ZhyBAAIIIOAeAQIs99SCliCAAAIIIIBA7gRcG2DNmDEjkbtuZnamRCJ5yYceekg1NTVdB6XeN2+kXqd/Nq+7+zoejzvnMJ9T+6Re19fXKxgMZtYw9hpSAQKsIeXmYggggAACORYgwMoxKKdDAAEEEEAAAVcIuDbAmjp16rAFWA0NDaqtrSXAcsUQHfpGEGANvTlXRAABBBDInQABVu4sORMCCCCAAAIIuEeAACutFqlZVARY7hmgw9ESAqzhUOeaCCCAAAK5EiDAypUk50EAAQQQQAABNwkQYBFguWk8uqItBFiuKAONQAABBBDopwABVj/hOAwBBBBAAAEEXC1AgEWA5eoBOhyNI8AaDnWuiQACCCCQKwECrFxJch4EEEAAAQQQcJMAARYBlpvGoyvaQoDlijLQCAQQQACBfgoQYPUTjsMQQAABBBBAwNUCBFgEWK4eoMPROAKs4VDnmggggAACuRIgwMqVJOdBAAEEEEAAATcJEGARYLlpPLqiLQRYrigDjUAAAQQQ6KcAAVY/4TgMAQQQQAABBFwtQIBFgOXqATocjSPAGg51rokAAgggkCsBAqxcSXIeBBBAAAEEEHCTgJUBViAQUCwWy9o5kUg4xzQ0NKi2trbr+NT75o3U6/TP5nV3X8fjcecc5nNqn9Tr+vp6BYPBrNvIAYMvQIA1+MZcAQEEEEBg8AQIsAbPljMjgAACCCCAwPAJWBNgmdDKfEyfPl0nnXSSHn30Ub311ltOkJVpmEWANXwD0U1XJsByUzVoCwIIIIBAtgIEWNmKsT8CCCCAAAII5IOANQHW7NmzVVdXp/Lycq1bt06jR49Wc3Oztm7dqrvuukvRaLTPehBg9UnkiR0IsDxRZjqJAAIIWCtAgGVtaekYAggggAACnhawJsC65pprNGLEiN2K2dbWphtuuEFNTU19FpoAq08iT+xAgOWJMtNJBBBAwFoBAixrS0vHEEAAAQQQ8LSAVQHW4sWLNWXKFD377LPObYPjxo3ToYceSoDl6SGefecJsLI34wgEEEAAAfcIEGC5pxa0BAEEEEAAAQRyJ2BVgFVYWCjzEQ6HnUXTU4ukMwMrdwPGC2ciwPJClekjAgggYK8AAZa9taVnCCCAAAIIeFnAqgBr0aJF2muvvfTII484a15NnDhRxxxzDDOwvDzC+9F3Aqx+oHEIAggggIBrBAiwXFMKGoIAAggggAACORSwKsAqKSlxZl35fD5nBpb5bGZjMQMrhyPGA6ciwPJAkekiAgggYLEAAZbFxaVrCCCAAAIIeFjAqgBr6dKlzqyrl156yZmBNWbMGM2aNYsAy8MDvD9dJ8DqjxrHIIAAAgi4RYAAyy2VoB0IIIAAAgggkEsBawKsr3zlKxo5cuRuNq2trU6A1dzc3KcbTyHsk8gTOxBgeaLMdBIBBBCwVoAAy9rS0jEEEEAAAQQ8LWBNgDVp0iRVV1fvVszGxkaZmVmpcKq3ahNgefp7oavzBFiMAwQQQACBfBYgwMrn6tF2BBBAAAEEEOhJwJoAKxclJsDKhWL+n4MAK/9rSA8QQAABLwsQYHm5+vQdAQQQQAABewUIsNJqS4Bl70DPpmcEWNlosS8CCCCAgNsECLDcVhHagwACCCCAAAK5ECDAIsDKxTiy6hwEWFaVk84ggAACnhMgwPJcyekwAggggAACnhAgwCLA8sRAz6aTBFjZaLEvAggggIDbBAg/V0+dAAAgAElEQVSw3FYR2oMAAggggAACuRAgwCLAysU4suocBFhWlZPOIIAAAp4TIMDyXMnpMAIIIIAAAp4QIMAiwPLEQM+mkwRY2WixLwIIIICA2wQIsNxWEdqDAAIIIIAAArkQIMAiwMrFOLLqHARYVpWTziCAAAKeEyDA8lzJ6TACCCCAAAKeECDAIsDyxEDPppMEWNlosS8CCCCAgNsECLDcVhHagwACCCCAAAK5ECDAIsDKxTiy6hwEWFaVk84ggAACnhMgwPJcyekwAggggAACnhAgwCLA8sRAz6aTBFjZaLEvAggggIDbBAiw3FYR2oMAAggggAACuRAgwCLAysU4suocBFhWlZPOIIAAAp4TIMDyXMnpMAIIIIAAAp4QIMAiwPLEQM+mkwRY2WixLwIIIICA2wQIsNxWEdqDAAIIIIAAArkQIMAiwMrFOLLqHARYVpWTziCAAAKeEyDA8lzJ6TACCCCAAAKeECDAIsDyxEDPppMEWNlosS8CCCCAgNsECLDcVhHagwACCCCAAAK5ECDAIsDKxTiy6hwEWFaVk84ggAACnhMgwPJcyekwAggggAACnhAgwCLA8sRAz6aTBFjZaLEvAggggIDbBAiw3FYR2oMAAggggAACuRAgwCLAysU4suocBFhWlZPOIIAAAp4TIMDyXMnpMAIIIIAAAp4QIMAiwPLEQM+mkwRY2WixLwIIIICA2wQIsNxWEdqDAAIIIIAAArkQIMAiwMrFOLLqHARYVpWTziCAAAKeEyDA8lzJ6TACCCCAAAKeEHBtgDV9+vTEUFcgkUhecu7cuaqpqem6fOp980bqdfpn87q7r+PxuHMO8zm1T+p1fX29gsHgUHeR62UgQICVARK7IIAAAgi4VoAAy7WloWEIIIAAAgggMAAB1wZYU6dOHbYAq6GhQbW1tQRYAxhY+XwoAVY+V4+2I4AAAggQYDEGEEAAAQQQQMBGAQKstKqmZlERYNk41DPvEwFW5lbsiQACCCDgPgECLPfVhBYhgAACCCCAwMAFCLAIsAY+iiw7AwGWZQWlOwgggIDHBAiwPFZwuosAAggggIBHBAiwCLA8MtQz7yYBVuZW7IkAAggg4D4BAiz31YQWIYAAAggggMDABQiwCLAGPoosOwMBlmUFpTsIIICAxwQIsDxWcLqLAAIIIICARwQIsAiwPDLUM+8mAVbmVuyJAAIIIOA+AQIs99WEFiGAAAIIIIDAwAUIsAiwBj6KLDsDAZZlBaU7CCCAgMcECLA8VnC6iwACCCCAgEcECLAIsDwy1DPvJgFW5lbsiQACCCDgPgECLPfVhBYhgAACCCCAwMAFCLAIsAY+iiw7AwGWZQWlOwgggIDHBAiwPFZwuosAAggggIBHBPI+wCouLtYRRxyhYDC4W8mWL1+uJUuWZFzKRCLh7NvQ0KDa2tqu41LvmzdSr9M/m9fdfR2Px51zmM+pfVKv6+vru21zxo1lx0ETIMAaNFpOjAACCCAwBAIEWEOAzCUQQAABBBBAYMgF8j7Aqqqq0qWXXqqioqLd8F577TXNnz8/Y1QCrIyprN6RAMvq8tI5BBBAwHoBAizrS0wHEUAAAQQQ8KRA3gdYgUBAU6dOlfm86xaLxWQ+Nm3apG3btvVZYAKsPok8sQMBlifKTCcRQAABawUIsKwtLR1DAAEEEEDA0wJ5H2CNGDFCn/rUp7qdgZWq7CuvvKLHHnusz0ITYPVJ5IkdCLA8UWY6iQACCFgrQIBlbWnpGAIIIIAAAp4WyPsAy+/3a/To0d2uJ2XWm9qwYYMzCyu1HlVv1SbA8vT3QlfnCbAYBwgggAAC+SxAgJXP1aPtCCCAAAIIINCTQN4HWGYG1mc/+9keZ2DdfPPNWrNmTUYjgAArIybrdyLAsr7EdBABBBCwWoAAy+ry0jkEEEAAAQQ8K5D3AZZZ+2rSpEndroGVXtWVK1eqvb2910ITYHn2+2CnjhNgMQ4QQAABBPJZgAArn6tH2xFAAAEEEECgJ4G8D7DMDKzPf/7zCoVCvVb59ttv15IlSwiw+F7oU4AAq08idkAAAQQQcLEAAZaLi0PTEEAAAQQQQKDfAnkfYPW7590cyAysXGrm77kIsPK3drQcAQQQQEAiwGIUIIAAAggggICNAgRYaVUlwLJxiGffJwKs7M04AgEEEEDAPQIEWO6pBS1BAAEEEEAAgdwJEGARYOVuNFlyJgIsSwpJNxBAAAGPChBgebTwdBsBBBBAAAHLBQiwCLAsH+LZd48AK3szjkAAAQQQcI8AAZZ7akFLEEAAAQQQQCB3AgRYBFi5G02WnIkAy5JC0g0EEEDAowIEWB4tPN1GAAEEEEDAcgECLAIsy4d49t0jwMrejCMQQAABBNwjQIDlnlrQEgQQQAABBBDInQABFgFW7kaTJWciwLKkkHQDAQQQ8KgAAZZHC0+3EUAAAQQQsFyAAIsAy/Ihnn33CLCyN+MIBBBAAAH3CBBguacWtAQBBBBAAAEEcidAgEWAlbvRZMmZCLAsKSTdQAABBDwqQIDl0cLTbQQQQAABBCwXIMAiwLJ8iGffPQKs7M04AgEEEEDAPQIEWO6pBS1BAAEEEEAAgdwJuDbA2meffRK562ZmZ0okkpecM2eOampqug5KvW/eSL1O/2xed/d1PB53zmE+p/ZJva6vr1cwGMysYew1pAIEWEPKzcUQQAABBHIsQICVY1BOhwACCCCAAAKuEHBtgDV16tRhC7AaGhpUW1tLgOWKITr0jSDAGnpzrogAAgggkDsBAqzcWXImBBBAAAEEEHCPAAFWWi1Ss6gIsNwzQIejJQRYw6HONRFAAAEEciVAgJUrSc6DAAIIIIAAAm4SIMAiwHLTeHRFWwiwXFEGGoEAAggg0E8BAqx+wnEYAggggAACCLhagACLAMvVA3Q4GkeANRzqXBMBBBBAIFcCBFi5kuQ8CCCAAAIIIOAmAQIsAiw3jUdXtIUAyxVloBEIIIAAAv0UIMDqJxyHIYAAAggggICrBQiwCLBcPUCHo3EEWMOhzjURQAABBHIlQICVK0nOgwACCCCAAAJuEiDAIsBy03h0RVsIsFxRBhqBAAIIINBPAQKsfsJxGAIIIIAAAgi4WoAAiwDL1QN0OBpHgDUc6lwTAQQQQCBXAgRYuZLkPAgggAACCCDgJgECLAIsN41HV7SFAMsVZaARCCCAAAL9FCDA6icchyGAAAIIIICAqwWsCLBGjhyp+vp6+f1+HXXUUaqpqVEikdDTTz+tbdu2aevWrVq6dGmfhTDHmK2hoUG1tbVd+6feN2+kXqd/Nq+7+zoejzvnMJ9T+6Rem/YGg8E+28QOQy9AgDX05lwRAQQQQCB3AgRYubPkTAgggAACCCDgHgErAqx9991XJ5xwQo+qJpCYN29en+oEWH0SeWIHAixPlJlOIoAAAtYKEGBZW1o6hgACCCCAgKcFrAiwTAWPPfZYVVdX71ZMM+PpmWeecWZh9bURYPUl5I0/J8DyRp3pJQIIIGCrAAGWrZWlXwgggAACCHhbwJoA64orrui67a+9vV2VlZXO7YMVFRW65ZZbtGrVqj4rTYDVJ5EndiDA8kSZ6SQCCCBgrQABlrWlpWMIIIAAAgh4WsCqAKujo0NFRUVavny5Dj74YL388ss68sgjCbA8PcSz7zwBVvZmHIEAAggg4B4BAiz31IKWIIAAAggggEDuBKwKsMLhsEKhEAFW7saHJ89EgOXJstNpBBBAwBoBAixrSklHEEAAAQQQQCBNgAArDYNbCPneMAIEWIwDBBBAAIF8FiDAyufq0XYEEEAAAQQQ6EnAqgArFovJdMisdzVr1iwtXLhQhx56KLcQMv6zEjABlpnJx4YAAoMjYG71NjNm2RBAYHAEtmzZov3337/r5Klf0HV3tdSfLViwQJFIRD6fz/nw+/3OR/rX5njznjkm9b55z7w2W+pcM2fOzKpj5rrmgw0BBBBAAAEEEOhNwJoA6xOf+IT22GOP3fpq1sX63e9+p3Xr1vU5EpiB1SeRJ3ZgBpYnykwnEUAAAWsFmIFlbWnpGAIIIIAAAp4WsCbAqqqqUnl5+W7FNLOyTHgVj8f7LDQBVp9EntiBAMsTZaaTCCCAgLUCBFjWlpaOIYAAAggg4GkBawKsXFSRACsXivl/DgKs/K8hPUAAAQSGQsD8cmzZitXatr1RE8aP0aiakc5lzdft7WGNGV27UzOWrVilSXXjFe7o0HtLV6g9HNbECWNVWzNS4XCHXl/8lnM7Xm1NtSZOGKd1GzZqxao1KggENX7cGI2qHalINKp33n3fObZu/Dhn3103AqyhqD7XQAABBBBAAIGhFiDAShMnwBrq4efO6xFgubMutAoBBBBwm0BTU7Oefv5lTamfpDvufUjf+8YXFCoq0vqNm/TCy6/q7NNP1MOPPqmJdeN1wL7Tddd9c3TB7DP0m9/fqcmTJqh+Yp3mPvqErr7iMjU1N+u+Bxt0wezTnfc+fOzRWvT6YlVVVWjcmNH689y/6pILPqrX/rVYrW1t+sABM+QPBJxAjADLbSOD9iCAAAIIIIDAYAgQYBFgDca4yutzEmDldfloPAIIIDDkAmZG1Q9+9mtd+9WrVBwKOYuZ337PQ/rYuWfoj3c/qIA/oI9fdLb+dP9cnXHKCU6oddG5ZzjtfPW117X4rXf14WOP0px583XF5Rfpr08+p2AgoNbWVk2YME4H7j9DS5et0D1/nqf9ZuwlJaSTP3KMs093GzOwhnwIcEEEEEAAAQQQGAIBAiwCrCEYZvl1CQKs/KoXrUUAAQSGU8CEVY/Mf8a5ffDgA3c8+e/2ex7UR087Ua++9obWr9+o004+TvP++pROOOZILfznGzrx+KOdZi9fuVp3P/CwLvvYbP34F/+r8rIyxeIxfeurn9OTz77QFWA1NjXr+z/9lX70nWv02FPP6V9vLHFma02ZPHG37hNgDeeI4NoIIIAAAgggMFgCBFgEWIM1tvL2vARYeVs6Go4AAggMucBTz70on3w69oOH73Tt++c8ojGjajVu7Ght3LRZTc0tKikO6YD99tF9DzXo8ovPdfZ/4eWFWr9xs4449EA9+PBjuvxj5+qheY/pwnPO0NxH5ncFWG8sfktPPPuivnjlJ5zjTKD10MOP6eMXzSbAGvKqc0EEEEAAAQQQGA4BAiwCrOEYd66+JgGWq8tD4xBAAAHXCLS0tjmzok4/6XgFC4Lab5+9VFpS7LRvwauL9NC8x/Xt//yctm9v0s9+9Vtdc/V/OKHWXxrmq7WtXZWV5Vqzdr0TQm3dtr3rFsIX/v6qswh8e3u7tmzdrpqaaq1YuVrnnHmy3nlvmZqbW9Ta3u4s+G6uvevGDCzXDBEaggACCCCAAAI5FCDAIsDK4XCy41QEWHbUkV4ggAACgy1gbh8061+ZNanMVlhYKL/f57w2TyiMRKIqKip01sQy+xUVFjqhk/m6IxJRIp5QQUFQgUDAec88YbCwoMA5NhqNye/3KxqNSj4pGAw6a16Z96OxqDPryxxr9iHAGuxKc34EEEAAAQQQcIMAARYBlhvGoavaQIDlqnLQGAQQQACBLAWYgZUlGLsjgAACCCCAQF4IuDbA2nfffTt/nzl0jua3n2Z78MEHVVNT03Xh1PvmjdTr9M/mdXdfm9+gms18Tu2Tel1fX+/8NpXNfQImwKqrq3Nfw2gRAggggAACGQi89dZb2n//HQvKp/8cs+vhqT9bsGCBIpGIM0PMfJiZXeYj/WtzrHnPHJN637xnXqf/jDRz5swMWrljF3Nd88GGAAIIIIAAAgj0JuDaAGvq1KnDFmA1NDSotraWAMuj3zttbW3JWzbYEEAAAQQQyEMBEyiVlZV1+3MMAVYeFpQmI4AAAggggIAjQICVNhBSv4UkwOK7AwEEEEAAAQRsEWAGli2VpB8IIIAAAgh4W4AAiwDL298B9B4BBBBAAAHLBQiwLC8w3UMAAQQQQMAjAgRYBFgeGep0EwEEEEAAAW8KEGB5s+70GgEEEEAAAdsECLAIsGwb0/QHAQQQQAABBLr5+aY7FBZxZ6gggAACCCCAQL4IEGARYOXLWKWdCCCAAAIIINAPAWZg9QONQxBAAAEEEEDAdQIEWARYrhuUNAgBBBBAAAEEcidAgJU7S86EAAIIIIAAAsMnQIBFgDV8o48rI4AAAggggMCgCxBgDToxF0AAAQQQQACBIRAgwCLAGoJhxiUQQAABBBBAYLgECLCGS57rIoAAAggggEAuBQiwCLByOZ44FwIIIIAAAgi4TIAAy2UFoTkIIIAAAggg0C8BAiwCrH4NHA5CAAEEEEAAgfwQIMDKjzrRSgQQQAABBBDoXYAAiwCL7xEEEEAAAQQQsFiAAMvi4tI1BBBAAAEEPCTguQCrvLJKZ170SQWCQc3/y31as+L9rnKnfsBraGhQbW3tbu+bN1L7pH82r7v7Oh6PO+cwn1P7pF7X19crGAx6aKjRVQQQQAABBBAYDgECrOFQ55oIIIAAAgggkGsB6wMsn8+nuslTtce0vbXXjJkaOXqMwh0RxeMJFRUWqHHbFr235N96e/G/tOydJYrHYyLAyvUwy6/zbemI64LnVuvJzXHFE4lhaXyhL6FP14d03UFjFAr4nDbcsXS7rnhli1oTfhOlDku7Uhftrn3D2iAujgACCCDQowABFoMDAQQQQAABBGwQsDLA8vv9Ki2v0KSpe+nYk85U1YhqxeJxNba0qaWlTbF4TNGYCSfiKi4qUnVluUJFhWppbtJz8x/RD7/1NY0cWd1V3/Qf/JiBZcOw770PH39+rW5fF5cKioa1s4G2Zj36wVp9eFyp046K+95XU1H5sLYp/eK7ts81DaMhCCCAAAI7CRBgMSAQQAABBBBAwAYBqwIsvz+gmYccoRkzD9bYCXUKFhSpLdyh9o4ORSJRRWMxJ8iKmfDKfO58bT4H/H5nRtaokVU6+9hDFCoqIMCyYYT3ow9nPLFcD7ckQ6Nh3eIxPXxQiU6rS4ZWvrvfl0rcE2Bpl/YNqxUXRwABBBDoUYAAi8GBAAIIIIAAAjYIWBNgHXDQ4TrxrPNVGAopGo2pvTO4coKqWGdY1UN4FUsLtszsrK9fPlsVpcUEWDaM8H704Yz5y/VwqzsCrLkHFev0ugrXBljp7esHNYcggAACCAyBAAHWECBzCQQQQAABBBAYdAFrAqwjjjtJx5/6UW1vanFmV5nZVhmHV4mE4jFzTNQJu6799DmqKC0hwBr04efOCxBgZViXeEwEWBlasRsCCCAwjAIEWMOIz6URQAABBBBAIGcC1gRYBx3xIZ08+yJt3d60U3gVT0iz9t5DFWUlaU8CTD410HyYRbrN5/aOiB792ytqaw/rO/9xnrN/amMNrJyNt7w4EQFWhmUiwMoQit0QQACB4RUgwBpef66OAAIIIIAAArkRsCbA2nfWITr74k9q07ZGRaPJmVRmbSvz/LZLzjxBdWNqtHTlWr3x7nLnCYTJ8MqshZVQcahIxxy8n755wx+0vblV37vifFUSYOVmhOXhWQiwMiwaAVaGUOyGAAIIDK8AAdbw+nN1BBBAAAEEEMiNgDUB1vhJe+iTV39NG7dsU0ckmlygvTPAuuysD6tubK2ee/UNzX3qZTlrXnXeNmjWvKoqL9O1n7lAX7v+VjU2t+j7n72IACs34ysvz0KAlWHZCLAyhGI3BBBAYHgFCLCG15+rI4AAAggggEBuBKwJsIpLS3XN96/Xhi3bnAXcU08Y9Pmky88+UTf96eHO93YOr8xMrREVZfr2lRfpmuv+z1lD678/fzEBVm7GV16epa8Aq8An/X5WuaoLfWqLJfTC5qhuWNqW+77uEhD19RTCPUsD+vE+pQr4pPZ4Qte+2apPTCzSr95r18aO+KC3L/cX4IwIIIAAArkQIMDKhSLnQAABBBBAAIHhFrAmwDKQ377uN9qwpVGt7e3OLYRmEXdzD+GnZp+k3z/4mE45+mAVFAQlc+tgQl3rYD3y3EJ99ROz9ZWf3+IEWD+5+hJVlu94Ch1rYA33MB3a6/cVYI0P+bXwQ1Wqn79FEWccSYnBaGKWAdaP9ynR7SvCeqsl5rTGtOv7e5cQYA1GbTgnAgggkEcCBFh5VCyaigACCCCAAAI9ClgVYH35+79QS3tETS1tyScQmgBL0mfOO0X/e/c87TOlTj6/3/kzZw2sePJja1OTrjz/NH3xJzc7AdbPvvRxVRFgefbbpq8Aq9AvzT+iUk9sjOipjR16eWtU5r0r64tV5Pdpaplft68M64CKoNaH47p3dVhnjS1Uoc/nzNoyM6U2RxKqK/brC683q8fJUVkGWLcdWKavvNGiLR074rTvTy/Rr5a2OzPF7vpAuV5rjKqqwKc3GmNa0RbTZRNDem1b1GnPnSvDzoyt/rbPswOGjiOAAAIuFyDAcnmBaB4CCCCAAAIIZCRgVYD1sc98SSNGj9emrdu7biE0M7CuPP9U/fa+R/SBfafJ7/MpEU/I3FpYXVmuIw/cRwXBoCLRmG657xE98fI/9YuvfIIAK6PhY+dOfQVYptdBn3Ta6EJdPimkllhCF7/apLEhv4I+nw4ZEdSEkF9z13Xo7oPKdehz23TdjFL94K1W/Xq/Mn17SasD99MZJbr8n81qjvYwfyvLAOuPB5brS280dxtgTS7x6+f7luqY57c7wdnDh1Xo2sWtmj2uSL94t1Xrwglt6YjrjgPL+90+O0cDvUIAAQTyX4AAK/9rSA8QQAABBBBAQLIqwDru1Nna9+AjtHbjlp2eQvjZi07X7+5/VCcd9QEFAgFn9lV5aYkO2Gty1xgw7/3lyZd065zHdcM1nyTA8vB3RyYBVoqnPOjTuyeM0PkLm/StaSX6r7dadUBlUCG/9It323TnB8p143tt+uqexbpwYZMTaN30frtz+KZwXIubYj3ffphlgHXDvqW6/r02rWjbsd5VagbWHqV+/WSfUh33wnZNKPbrkcMqNOuZbZpWFtCkYr/OGVeka/7dot/OLOt3+zw8ZOg6Aggg4GoBAixXl4fGIYAAAggggECGAlYFWPsffISOP/08LV+zvmvBdp/fp89fdIZuuGOOJoypcRYr8vl8uuCUD6msJKT2cESjqqv07MJ/ac6TL+rM4w7XtLoxKgkV7hRupb5I/RCY/tm87u5rZw0uqeuWxeRti8nbF+vr6xUMBjMsE7sNpUBfAZbfJ10wvlClAZ9GFvp1XG2hvvJGs27Yt0w3vNemY2oKtDYc13XvtungqqD+a3qpblvRrvvXhPXFKcWqLfTrjcaotkQSemJjh2I9LaCVZYB1ZHWBrtmzWE9vjKg1ltAjGzp03v+fYWVCtjtXtuvWWeW6e3VYY4r8aokmdOeqsI4eWaACv3TiqEJn9taldaF+t28oa8S1EEAAAQQyFyDAytyKPRFAAAEEEEDAvQJWBVjllVW68us/1Fvvr1QslnzaoF8+XX3Jmfrp/92nQMCsf5VQQUFA137mQq3dsEW/vP0hHTlrHz336hv6+Vc+6QRfAcUVKiwgwHLvuB3UlvUVYJmLVwR9MkGWyZ7M+lKRuFQa9Jk7Vp3X5v2wuVXV7FvgU1M04Tw4wDwh0ARf5hbWaFzO7Yc9blkGWOZaJQGfgv7kGc2tieZlSdDnvDa3PYYCPmdx9+ZY8s+62pyQWs3+A2jfoBaFkyOAAAII9FuAAKvfdByIAAIIIIAAAi4SsCrAKi2v0NXX/livv/O+E17FY3EnKPjipR91biGMOYu2x+X3+3TVhadr4rhRevaV1/Xo317R1RefqfGjRurNpStVVhR0ZmelNp5C6KIROwRNySTAGoJmSFkGWEPSpvSL7NK+Ib8+F0QAAQQQyEiAACsjJnZCAAEEEEAAAZcLWBVglZSW6fPX/kj/XrpSkUhUsXhMks95CuGkcaN2lMLc8ieprKRYhQU7buNrD3foF3/8sy74yJEaUVFGgOXywTtYzSPAylCWACtDKHZDAAEEhleAAGt4/bk6AggggAACCORGwKoAK1Rcos9+7ft6f90mNbW0Ogu5mxlXzlpTPjOhJe7cImjeM5/rxo7SmcceproxtVq3eavumveU/vXW+/rNtVcQYOVmfOXlWQiwMiwbAVaGUOyGAAIIDK8AAdbw+nN1BBBAAAEEEMiNgFUBViAY1Pmf/JzGTJisZWvWaev2JnVEY4rHY11PJTShlgmvuoKszq8Np/kBzyzw/r/fNAFWaZcwtxDmZrDly1nOeGK5Hm7ZUf9ha3c8pocPKtFpdeVOE3x3vy+VJF+7Ytulfa5oE41AAAEEENhNgACLQYEAAggggAACNghYFWCZggQLCjXzsKN10hnnqLGlTf96e6la29o7n0rYc3hljg34/TrsgOn61FknKFTEIu42DPD+9OGyF9bqj6ujUlFxfw7P2TGBtib99YOjdMK4ZJhWce9SNYUqcnb+gZ5o1/YN9HwcjwACCCAwOAIEWIPjylkRQAABBBBAYGgFrAuwUnzVo8bqwMOO1kFHfFDrN2/TuyvWaFtTc7czr4pDRdpz4nhNqRurt/+9SJ+//EJVVuwICpiBNbSDcrivtqUjrk++sFZz13UoPkyNKfJJX5lWqu/MrFWReTSgpPuWNeqTf9+k5njy6+HcumvfcLaHayOAAAII9CxAgMXoQAABBBBAAAEbBKwNsFLFKSwK6fzLr9K4ifV6e/kavbdyjdrCYeeWwmAgoPGjajRr7ylqadymv9x7u9Yuf08NDQ2qra3tqi8Blg1DnT4ggAACCCDgTQECLG/WnV4jgAACCCBgm4D1AZYpmN8f0PhJU3TsqbNVO2aMFi9doY5IRDP2mKREIq75f7lH7735hjrC7U59CbBsG+b0BwEEEEAAAe8KEGB5t/b0HAEEEEAAAZsEPBFgpRfsgMM+pIMPP1qhkhL9a+Hf9cITDYrFos4uqR/wCLBsGorn2QsAACAASURBVOL0BQEEEEAAAW8LEGB5u/70HgEEEEAAAVsEPBdgmcKZpxX6/X5FOjp2qiMBli3Dmn4ggAACCCCAQEqAAIuxgAACCCCAAAI2CHgywOqpcARYNgxp+oAAAggggAAC6QIEWIwHBBBAAAEEELBBgAArrYoEWDYMafqAAAIIIIAAAgRYjAEEEEAAAQQQsE2AAIsAy7YxTX8QQAABBBBAoJufb7pDSf3ybsGCBYpEIvL5fM6HWWrBfKR/bY4375ljUu+b98xrs6XONXPmzKz8zXXNBxsCCCCAAAIIINCbAAEWARbfIQgggAACCCBgsQC3EFpcXLqGAAIIIICAhwQIsAiwPDTc6SoCCCCAAALeEyDA8l7N6TECCCCAAAI2ChBgEWDZOK7pEwIIIIAAAgh0ChBgMRQQQAABBBBAwAYBAiwCLBvGMX1AAAEEEEAAgR4ECLAYGggggAACCCBggwABFgGWDeOYPiCAAAIIIIAAARZjAAEEEEAAAQQsFiDAIsCyeHjTNQQQQAABBBBgBhZjAAEEEEAAAQRsECDAIsCyYRzTBwQQQAABBBDoQYAAi6GBAAIIIIAAAjYIEGARYNkwjukDAggggAACCBBgMQYQQAABBBBAwGIBAiwCLIuHN11DAAEEEEAAAWZgMQYQQAABBBBAwAYBAiwCLBvGMX1AAAEEEEAAgR4ECLAYGggggAACCCBggwABFgGWDeOYPiCAAAIIIIAAARZjAAEEEEAAAQQsFiDAIsCyeHjTNQQQQAABBBBgBhZjAAEEEEAAAQRsECDAIsCyYRzTBwQQQAABBBDoQYAAi6GBAAIIIIAAAjYIEGARYNkwjukDAggggAACCBBgMQYQQAABBBBAwGIBAiwCLIuHN11DAAEEEEAAAWZgMQYQQAABBBBAwAYBAiwCLBvGMX1AAAEEEEAAgR4ECLAYGggggAACCCBggwABFgGWDeOYPiCAAAIIIIAAARZjAAEEEEAAAQQsFiDAIsCyeHjTNQQQQAABBBBgBhZjAAEEEEAAAQRsECDAIsCyYRzTBwQQQAABBBDoQYAAi6GBAAIIIIAAAjYIEGARYNkwjukDAggggAACCBBgMQYQQAABBBBAwGIBAiwCLIuHN11DAAEEEEAAAWZgMQYQQAABBBBAwAYBAiwCLBvGMX1AAAEEEEAAgR4ECLAYGggggAACCCBggwABFgGWDeOYPiCAAAIIIIAAARZjAAEEEEAAAQQsFiDAIsCyeHjTNQQQQAABBBBgBhZjAAEEEEAAAQRsECDAIsCyYRzTBwQQQAABBBDoQYAAi6GBAAIIIIAAAjYIEGARYNkwjukDAggggAACCBBgMQYQQAABBBBAwGIBAiwCLIuHN11DAAEEEEAAAWZgMQYQQAABBBBAwAYBAiwCLBvGMX1AAAEEEEAAgR4ECLAYGggggAACCCBggwABFgGWDeOYPiCAAAIIIIAAARZjAAEEEEAAAQQsFiDAIsCyeHjTNQQQQAABBBBgBhZjAAEEEEAAAQRsECDAyqMAKxqNqqOjQ739IGrDoKQPCCCAAAIIINA/gUAgoFAotNPBBFj9s+QoBBBAAAEEEHCXAAFWngRY8Xhca9ascQIsNgQQQAABBBBAoDsBn8+n6upqVVZWdv0xARZjBQEEEEAAAQRsECDAypMAKxaLafny5TaMOfqAAAIIIIAAAoMoYH64q6urI8AaRGNOjQACCCCAAAJDL0CAlcMAy/yGM/3DzJrq7j3z/uTJkxUMBjOquPltqrl9cMWKFRntz04IIIAAAggg4F0BcxvhpEmTCLC8OwToOQIIIIAAAlYKEGD1M8AyIZT5MDOjYrHka7MlzP91BlnOe4mE4mnBlhNqxeOqr69XIIMAy4RXSkixWFQrV66U3+/v+rByRNIpBBBAAAEEEBiQAAHWgPg4GAEEEEAAAQRcKkCA1Y8AywRUZkZUNBpTeziijkjECalMWJX8ZD7HO99TV7gVTyTDK7PvxLqJMj9g9rn5knvEY3GtW7tKwUBABQVBZ/ZWRsf3eQF2QAABBBBAAAGbBAiwbKomfUEAAQQQQACBlAABVj8CrEgkonA4rBffa9Nf/93hvE7Ip86saefRlUj70uxgEi755PebL3zO/8wMq522Xd4zf2z2ry7x6ewZHaoqLXCeMFRYWOjMxmJDAAEEEEAAAQRSAgRYjAUEEEAAAQQQsFGAACvLAMvcMtjW1q4Vm8P69XNxtbY2K654Z3zVGUrJ3E6YDKp2fPT/vYRz/oQCwQLtWRnR2fvFVBwqUmlpiTMTy7nNkA0BBBBAYMgFFjUn9KnFcW1RwcCv3dYsFZcN/DzpZ4iEpYKi3Jwzl+2LRSV/QMrVv185PJ/5F/WI0oh+u3dAxX38jugHS+O6Y1NAse5/hdWn+xh/RLfs7deM0tz+O06A1Sc9OyCAAAIIIIBAHgoQYGURYJlbA9vDYUUjUd389FYtXpdc+yrh8zm3DSa3zulTO82iGvh7fueH/IRMwWZP26wpo4pVVlbmzMTiVsI8/M6jyQggYIXAjcsi+tX2EWaa7MD7s3WDNGLUwM+TfobWJqmkPDfnzGX7OtqlYEEyxMrFluPz+Tra9eJ+YY0q7D1YmvJiVCqv7n8P4nF9sWqbPj8ps4e6ZHohAqxMpdgPAQQQQAABBPJJgAAriwDLrHvV3NKqhUtbdM9rCUXDHc48q5gScu4I3Ok3sOmBVuoiA3jPBGQ+n3x+vyqLIrpkvxZVV5SprKxURUVF/Z6F1RHv0NK299Qca1F5sFx7hCarwF+YT2OYtiKAAALDJnDjsg79qqkmN9fPZUCUahEBVv9q09Gul/YNa1RRXwFWTCof0b9rdB51dfkmfaE+t//uEmANqCQcjAACCCCAAAIuFSDAyjDAMjOtzOyr1vaIrn+yTWs2t8ssym4252bBXN0GkcFACQSLdOTYLTpisl8V5eUqLi52biXMZjNPS1zc8m89ueVJtcRaug4tD5TruOrjtXfp3j2t6pXNZdgXAQQQsFqAAKuf5c3xjCkNwvkIsJJPPTY/35iP1Jqb5rOZdZ5634yA1M9AqdnoM2fOzGpgmLVFzQcbAggggAACCCDQmwABVgYBlgmvzOyrjo6IHn1tk/76ZkIdseRTB5N3DHYuxj7IY81ZzN1Z+D2h8kLp4/ttVVVluRNiZbug+7ut7+rBjX9WLBHbrdUBX0DnjDpXexTvMcg96vv0hvm3Gwv10LZCRRPS+SMiumJUuO8D2QMBBBAYAgECrH4iD0LglOtbEgmwCLD6Obo5DAEEEEAAAQQGSYAAK4MAy4RXrW1m1lVYv3ymQx3hqKIm+Emt0z5IxenxtAnJHwxq7xFtOmWviCorylRSkvmC7mbG1S2rf6v2eHuPlygOFOsz469Qsb94qHu30/Ue216ge7cW6Cujwwr4Evr5upCOKovqEzUdw9ouLo4AAggYgZ4CLPO7jf0qgqrZ5Ra0TeG4/tW4+y8OHM0sbyGsK/arJZbQlo5dH2WbVps+biGsLPDpwMqgOuLSC1v6mAGTZft6HSEEWF083EIoZ/YVM7D4OxUBBBBAAAEE+hIgwOojwDLT4cPhsPOD1Z0vbdOCZTHFYsmF25MzsHL75KC+Ctb15z6pqKhY5+y5SZNGBlVZUeGshZXJgu7vtL6jBzbc3+elzh99vvYontLnfoO5w3fXhHTOiIj2K07+B98TjUHdtaVQv69v1T2bC/XHzQWKyqc1HX4dXR7VLZNau5oz+71SnT+iQ3/aYtYWSej/6tu0PebTd1YXa1XEJ7Pk8vfHt+vosqgOX1Kur44O6/bNBTJr9n59bFg3ri/Uhohff5jcojEFvfwH4mACcG4EEHC1QE8BVtAnzTm0QqeO3nlto79u6NDJLzV236csAqKppQG9ftwILWmK6pjnt2u7maLa3dZDgHVIVVA/27dUIwp82qssuZD637dGFU9IF7/apNXtyVvkd9oyaN+BlQGdUFuoG5a2OaFYj1uGAVZ1gU+mKa1mOm5vW4bnm1UZ1IZwvPv+pZ+fNbCcWwa5hdDVf/3QOAQQQAABBDwnQICVVvLU2g0NDQ2qra11/iQWi6mtrU3vrmvVb54LK9zRobgSijs38yVv6hvyrTM4M08mHF8a1vn7hVVebhZ0L3OeUtjXelxvNL+hhzfN7bPZZ9aepX1K9+lzv8Hc4YsrS/SNMW0a3RkgLWoL6Cdri3TH5FZ9ZWWxfjShXQEl9IO1IX15dFgjgzv+I+eIJeW6fkKrphfH9d9rinRudUSzSmJqjvtk/nNtTcSv320s1C/q2pwA63O17TqtKqpvrQ45gdUVtWE9sLVAsYRPn+W2xcEsM+dGIG8FeruF8MLxRfrTQTueAGj+djr7742as66HGaQZBEQGakZ5QJ+bXKzSoE+X1BXp6teb9eulPcyo7SHAqin064tTQqoo2PmXMMta4rrp/XaFTZK165ZB+368T4m+vmeJJs/fomWtvSRYGQROR40s0F0fKHcCpzP/3qg13YVqqTZmcD6z64aTR+rFzRGdtaCHEDHtfNxCSICVt38x0XAEEEAAAQQsFSDA6iXAMmtfmdlXjS3tuuGpNq3ZHlE82nnrx3DOwDLLb/kSzvJbwYKQjp+wSbPqClRZkVzQva9ZWO+3LdU96+/pc0hfNOYiTQrV97nfYO7wtVXFurI2rPqi5H8IvdQc1P9uLNQf6lv15VXFOq48KnOHzsPbg/rJ+HaVB3b8R9fp75Tq/imtCvkT+vHakI6tiKrUb25DLFKlP6Fwwidz1v+rb3UCrNsmtThh17WrQ/pgWVQnVkZ175YCJ+j60mjW3RrMOnNuBPJVoLcAq9gvLThmhPYtT85wer81rg89v00r23oIdjIIiMztft+dXqKJxX7nVsQlTTFd926rIj1NUOohwCoP+rTwQ1UK+KSSgE+hgE9r2+Na1BjVRQubui9HL+07ZERQ40N+XVxXpLPHFumKRc1O4PTMpoiaupsd1kfg9IGqoOYcUqEJBlHSk5siuuCVRm3q6XbJXs5XHPDpgIqA/rE9qvUnjdQLW6K65NVGTSlNvtddVmcWhR9IgDUu5NehI3Y8XGVzR0LPb4l0ey1uIeQWwnz9+492I4AAAgggMNQCBFi9BFhm7av29na9uGS77v5nXLF41LlrMLn4VWobplsIOy9vcrTasgJdsn+jSkOFqqgod2ZhpZ4W1N2A6kh06H9W/lrheM+hTIm/RFfVfU5BX3ZPN8z1AP7DpkK1xX26snMG1PXri7Q56td/j2/Tf68N6bKRHYomEhpZIJX5d/4vuO4CrLfb/RoTjOuEyqjWR3y6dnWxbiXAynXZOB8CnhHoaxH3ySV+vfKhEWqPJ3Tg01u1obf1qvoIsPYpD+jnM8oU9CWc2/QeXt+hcxc09hxemSr0EWA9uDas+pKgxoV8mrM2rINHFPQrwPrbUZUyM6bSt7ZYQkc/v12vbovuPh56CZxMSPe3oyvVGEnIrNG1PpyQCYTea43piOe2aVt3aV0v5zt/fJH+eGC5vvbvFn1veokTYEXiCR09skCHPbdN77Z0sybZAAOskN+nv3+oUvtXJP8NvfQfTbpjZff/5hJgEWB55i9MOooAAggggMAABQiwegiwqqurFQ53aGtzWNfPb9bG5ogTXqUeHT1A99wc3rmIfIE/oFm1W3XctKDKy5OzsExhe9tWtK/Qgxv+rLZ42267mYXbzxl9riYUTchNOwdwlrURn76+qtiZOeX3yQmzvjuuXRML47pmZbHMfxbVFcadtVY+VRtRTXDHzIbuAqwCJfT7TYWaGkoonkhodcSvX3beQsgMrAEUikMR8KhAbwFWkV/66+GVOqYm+ffx641RnfBio3NLXLdbLwGWCUJumVmmlW0xZ4bT7Svb9enXmp2ns/a69RFg/XmXAOuQfgZYJlybWBzQJyYW6bzxRbrsH81a3R7Ti1ui3a9f1UvgdEBlUD+cXqJvvNmivx1V5QROd6xs19ljC52ZXVuzDLBMCHbjfmW6aEKRc/u4Odz8/f+NN1t109K27g0HGGCZmkwrC+i2WWX63bJ2/aGH8MrsR4BFgOXRvz7pNgIIIIAAAlkLEGB1E2DNmzdPVVVVzpMHH1jYor8tTSge233NkoQS8iV8nbfzDeJMrNQtg91cKxWoBQsK9LG9N2tCdUiVlRUqLCzs81bC5e3L1bBpnsxTCU1f/PKrNFCq02pPV11RXdaDaSgPCMd9umZVyFm/ymx/3V4gs9zK+dV9PEVrKBvJtRBAwHqB3gKs2eOK9MDBO6+BdcbLjZq3Pvs1sB49vELmtr/DRxQ4M6/OWdDYd3hl9PsIsB7qDLDGhnz6y9qwDupngJUq9H/vXaJvTEuugbV8gGtgmXNuPSV5y99pL2/vfSz1cUtioV/600EVTghm1oO/5o0WZ6H5HrccBFiZDn4CLAKsTMcK+yGAAAIIIOB1AQKsbgKsuXPnOjOZ1m5p0S+eDqul1ayRkXAeOJhcP70zrEoklPBJPidgGvyhZK6T3MxFk3cyOtc3QZrPr71rIjprRkzFoZBKSkoyWtDd3Ea4NbpV0UREBb4CjQhWq9C/81OzBr9n/buCmZm1qiO5jpVZ5+q/xoWd2VhsCCCAwFAJ9BRgmbWl7vhAucxC7unb3avCuujV7NaYqgj69K/jRujeVWGNL/br0681qa2bu9667XMPAVZZ0KcFH6xSSUAya0QV+n3aGI7rxa1RXfaP7NqXft3JJQFn5tHTmzpy8hTCp46sdAKsb7/ZMqAAyxxs+vz1PYv1VlNMd68O9x4AEmDxFMKh+kuE6yCAAAIIIIBAxgIEWLsEWGZG00MPzVFpebl+89RmLdkYUCIe6/bWQTNrKRGX81RCM3tp0DYTVJlrmODMpFhOaJUK0XbkWQXBoM7YY5P2GlfiPJUwFAr1OQtr0NrMiRFAAAEPCPQUYJm/oc0aS2NDO//bsKY9pr9t7mZNKGPVwy2E5kGBHxlVqH83RXt/sl933j0EWKZ9h1cHVVecXGA+tb20JaIVA1hkPuOSZ/jUwOE830AWcc+43dxC6FBFIhHngw0BBBBAAAEEEOhNgACrmwDr7nvu1Zq2cv1hQVwdHe0yc3x6WvtqVGVAZx1cq1jCL98gZVhx84ikeEL3Pr9RLZHkQvJds8BS7Y8n5AsEVFkU08cPaFFVRYnKy8qcWwl325fvCQQQQACBnAj0tYh7VhfJ4CmEWZ3P7NxDgJX1ecwBuWwfAVZXCbiFkACrX9+PHIQAAggggIAHBQiw0ooejyeDqnvvu1+3/aNAyzbFnJlPzk1qu4RGTqAlqbo8qMuPHa8j9x6poFllvNtbCTtXW99pgPXxXuftgub2wJZIXPP/uUF3/m2N2juSz0DcNZRKni2hQLBAx0zYrkPrgyorLXUWdA8Gh/dJgh78vqLLCCDgEQECrH4WmgCLACtt6DADq5/fRxyGAAIIIICAxwQIsHYNsCRd/vXf6JWtYxSNRpKLXqXWnErb1wRY5k+KC33a0hzVMftU6upT91BlKChfoPMGP59Zjyk1LSvDRbI6gytzfrPu1sbGsH70wLt6c1WzykuCao8mz73brKrOZvp9fhUX+XTpPltUO6LUWcvLzMLy+wdpepjHvmHoLgIIIJAucOOyiH7VNDI3KLmc4ZRqETOw+lcbswbWfmGNKuz93+4pL8ak8hH9u0bnUV8o36yr63t/cnC2FwgEApo0aVLXYeZnip621J8tWLDAuY3P/HxhPszPDeYj/WtzDvNealZ66meR1OfUuWbOnJlVkwmwsuJiZwQQQAABBDwrQIDVWXonMIonVFA+StMvuknxuE+xhFkld8cPr+k/xqZ+eDtuRoVOPWiMfj3vfa3b1qGPHT1Opx0yRgG/5HdWXU8etSNw6lx9PT0MM/t07ur88JdIqC0S153PrNScBes1o65MV55Ur5sfW65/r04+NalrDaxdQjWzmHswWKC9qhp16vS4KsrLnAXdzSwsbiX07Pc5HUcAgUESuGtdXN9ZHpBKynb696JflyPA6hebc1AuZ3QlEipr366nZ/lV3Ueu9MFXY1odrJD8O68llllHElJrs34wKaaLxuT2l0wEWJlVgL0QQAABBBBAIL8ECLDMw/w6Z1Ml4nGNOeJy1ex7uuKJmBJm7akefvma/C2jT8fvV64vnb6nwtG47nt+te5/cYP2nlCsK0+s18TaYgX85jeZCSUS5nMyekrfnHlcqVlXZiHTWFyLVzTppkfe09aWhC44crTOOHScc55v3rlEb6xqTcZX3bXLuc0xeYniogKdN22zJowMObOwioqKWNA9v743aS0CCOSJwM+Wx/V+U8S55Zwt/wXMA1PMovln1fY9c3ppm3TDsog6Ypk+FnKHj/lF1OTyAv3npNyGV+YKBFj5Pw7pAQIIIIAAAgjsLkCA1RlgmayquHYPTfnoz5WIR82a6T0u3G4YUzOwjt+3XF8+Y09n9pY5prE9qp888I7+8U6TLj5ujD5+3CTFYwn5nSCrK6tKVqJr1pVzQnUkpF8++I7mL9qiD+5bpatPn6Jyc0tiZ1r1zTvf1BurUjOweh7O5odif8CvmqI2XXxA2JmFVVZWJlNsZmHx1wACCCCAAAJ2CxBg2V1feocAAggggIBXBTwfYDmzr8zMpUBQ9Sd9W4Wj9+oKeXp68uCOAMuv4/ct05fPmCYzeyvRmVCZ2VjPvbFZtz2zQlUlQV1+XJ0OnFotv1kQ3uyT+qWuM/kqoWhMmr9ove54erWKC4O67PjxOmxatYLB5HQqZyH5hE/fvONNvb66radJYWljOHmdYEGRTqjbqpnj/aqoKHcWdDc/1LIhgAACCCCAgL0CBFj21paeIYAAAggg4GUBAiwnwEqoZNx+mnjytU6YZRZC7+tGkGS4tSPAMjOwzEMIzYFx53NCzeGYbpy3VE8u2qKPHlajT54wWcWFgeR+kjNja2tzh6578B0tWNqiUz4wQlecuIdKCgPJRVNNdGVmbSUfgigzA+v1VZkEWMnzm6yspkS6bGarSktCziwss6A7s7C8/C1P3xFAAAEEbBcgwLK9wvQPAQQQQAABbwp4PsAywVOguFJTzr1RvmCoK/jpcfGrznHSXYCVnFyVnDGV3BKKxBJavLJZNz2yVNvbEvrkCeP0kQNGO6HZHc+s1AMvrdfE2pCzSPv08WUya2+k1soya2fFnQQrecasAyzztKBAgQ6q2aYT9i5wZmGFQiGeSOjN73V6jQACCCDgEQECLI8Umm4igAACCCDgMQFPB1jOQuw+v0pHT1f9R3+maFuTcxug84S/PtZu7X4GVudBztMHOyOszpfb26K657lVmvfqes2aXKUt26Navb1NZx0ySuceOd6ZdZV6ZmH6DCnzXtx5MqGyuIUwdW2z9lZAI0MRXf6BDlVVljtPJOQ2Qo99l9NdBBBAAAFPCRBgearcdBYBBBBAAAHPCHg+wHKCqGCh9jzvJgVC5Wa1KSV85v/3/lSg3gMsM36SyVXXXKy4uR0wodVbwvrZA2+rIOjXNR+dprEjijpvW9yx704BVtzcktgZYGV1C2EyDjMzsI4atU5HTC1RZWUF62B55lubjiKAAAIIeFWAAMurlaffCCCAAAII2C3g6QDLCZgS5ja9hEpGT9fkU76jqPzObXwmwup8+F+3I6DvAGvnw5zZXuZ/PikajcsfMBGZz0wAc97vadbXQGZgmflgo0sjOnev7aqorFBFObcQ2v3tTO8QQAABBBCQM9N60qRJXRTOzyA9bKk/W7BggSKRSHINTp/PWW7AfKR/bU5h3ks95Cb1C7fU59S5Zs6cmVUZzHXNBxsCCCCAAAIIINCbAAFW5yLuCfk16SPfUPGEA5xEqa+FzrMLsFI3ByZLkfw5MvnD5I7gaud9UkUzC71ntQZW2mkKCsv0kXErNbVWGlk9QqWlpc4i7mwIIIAAAgggYK8AAZa9taVnCCCAAAIIeFmAACsVYCWkgoqx2vPc6yVfwHlCoLOiVQ9rYWUXYO0YYk6+1DkTy5l51cdaW/0NsPyBgOpLmnXy1BZn7auKigoVFRWx/pWXv9vpOwIIIICAJwQIsDxRZjqJAAIIIICA5wQ8H2CZipswyrmVMB7XqAPP16iDLlA8EeucJdV9wtTfACvbEdafWwhNi0OFfs2evEpjqstUVVXlLN5uis2GAAIIIIAAAnYLEGDZXV96hwACCCCAgFcFCLA6AywzAGLxuIKhSk278DdSoCB5r18PU6SGLMDKchF3X8InX0FQ+5Vv1lH1YefWwfLycufWQbNuBRsCCCCAAAII2C1AgGV3fekdAggggAACXhUgwOqsfGoGlsmsrvjW/+jFzeMUjZpZWN1vQxZgSYo79xFK37xjsV5f3W6ek9jjvY0mb6sK+XT2lPUaWVmqqqpKhUIhZl959TucfiOAAAIIeE6AAMtzJafDCCCAAAIIeEKAACutzOYWQhNM3X33PbrnjWK9s6EjeXtharH1tH1TT+A5fka5vnTGNOdJhubphc7Wx7pW2YwsZ8F350mJ0jfvfFNvrG7tpjWd10wkFAwWavaMsA6ZUq6RI0cy+yobbPZFAAEEEEDAQgGeQmhhUekSAggggAACHhQgwNolwDJf3n7HHdoULtNt/wgqEm7relx0+vhIJOLy+fz68H4V+sJpe/a6XtbAx1VCsbj0rbsW61+r2p1AK/0piamF4RXwa2xZTFccUahRNVWqrq5WcXExC7cPvACcAQEEEEAAgbwVIMDK29LRcAQQQAABBBBIEyDASsNILeb+wAMPOE/su/PlVr2+wd95C9/Ot+05Pwz6fBpVFtDZh41RPO08fT1ZMJsR2DkBS7FYTPe9sFHNHTEnUOua7ZV2slBRUJ88MKI9J1Rp5MhqlZWVObcOpodd2VybfRFAAAEEEEAg/wUIsPK/hvQAAQQQQAABBOTkaTNV6QAADsJJREFUG9k+nO7555/vmtRjllkwa4Pv+mEyk9R73b029ubPzZ91+zF16tTkwk9DuKV+wJszZ46zbtS25g5d/1xEjS1ROTcSJnbcG5gKsHwJKe6XfM46VZ03G+bwFkLT/dS1TBvMIu3mFkVf532K5lLO+/6ADhkf0zkfMOteVTlrX5kQzhSIDQEEEEAAAQS8K0CA5d3a03MEEEAAAQRsEiDASqtm6ge8hx9+2Fk7qrGpWfMXt+vJ9wKKRZPrYe10656zQJWZiJVMrJw/d94YhCHiXCq5fHsywEpu5mszG6uwqEBXHRrVpNGVqqmpVmlpqYLBILOvBqEUnBIBBBBAAIF8EiDAyqdq0VYEEEAAAQQQ6EmAAKubAKuhocGZxdTa1qbtjU268dmoNjabgMos8u7cOdjttmvAlbth58yxcuKq1AysZFiWTLLMLKuP7NGiE/avUfWIEU74ZmaQcetg7irAmRBAAAEEEMhXAQKsfK0c7UYAgf/X3p3HxlGeYQB/Znb2vuy1l1zOiXFCTpOEcoSrUESFUAGBKH8UVEqpSlDVQpFaWlGoaKsiVEoLJaWoLVAJIVVFtIK0lIIEBJrYgYQkJIFQcnEZfO/pnWPL963H2Tg+dh3vxN59RrLWnj2+md/MyNbj93uHAhSgAAWKBRhgjRJgiTv4DQwMIJlK4a0DKTy5ww0jN1CogJoii+yFpSqYFVVx8zoNsWhE9r4SjdtF9RUXClCAAhSgAAUowACL5wAFKEABClCAAtUgwABrlAArHo/DMAyk0xn0JZJ49LUcDvcq0E1jsAKrEvMEyz2l8nC7vbhm2QBOWxhCPN4oq688Hg+rr8ql5OspQAEKUIACVSrAAKtKDyx3iwIUoAAFKFBjAgywxgiwxB98uVwOyWQSH3cm8eDrLmRyOvKymfsJrMUavCGimMq4LG7i+rNDiEajqK+rk1MH2bi9xq5i7i4FKEABClBgDAEGWDw9KEABClCAAhSoBgEGWGMEWOIp0zSRyWSQyWbxzLYkNh3QYJn64LsGkyTHz4TCuH6fB99cq+PkWRE0NjYgFAqVfUtJxzedA1KAAhSgAAUo4KgAAyxHuTkYBShAAQpQgAIVEmCANU6AdaQKK4VPe5J44GUFGcOEZVXwjoOjHew8kFfyUKFAdbmxdmYWV64JoLGhQTad93q9UFW1QqcKP5YCFKAABShAgekowABrOh41bjMFKEABClCAAsMFGGCNE2CJp0UVlmjonkqlsfndPjy9xw3TME/AJMJC5ZWi5DEz7Mb6c1TUR8OycXsgEJBTB3nnQV7kFKAABShAAQoUCzDA4vlAAQpQgAIUoEA1CDDAKiHAsixLhljijoSZrI4Nm3Qc7NZhmdZgQ3fnTgXR90p1BXDpKf04b0kE8cZC43ZRfcXwyrnjwJEoQAEKUKB8gc4BE1s+y8C0rPLfzHeMKyD+Djg54sXSqOeo1zLAGpeOL6AABShAAQpQYBoIMMAqIcASf/iJL1GFlUgmsftwAo+96YNpZGUVloKR7khoN3kvfm7i6/IQUxZF9ZWKGUELt5yrobGxHrH6GPx+Pxu3T4OLjZtIAQpQoJYFunMWFj+9D11aCHmXu5YpKrjvFkIDSez5ykI0BVxD4zDAqiA5P5oCFKAABShAAccEGGCVGGCJl4kqrHQ6Lb+eaktje4do6C6mEo7UzH2y14mgLA+fz4Mb1xhonhNBLFaPcCgsG7ez+sqxa4YDUYACFKDABATu3dWFH+4dANxHVwdN4KP4lrEETBPLXSnsvHwRAyyeKRSgAAUoQAEKVJUAA6wyAizxH0xd19GfSKCjz8CGzW6k00lYsKDkRbxkV1uJ8MqutrKbqh/vOjFd0YWlMyxc9wU/YnX1iNZF5dRB0fuKCwUoQAEKUGAqC/x0WwfuPsTfV04co9mZTnx47RIGWE5gcwwKUIACFKAABRwTYIBVRoAlXiqqsLLZLFKpFN4+nMbWw3nkdFP28xBT/GSZvsixxOORh8HvLYimWeI1fp9/WP+s4vBr+PEXUweBhqCCi5b6cFJdSIZXYuqgOIBcKEABClCAAlNdgAGWc0eIAZZz1hyJAhSgAAUoQAHnBBhglRlgifDJMAzZDyuTyUA0eBePItgS34vnrcGeWXnxswixBtfbvbTE801NTdDGq5xSCt21xPRAVVWhaYWpgqFQcCi84tRB5y4WjkQBClCAAhMXYIA1cbty38kAq1wxvp4CFKAABShAgekgwABrAgGWCKJEYCWmE9pf4mc7oBIfKUOsYcGVDLcsSz43f948uDRtzHOkUJNVqL4SQZWYKqhpGjwej/xehFpcKEABClCAAtNBgAGWc0eJAZZz1hyJAhSgAAUoQAHnBBhgTSDAEm+xwyoRXBWHV/b6kR6HKrQsCwsWLJBhVCmLXWUlHu1qLFZelSLH11CAAhSgwFQRYIDl3JFggOWcNUeiAAUoQAEKUMA5AQZYxxFgFQdZowVW4jUiuLIf7RCr1ACLQZVzFwNHogAFKECBygmUGmDVuxV4VAUdA4XfncVLg0dBr56Had8nBcBI6yqxF2KbPCqQNIoGHzZQSBN9LoFU8QZOwsZsOrcOS0IuNP6zq6RPq3SAZW9E8T/Y7L+JxGNra2tJ22m/yK5mL+tNfDEFKEABClCAAjUnwACr6JDLBuwAnnvuOcTj8aFn7PXFf5zZ64qDK/v5oV5XRcFV8TrxfakBVs2dkdxhClCAAhSoSoFSA6yHVgaxOurGZZv70K0fCYvEtPpnz4xg/VtJHMwUwq2R1lUK75wGN86q13Dfe5lRh/jySR6Y+Txe+EzHLQt9+N3+7KRszoeXxDDbp0L5e2dJn8cAqyQmvogCFKAABShAgWkmwACLAdY0O2W5uRSgAAUoMB0FSgmw4h4Ft50cwKc5C1t6dLzebSDgUrAupkFEVj9ZHMD1byTwWS5/zDo71JrrV3FqWIOmAPvTJvYkTMzzq1gyuM6lAK906Wj0qGgJuZAx8/hvt44Gjwq3Csz0qoi6VbzcmUPOAk6v1xDzqGjyqYi5FTx8IIvT6zS5XX16Hpt7dNhFWQsDLnnzlpleBXctCeD+97Jo69VR51awLKzJsbb0GBCVWqJyTGyD6Gb5Zp8hx0kYebzRa8DKA15VwUVxt9yPP58WRsyj4PIt/fLQ709b2NlvjHoaMMCajlcIt5kCFKAABShAgfEEGGAxwBrvHOHzFKAABShAgeMWKCXAuntxANv6DGztNXDtHC9+9b8MHlgRwgcZEy98msMfTwvjqrZ+3NocOGadHWDN8amIuBU0uBU8dXoEi//TjfYL6nF1Wz8WBVy4YpYHd+5J4/Xz6nB1Wx9WRt2Iago+yJr47YoQvv1WEk1+FR9nLRxMW/hDawg3bkvgkhkeuD6fsvjg+1k0h1RkTWD9YJXVO0lT+nxnkU+GXn/9aAAPLA/h9rdT6MtZeH5dFN/bkcIZMQ1Lwxr+1ZHD/SuC8nO/PteHlVFNVpbd0RLATdsTcprkLJ8KUXlVuKHL0cszH+dwZVshzBppYYB13KcrP4ACFKAABShAgSkowACLAdYUPC25SRSgAAUoUG0C4wVYfpeCXV+swzOf5GSfqctmeLD25V7surAeV2zpx3spc2gK4cazosesswOslRENF5/khkdRcEeLH0tf7JFh1bKXetAcdMnQ6fFDWTyxJoJHD2Yxy6tie5+OfiMvK7fueSeNCxvdWBBQIXKplqCKn72bgT2F8E+HBvC1Jq/s07W6zoWH92fxapd+VID1yIEsfr+qEIY1B1VsPDOKxw4PyGDsk6yF9h5DbuNtu1K4vdmPTV06NvcYuG9ZEL/cl0FXzkLQpchATFRifb/Zj/DnpVh3703Lcdp7DWzsyFUswBJ3OS6+aYz9vRiw+A7I7IFVbVcp94cCFKAABSgwtQUYYDHAmtpnKLeOAhSgAAWqQmC8AGtFRMPPTw3glh1Jub8bVoVw1960rIoS63YnDDx7RgQ3bU/iybWRY9bZAda/z47g1p0pvJ82sf/iGJa/1IM7Fwdw6QwvDmdM3PBmQk4X3NAawrpXeocawl8124OWkIZfvHskwOrM5XFegxs/2J3Cl+IerIq40JGzsCDgwj1707hurldO5xNTEsViV2CJAOuRVSGs35GUUxIfXx3GpZv7oFuAogCXxD1yeqCo0BIB1iudOtp6jw6wig+6Ez2w2tvbkcvlZEA1Unhlh1UMsKricuROUIACFKAABaalAAOsCgZYwxu3i5/LvQvhtDyruNEUoAAFKECBYQLjBVjfmOfDvpSBV7sKvZ3EVL/zG9z4xyc5/LglgH0pE4uCLnxrW0I+Dl9nB1g3L/DhgrgbexMmrpntxbmbemUYJiqZRE+sv32Uk32r7l0alBVZGRP4zfsZzPIpxwRYYqrek2vDSBiQFWCdAxZe7Mzh18tDeDthIKHn8WyHjte6jw2wRPAm+nF9d2cSN8zzYW2dBtF7/olDWRmalRNgtZ9fh5agC9GNlbsLIQMsXrIUoAAFKEABCkx1AQZYDgdYdojFuxBO9UuD20cBClCAApMpMF6ANZljFX/WKUEX/rImjHNe7ZXVUFsvqMfc57tQdIPDSg19wj53Ij2wRguw7IosUYFlf9k7Nvxn+w7Nra2tZe27rusQX1woQAEKUIACFKDAWAIMsBhg8QqhAAUoQAEKVFzgRAVYPhV4bHUYZ8bcMAYbrP9od0reLbBaFwZY1XpkuV8UoAAFKECB2hZggHUCAizxH8r58+dD07TaPvu49xSgAAUoUDMCJyrAqhngoh2daIAlqqDsqqqRemENr7gq7oclhmcFVi2ebdxnClCAAhSggHMCDLAYYDl3tnEkClCAAhSoWQEGWM4d+skKsEaaPmg3cxd7wwDLuWPKkShAAQpQgAIUABhgTVKAZf/n0W7cXvwoGrfbz9tN3FmBxcuPAhSgAAVqSUAGWAfVwm34uFRQII852S588NUlQ2PYlVEjDWo/t3XrVnkXwuI7EI4VYBVXY4nv7b97xBjsgVXBw8uPpgAFKEABCtSwwFQNsP4P2+Fub6wwrKgAAAAASUVORK5CYII=;" vertex="1" parent="1">
          <mxGeometry x="635" y="281.7" width="180" height="93.3" as="geometry" />
        </mxCell>
        <mxCell id="dH2MtjQN3qAbZiEpFHmS-20" value="&lt;span style=&quot;font-size: 16px;&quot;&gt;&lt;b&gt;Picture&lt;/b&gt;&lt;/span&gt;" style="text;strokeColor=none;align=center;fillColor=none;html=1;verticalAlign=middle;whiteSpace=wrap;rounded=0;" vertex="1" parent="1">
          <mxGeometry x="695" y="250" width="60" height="30" as="geometry" />
        </mxCell>
        <mxCell id="dH2MtjQN3qAbZiEpFHmS-23" style="edgeStyle=orthogonalEdgeStyle;rounded=0;orthogonalLoop=1;jettySize=auto;html=1;entryX=0;entryY=0.5;entryDx=0;entryDy=0;entryPerimeter=0;strokeWidth=2;" edge="1" parent="1" source="dH2MtjQN3qAbZiEpFHmS-13" target="dH2MtjQN3qAbZiEpFHmS-17">
          <mxGeometry relative="1" as="geometry">
            <Array as="points">
              <mxPoint x="560" y="145" />
            </Array>
          </mxGeometry>
        </mxCell>
      </root>
    </mxGraphModel>
  </diagram>
</mxfile>
